<?xml version="1.0" encoding="UTF-8"?>
<svg id="Layer_2" data-name="Layer 2" xmlns="http://www.w3.org/2000/svg" viewBox="0 0 33.61 158.64">
  <defs>
    <style>
      .cls-1 {
        fill: #6d6f71;
      }

      .cls-1, .cls-2, .cls-3 {
        stroke-width: 0px;
      }

      .cls-2 {
        fill: #bbbcbe;
      }

      .cls-3 {
        fill: #919396;
      }
    </style>
  </defs>
  <g id="Matrix">
    <g>
      <g>
        <polygon class="cls-1" points="16.78 158.57 .02 149 .11 129.7 16.88 139.27 16.78 158.57"/>
        <g>
          <polygon class="cls-2" points="16.76 139.34 16.76 139.34 32.54 130.23 16.76 139.34 0 129.77 16.85 120.04 33.61 129.61 16.76 139.34"/>
          <polygon class="cls-3" points="16.76 139.34 16.76 139.34 33.61 129.6 33.61 129.61 33.52 148.91 16.67 158.64 16.76 139.34"/>
        </g>
      </g>
      <g>
        <polygon class="cls-1" points="16.78 38.53 .02 28.96 .11 9.66 16.88 19.23 16.78 38.53"/>
        <g>
          <polygon class="cls-2" points="16.76 19.3 16.76 19.3 32.54 10.19 16.76 19.3 0 9.73 16.85 0 33.61 9.57 16.76 19.3"/>
          <polygon class="cls-3" points="16.76 19.3 16.76 19.29 33.61 9.56 33.61 9.57 33.52 28.87 16.67 38.6 16.76 19.3"/>
        </g>
      </g>
      <g>
        <polygon class="cls-1" points="16.78 98.55 .02 88.98 .11 69.68 16.88 79.25 16.78 98.55"/>
        <g>
          <polygon class="cls-2" points="16.76 79.32 16.76 79.32 32.54 70.21 16.76 79.32 0 69.75 16.85 60.02 33.61 69.59 16.76 79.32"/>
          <polygon class="cls-3" points="16.76 79.32 16.76 79.31 33.61 69.58 33.61 69.59 33.52 88.88 16.67 98.62 16.76 79.32"/>
        </g>
      </g>
    </g>
  </g>
</svg>