<?xml version="1.0" encoding="UTF-8"?>
<svg id="Layer_2" data-name="Layer 2" xmlns="http://www.w3.org/2000/svg" viewBox="0 0 192.26 166.55">
  <defs>
    <style>
      .cls-1 {
        fill: #6d6e70;
      }

      .cls-1, .cls-2, .cls-3, .cls-4, .cls-5, .cls-6, .cls-7, .cls-8, .cls-9 {
        stroke-width: 0px;
      }

      .cls-2 {
        fill: #1a1a1a;
      }

      .cls-3 {
        fill: #404040;
      }

      .cls-4 {
        fill: #bbbdbf;
      }

      .cls-5 {
        fill: #c2c2c2;
      }

      .cls-6 {
        fill: #929497;
      }

      .cls-7 {
        fill: #686868;
      }

      .cls-8 {
        fill: #fff;
      }

      .cls-9 {
        fill: #e8e8e8;
      }
    </style>
  </defs>
  <g id="Erratta">
    <g>
      <g>
        <polygon class="cls-2" points="48.17 110.52 0 82.61 0 27.08 48.16 54.79 48.17 110.52"/>
        <polygon class="cls-7" points="48.16 54.79 48.16 54.79 96 27.23 48.16 54.79 0 27.08 48.17 0 96 27.23 48.16 54.79"/>
        <polygon class="cls-3" points="48.16 54.79 48.16 54.79 96 27.23 96 27.23 96 82.61 48.17 110.52 48.16 54.79"/>
      </g>
      <g>
        <polygon class="cls-1" points="96.3 138.54 48.13 110.63 48.13 55.09 96.3 82.8 96.3 138.54"/>
        <polygon class="cls-4" points="96.3 82.8 96.3 82.8 144.13 55.24 96.3 82.8 48.13 55.09 96.3 28.01 144.13 55.24 96.3 82.8"/>
        <polygon class="cls-6" points="96.3 82.8 96.3 82.8 144.13 55.24 144.13 55.24 144.13 110.63 96.3 138.54 96.3 82.8"/>
      </g>
      <g>
        <polygon class="cls-5" points="144.43 166.55 96.27 138.64 96.27 83.1 144.43 110.81 144.43 166.55"/>
        <polygon class="cls-8" points="144.43 110.81 144.43 110.81 192.26 83.25 144.43 110.81 96.27 83.1 144.43 56.02 192.26 83.25 144.43 110.81"/>
        <polygon class="cls-9" points="144.43 110.81 144.43 110.81 192.26 83.25 192.26 83.25 192.26 138.64 144.43 166.55 144.43 110.81"/>
      </g>
    </g>
  </g>
</svg>