<?xml version="1.0" encoding="UTF-8"?>
<svg id="Layer_2" data-name="Layer 2" xmlns="http://www.w3.org/2000/svg" xmlns:xlink="http://www.w3.org/1999/xlink" viewBox="0 0 396.57 306.02">
  <defs>
    <style>
      .cls-1, .cls-2, .cls-3, .cls-4, .cls-5, .cls-6, .cls-7, .cls-8, .cls-9, .cls-10, .cls-11 {
        stroke: #231f20;
      }

      .cls-1, .cls-2, .cls-3, .cls-4, .cls-5, .cls-6, .cls-7, .cls-8, .cls-9, .cls-10, .cls-11, .cls-12 {
        stroke-miterlimit: 10;
      }

      .cls-1, .cls-2, .cls-3, .cls-4, .cls-5, .cls-6, .cls-7, .cls-8, .cls-11, .cls-12 {
        stroke-width: .5px;
      }

      .cls-1, .cls-13 {
        fill: #00aeef;
      }

      .cls-2, .cls-14 {
        fill: #ed1c24;
      }

      .cls-3, .cls-15 {
        fill: #fff200;
      }

      .cls-4, .cls-9 {
        fill: #fff;
      }

      .cls-5, .cls-16 {
        fill: #f7941d;
      }

      .cls-6, .cls-17 {
        fill: #00a651;
      }

      .cls-18 {
        filter: url(#drop-shadow-1);
      }

      .cls-7, .cls-19 {
        fill: #92278f;
      }

      .cls-8, .cls-20 {
        fill: #2e3192;
      }

      .cls-10, .cls-11, .cls-12 {
        fill: none;
      }

      .cls-21, .cls-20, .cls-22, .cls-19, .cls-17, .cls-15, .cls-14, .cls-16, .cls-13 {
        stroke-width: 0px;
      }

      .cls-22 {
        fill: #bbbcbe;
      }

      .cls-12 {
        stroke: #a7a9ac;
      }
    </style>
    <filter id="drop-shadow-1" filterUnits="userSpaceOnUse">
      <feOffset dx="0" dy="0"/>
      <feGaussianBlur result="blur" stdDeviation=".72"/>
      <feFlood flood-color="#000" flood-opacity=".75"/>
      <feComposite in2="blur" operator="in"/>
      <feComposite in="SourceGraphic"/>
    </filter>
  </defs>
  <g id="Layer_1-2" data-name="Layer 1">
    <g>
      <g>
        <g>
          <polyline class="cls-12" points="384.09 33.47 368.3 33.47 352.51 26.8 315.61 26.8"/>
          <polyline class="cls-12" points="384.09 112.46 368.3 112.46 352.51 61.26 324.83 61.26"/>
          <polyline class="cls-12" points="384.09 99.29 368.3 99.29 352.51 55.52 328.5 55.52"/>
          <polyline class="cls-12" points="384.09 86.13 368.3 86.13 352.51 49.78 331.9 49.78"/>
          <polyline class="cls-12" points="384.09 72.96 368.3 72.96 352.51 44.03 332.87 44.03"/>
          <polyline class="cls-12" points="384.09 59.8 368.3 59.8 352.51 38.29 331.86 38.29"/>
          <polyline class="cls-12" points="384.09 46.63 368.3 46.63 352.51 32.55 328.45 32.55"/>
        </g>
        <g>
          <circle class="cls-4" cx="389.72" cy="33.41" r="6.61"/>
          <circle class="cls-4" cx="389.72" cy="46.62" r="6.61"/>
          <circle class="cls-4" cx="389.72" cy="59.84" r="6.61"/>
          <circle class="cls-4" cx="389.72" cy="73.06" r="6.61"/>
          <circle class="cls-4" cx="389.72" cy="86.27" r="6.61"/>
          <circle class="cls-4" cx="389.72" cy="99.49" r="6.61"/>
          <circle class="cls-4" cx="389.72" cy="112.7" r="6.61"/>
        </g>
      </g>
      <g>
        <line class="cls-12" x1="284.99" y1="268.03" x2="236.16" y2="268.03"/>
        <line class="cls-12" x1="313.3" y1="26.8" x2="236.16" y2="26.8"/>
        <line class="cls-12" x1="304.57" y1="61.26" x2="236.16" y2="61.26"/>
        <line class="cls-12" x1="276.36" y1="95.73" x2="236.16" y2="95.73"/>
        <line class="cls-12" x1="273.76" y1="130.19" x2="236.16" y2="130.19"/>
        <line class="cls-12" x1="274.58" y1="164.65" x2="236.16" y2="164.65"/>
        <line class="cls-12" x1="292.27" y1="199.11" x2="236.16" y2="199.11"/>
        <line class="cls-12" x1="292.69" y1="233.57" x2="236.16" y2="233.57"/>
        <g>
          <line class="cls-11" x1="289.41" y1="44.24" x2="281.1" y2="44.24"/>
          <line class="cls-11" x1="273.8" y1="78.7" x2="265.48" y2="78.7"/>
          <line class="cls-11" x1="271.19" y1="113.17" x2="262.88" y2="113.17"/>
          <line class="cls-11" x1="268.59" y1="147.63" x2="260.28" y2="147.63"/>
          <line class="cls-11" x1="284.21" y1="182.09" x2="275.89" y2="182.09"/>
          <line class="cls-11" x1="286.81" y1="216.55" x2="278.5" y2="216.55"/>
          <line class="cls-11" x1="289.41" y1="251.01" x2="281.1" y2="251.01"/>
        </g>
        <g>
          <circle class="cls-4" cx="237.71" cy="44.06" r="17.26"/>
          <circle class="cls-4" cx="237.71" cy="78.58" r="17.26"/>
          <circle class="cls-4" cx="237.71" cy="113.11" r="17.26"/>
          <circle class="cls-4" cx="237.71" cy="147.63" r="17.26"/>
          <circle class="cls-4" cx="237.71" cy="182.15" r="17.26"/>
          <circle class="cls-4" cx="237.71" cy="216.67" r="17.26"/>
          <circle class="cls-4" cx="237.71" cy="251.19" r="17.26"/>
        </g>
      </g>
      <g>
        <g>
          <g>
            <polyline class="cls-9" points="314.61 268.44 319 257.42 313.52 162.45 310.64 257.42 313.52 268.44 285.17 268.44 297.38 257.41 292.87 214.65 291.07 148.51 274.77 162.45 274.77 144.05 276.09 114.29 281.09 73.46 294.45 64.62 304.75 61.4 313.52 51.24 322.7 61.53 332.59 64.62 346.12 73.46 350.2 114.15 351.39 144.05 351.39 162.45 336.09 148.51 334 214.65 330.74 257.42 340.92 268.44 314.61 268.44"/>
            <circle class="cls-9" cx="313.48" cy="44.07" r="17.26"/>
          </g>
          <line class="cls-10" x1="291.07" y1="148.51" x2="294.68" y2="81.39"/>
          <line class="cls-10" x1="336.09" y1="148.51" x2="332.83" y2="81.39"/>
        </g>
        <g>
          <g>
            <polyline class="cls-9" points="314.61 268.44 319 257.42 313.52 162.45 310.64 257.42 313.52 268.44 285.17 268.44 297.38 257.41 292.87 214.65 291.07 148.51 274.77 162.45 274.77 144.05 276.09 114.29 281.09 73.46 294.45 64.62 304.75 61.4 313.52 51.24 322.7 61.53 332.59 64.62 346.12 73.46 350.2 114.15 351.39 144.05 351.39 162.45 336.09 148.51 334 214.65 330.74 257.42 340.92 268.44 314.61 268.44"/>
            <circle class="cls-9" cx="313.48" cy="44.07" r="17.26"/>
          </g>
          <line class="cls-10" x1="291.07" y1="148.51" x2="294.68" y2="81.39"/>
          <line class="cls-10" x1="336.09" y1="148.51" x2="332.83" y2="81.39"/>
        </g>
        <g>
          <g>
            <polyline class="cls-4" points="314.61 268.44 319 257.42 313.52 162.45 310.64 257.42 313.52 268.44 285.17 268.44 297.38 257.41 292.87 214.65 291.07 148.51 274.77 162.45 274.77 144.05 276.09 114.29 281.09 70.49 294.45 64.62 304.75 61.4 313.52 51.24 322.7 61.53 332.59 64.62 346.12 70.49 350.2 114.15 351.39 144.05 351.39 162.45 336.09 148.51 334 214.65 330.74 257.42 340.92 268.44 314.61 268.44"/>
            <circle class="cls-4" cx="313.48" cy="44.07" r="17.26"/>
          </g>
          <line class="cls-11" x1="291.07" y1="148.51" x2="294.68" y2="81.39"/>
          <line class="cls-11" x1="336.09" y1="148.51" x2="332.83" y2="81.39"/>
        </g>
      </g>
      <g>
        <path class="cls-7" d="M396.32,129.19c0,5.92-4.8,10.71-10.71,10.71-5.92,0-10.71-4.8-10.71-10.71s4.8-10.71,10.71-10.71c5.92,0,10.71,4.8,10.71,10.71Z"/>
        <circle class="cls-8" cx="385.61" cy="150.61" r="10.71"/>
        <path class="cls-1" d="M396.32,172.04c0,5.92-4.8,10.71-10.71,10.71-5.92,0-10.71-4.8-10.71-10.71s4.8-10.71,10.71-10.71,10.71,4.8,10.71,10.71Z"/>
        <path class="cls-6" d="M396.32,193.46c0,5.92-4.8,10.71-10.71,10.71-5.92,0-10.71-4.8-10.71-10.71s4.8-10.71,10.71-10.71c5.92,0,10.71,4.8,10.71,10.71Z"/>
        <path class="cls-3" d="M396.32,214.89c0,5.92-4.8,10.71-10.71,10.71-5.92,0-10.71-4.8-10.71-10.71s4.8-10.71,10.71-10.71c5.92,0,10.71,4.8,10.71,10.71Z"/>
        <path class="cls-5" d="M396.32,236.31c0,5.92-4.8,10.71-10.71,10.71-5.92,0-10.71-4.8-10.71-10.71,0-5.92,4.8-10.71,10.71-10.71,5.92,0,10.71,4.8,10.71,10.71Z"/>
        <circle class="cls-2" cx="385.61" cy="257.74" r="10.71"/>
      </g>
      <g>
        <path class="cls-21" d="M346.05,3l3.51,10.31h.04l3.32-10.31h4.64v14.99h-3.09V7.37h-.04l-3.67,10.63h-2.54l-3.68-10.52h-.04v10.52h-3.09V3h4.64Z"/>
        <path class="cls-21" d="M363.75,3v14.99h-3.3V3h3.3Z"/>
        <path class="cls-21" d="M369.93,3l6.26,10.06h.04V3h3.09v14.99h-3.3l-6.24-10.04h-.04v10.04h-3.09V3h3.28Z"/>
        <path class="cls-21" d="M388.68,3c.96,0,1.87.15,2.7.46.83.31,1.55.77,2.16,1.39.61.62,1.08,1.39,1.43,2.31s.51,2.01.51,3.25c0,1.09-.14,2.1-.42,3.02-.28.92-.7,1.72-1.27,2.39s-1.27,1.2-2.12,1.59c-.85.39-1.85.58-2.99.58h-6.47V3h6.47ZM388.45,15.23c.48,0,.94-.08,1.39-.23.45-.15.85-.41,1.2-.77s.63-.82.84-1.4c.21-.57.31-1.27.31-2.1,0-.76-.07-1.44-.22-2.05-.15-.61-.39-1.13-.72-1.56-.34-.43-.78-.77-1.33-1-.55-.23-1.24-.35-2.05-.35h-2.35v9.45h2.94Z"/>
      </g>
      <g>
        <path class="cls-21" d="M332.28,291.51c.18.35.42.63.72.85.3.22.65.38,1.06.48s.83.16,1.26.16c.29,0,.61-.02.95-.07s.65-.14.95-.28c.29-.14.54-.33.73-.58.2-.24.29-.56.29-.93,0-.41-.13-.73-.39-.99s-.6-.46-1.02-.63-.9-.31-1.43-.44c-.53-.13-1.07-.27-1.62-.42-.56-.14-1.11-.31-1.64-.51-.53-.2-1.01-.47-1.43-.79-.42-.32-.76-.72-1.02-1.21-.26-.48-.39-1.07-.39-1.75,0-.77.17-1.44.49-2.01.33-.57.76-1.04,1.29-1.42.53-.38,1.13-.66,1.81-.84.67-.18,1.34-.27,2.02-.27.78,0,1.54.09,2.26.26.72.18,1.36.46,1.92.85.56.39,1,.89,1.33,1.5.33.61.49,1.35.49,2.22h-3.19c-.03-.45-.12-.82-.28-1.11-.16-.29-.38-.53-.64-.69s-.57-.29-.91-.36c-.34-.07-.72-.1-1.12-.1-.27,0-.53.03-.8.08-.27.06-.51.15-.72.29-.22.14-.39.31-.54.52-.14.21-.21.48-.21.8,0,.29.05.53.17.71.11.18.33.35.66.5.33.15.79.31,1.37.46.58.15,1.34.35,2.28.59.28.06.67.16,1.17.3.5.15.99.38,1.48.7.49.32.91.75,1.27,1.29.36.54.54,1.23.54,2.07,0,.69-.13,1.32-.4,1.91s-.66,1.1-1.19,1.52c-.52.43-1.18.76-1.95,1-.78.24-1.68.36-2.7.36-.83,0-1.63-.1-2.4-.3-.78-.2-1.46-.52-2.06-.96s-1.07-.99-1.42-1.66-.52-1.47-.5-2.39h3.19c0,.5.09.93.27,1.28Z"/>
        <path class="cls-21" d="M350.15,280.21c.94,0,1.74.14,2.39.41s1.19.63,1.61,1.08c.41.45.71.96.9,1.53.19.57.28,1.17.28,1.79s-.09,1.19-.28,1.77c-.19.58-.49,1.1-.9,1.54-.41.45-.95.81-1.61,1.08s-1.46.41-2.39.41h-3.46v5.38h-3.3v-14.99h6.76ZM349.24,287.26c.38,0,.74-.03,1.09-.08.35-.06.66-.16.92-.33.27-.16.48-.39.64-.68.16-.29.24-.68.24-1.16s-.08-.86-.24-1.15-.38-.52-.64-.68c-.27-.16-.57-.27-.92-.33-.35-.06-.71-.08-1.09-.08h-2.56v4.49h2.56Z"/>
        <path class="cls-21" d="M360.69,280.21v14.99h-3.3v-14.99h3.3Z"/>
        <path class="cls-21" d="M371.67,280.21c.67,0,1.28.11,1.82.33.54.22,1,.51,1.38.89s.68.82.88,1.31.3,1.03.3,1.61c0,.88-.19,1.65-.56,2.29s-.98,1.13-1.82,1.47v.04c.41.11.74.28,1.01.51s.48.5.65.82.29.66.37,1.04c.08.38.13.76.16,1.13.01.24.03.52.04.84.01.32.04.65.07.99s.09.65.17.96c.08.3.19.56.35.77h-3.3c-.18-.48-.29-1.04-.34-1.7-.04-.66-.11-1.29-.19-1.89-.11-.78-.35-1.36-.71-1.72-.36-.36-.96-.55-1.79-.55h-3.3v5.86h-3.3v-14.99h8.09ZM370.5,286.99c.76,0,1.32-.17,1.7-.5.38-.34.57-.88.57-1.64s-.19-1.26-.57-1.59c-.38-.33-.94-.49-1.7-.49h-3.61v4.22h3.61Z"/>
        <path class="cls-21" d="M382.04,280.21v14.99h-3.3v-14.99h3.3Z"/>
        <path class="cls-21" d="M383.77,282.98v-2.77h12.29v2.77h-4.49v12.22h-3.3v-12.22h-4.49Z"/>
      </g>
      <g>
        <path class="cls-21" d="M231.52,7c-.2-.31-.44-.59-.74-.83-.29-.24-.63-.42-1-.56-.37-.13-.76-.2-1.17-.2-.74,0-1.37.14-1.89.43-.52.29-.94.67-1.26,1.15s-.56,1.03-.7,1.65c-.15.62-.22,1.25-.22,1.91s.07,1.24.22,1.84c.15.6.38,1.13.7,1.61.32.48.74.86,1.26,1.14.52.29,1.15.43,1.89.43,1.01,0,1.79-.31,2.36-.92.57-.62.91-1.43,1.04-2.44h3.19c-.08.94-.3,1.78-.65,2.54-.35.76-.81,1.4-1.39,1.93-.57.53-1.25.94-2.02,1.22-.77.28-1.62.42-2.54.42-1.15,0-2.18-.2-3.1-.6-.92-.4-1.69-.95-2.32-1.65-.63-.7-1.11-1.52-1.45-2.47-.34-.95-.5-1.96-.5-3.06s.17-2.16.5-3.12c.34-.96.82-1.8,1.45-2.51.63-.71,1.4-1.27,2.32-1.68.92-.41,1.95-.61,3.1-.61.83,0,1.61.12,2.34.36.73.24,1.39.58,1.97,1.04.58.46,1.06,1.02,1.44,1.69.38.67.62,1.44.71,2.31h-3.19c-.06-.38-.18-.72-.38-1.04Z"/>
        <path class="cls-21" d="M240.76,3v5.75h6.07V3h3.3v14.99h-3.3v-6.47h-6.07v6.47h-3.3V3h3.3Z"/>
        <path class="cls-21" d="M252.88,7.44c.34-.96.82-1.8,1.45-2.51.63-.71,1.4-1.27,2.32-1.68.92-.41,1.95-.61,3.1-.61s2.2.2,3.11.61c.91.41,1.68.97,2.31,1.68.63.71,1.11,1.55,1.45,2.51.34.96.5,2,.5,3.12s-.17,2.11-.5,3.06c-.34.94-.82,1.77-1.45,2.47-.63.7-1.4,1.25-2.31,1.65-.91.4-1.95.6-3.11.6s-2.18-.2-3.1-.6c-.92-.4-1.69-.95-2.32-1.65-.63-.7-1.11-1.52-1.45-2.47-.34-.95-.5-1.96-.5-3.06s.17-2.16.5-3.12ZM255.89,12.4c.15.6.38,1.13.7,1.61.32.48.74.86,1.26,1.14.52.29,1.15.43,1.89.43s1.37-.14,1.89-.43c.52-.29.94-.67,1.26-1.14.32-.48.56-1.01.7-1.61.15-.59.22-1.21.22-1.84s-.07-1.29-.22-1.91c-.15-.62-.38-1.17-.7-1.65s-.74-.87-1.26-1.15c-.52-.29-1.15-.43-1.89-.43s-1.37.14-1.89.43c-.52.29-.94.67-1.26,1.15-.32.48-.55,1.03-.7,1.65-.15.62-.22,1.25-.22,1.91s.07,1.24.22,1.84Z"/>
        <path class="cls-21" d="M272.66,3v14.99h-3.3V3h3.3Z"/>
        <path class="cls-21" d="M285.18,7c-.2-.31-.44-.59-.73-.83-.29-.24-.63-.42-1-.56-.37-.13-.76-.2-1.17-.2-.74,0-1.37.14-1.89.43-.52.29-.94.67-1.26,1.15-.32.48-.55,1.03-.7,1.65-.15.62-.22,1.25-.22,1.91s.07,1.24.22,1.84c.15.6.38,1.13.7,1.61.32.48.74.86,1.26,1.14.52.29,1.15.43,1.89.43,1.01,0,1.8-.31,2.36-.92s.91-1.43,1.04-2.44h3.19c-.08.94-.3,1.78-.65,2.54-.35.76-.81,1.4-1.39,1.93-.57.53-1.25.94-2.02,1.22s-1.62.42-2.54.42c-1.15,0-2.18-.2-3.1-.6-.92-.4-1.69-.95-2.32-1.65-.63-.7-1.11-1.52-1.45-2.47-.34-.95-.5-1.96-.5-3.06s.17-2.16.5-3.12c.34-.96.82-1.8,1.45-2.51.63-.71,1.4-1.27,2.32-1.68.92-.41,1.95-.61,3.1-.61.83,0,1.61.12,2.34.36.73.24,1.39.58,1.97,1.04.58.46,1.06,1.02,1.44,1.69.38.67.62,1.44.71,2.31h-3.19c-.06-.38-.18-.72-.38-1.04Z"/>
        <path class="cls-21" d="M302.33,3v2.77h-7.92v3.21h7.27v2.56h-7.27v3.67h8.08v2.77h-11.38V3h11.21Z"/>
      </g>
      <g>
        <path class="cls-21" d="M228.96,280.59c.71,0,1.37.06,1.95.19s1.09.33,1.51.62c.42.29.75.67.98,1.14.23.48.35,1.06.35,1.76,0,.76-.17,1.39-.51,1.89-.34.5-.85.92-1.52,1.24.92.27,1.61.73,2.07,1.4s.68,1.47.68,2.4c0,.76-.15,1.41-.44,1.96-.29.55-.69,1-1.19,1.35-.5.35-1.06.61-1.7.78-.64.17-1.29.25-1.96.25h-7.27v-14.99h7.06ZM228.54,286.66c.59,0,1.07-.14,1.45-.42.38-.28.57-.73.57-1.36,0-.35-.06-.64-.19-.86-.12-.22-.29-.4-.5-.53-.21-.13-.45-.21-.72-.26-.27-.05-.56-.07-.85-.07h-3.09v3.51h3.34ZM228.73,293.02c.32,0,.63-.03.92-.09.29-.06.55-.17.78-.31.22-.15.4-.35.54-.6.13-.25.2-.57.2-.97,0-.77-.22-1.32-.65-1.65-.43-.33-1.01-.49-1.72-.49h-3.59v4.12h3.53Z"/>
        <path class="cls-21" d="M236.54,285.03c.34-.96.82-1.8,1.45-2.51.63-.71,1.4-1.27,2.32-1.68.92-.41,1.95-.61,3.1-.61s2.2.2,3.11.61c.91.41,1.68.97,2.31,1.68.63.71,1.11,1.55,1.45,2.51.34.96.5,2,.5,3.12s-.17,2.11-.5,3.06c-.34.94-.82,1.77-1.45,2.47-.63.7-1.4,1.25-2.31,1.65-.91.4-1.95.6-3.11.6s-2.18-.2-3.1-.6c-.92-.4-1.69-.95-2.32-1.65-.63-.7-1.11-1.52-1.45-2.47-.34-.95-.5-1.96-.5-3.06s.17-2.16.5-3.12ZM239.55,289.98c.15.6.38,1.13.7,1.61.32.48.74.86,1.26,1.14.52.29,1.15.43,1.89.43s1.37-.14,1.89-.43c.52-.29.94-.67,1.26-1.14.32-.48.56-1.01.7-1.61.15-.59.22-1.21.22-1.84s-.07-1.29-.22-1.91c-.15-.62-.38-1.17-.7-1.65s-.74-.87-1.26-1.15c-.52-.29-1.15-.43-1.89-.43s-1.37.14-1.89.43c-.52.29-.94.67-1.26,1.15-.32.48-.55,1.03-.7,1.65-.15.62-.22,1.25-.22,1.91s.07,1.24.22,1.84Z"/>
        <path class="cls-21" d="M259.49,280.59c.97,0,1.87.15,2.7.46.83.31,1.55.77,2.16,1.39.61.62,1.09,1.39,1.43,2.31.34.92.52,2.01.52,3.25,0,1.09-.14,2.1-.42,3.02-.28.92-.7,1.72-1.27,2.39-.57.67-1.27,1.2-2.12,1.59-.85.39-1.84.58-2.99.58h-6.47v-14.99h6.47ZM259.26,292.81c.48,0,.94-.08,1.39-.23.45-.15.85-.41,1.2-.77.35-.36.63-.82.84-1.4.21-.57.31-1.27.31-2.1,0-.76-.07-1.44-.22-2.05s-.39-1.13-.72-1.56-.78-.77-1.33-1-1.23-.35-2.05-.35h-2.35v9.45h2.94Z"/>
        <path class="cls-21" d="M266.97,280.59h3.7l3.51,5.92,3.49-5.92h3.67l-5.56,9.24v5.75h-3.3v-5.84l-5.5-9.16Z"/>
      </g>
      <g>
        <path class="cls-22" d="M313.43,32.95l7.48,9.47-.38.48h0s-7.14,9.15-7.14,9.15l-7.47-9.47,7.52-9.64M313.42,32.55l-7.84,10.04,7.79,9.88,7.34-9.41-7.34,9.41h0l7.84-10.04-7.79-9.88h0Z"/>
        <path class="cls-22" d="M313.43,52.87l7.48,9.47-.38.48h0s-7.14,9.15-7.14,9.15l-7.47-9.47,7.52-9.64M313.42,52.47l-7.84,10.04,7.79,9.88,7.34-9.41-7.34,9.41h0l7.84-10.04-7.79-9.88h0Z"/>
        <path class="cls-22" d="M313.43,72.79l7.48,9.47-.38.48h0s-7.14,9.15-7.14,9.15l-7.47-9.47,7.52-9.64M313.42,72.39l-7.84,10.04,7.79,9.88,7.34-9.41-7.34,9.41h0l7.84-10.04-7.79-9.88h0Z"/>
        <path class="cls-22" d="M313.43,92.71l7.48,9.47-.38.48h0s-7.14,9.15-7.14,9.15l-7.47-9.47,7.52-9.64M313.42,92.31l-7.84,10.04,7.79,9.88,7.34-9.41-7.34,9.41h0l7.84-10.04-7.79-9.88h0Z"/>
        <path class="cls-22" d="M313.43,112.63l7.48,9.47-.38.48h0s-7.14,9.15-7.14,9.15l-7.47-9.47,7.52-9.64M313.42,112.23l-7.84,10.04,7.79,9.88,7.34-9.41-7.34,9.41h0l7.84-10.04-7.79-9.88h0Z"/>
        <path class="cls-22" d="M313.43,132.55l7.48,9.47-.38.48h0s-7.14,9.15-7.14,9.15l-7.47-9.47,7.52-9.64M313.42,132.15l-7.84,10.04,7.79,9.88,7.34-9.41-7.34,9.41h0l7.84-10.04-7.79-9.88h0Z"/>
      </g>
      <g class="cls-18">
        <circle class="cls-19" cx="313.48" cy="33.41" r="3.3"/>
        <circle class="cls-20" cx="313.48" cy="53.05" r="3.3"/>
        <circle class="cls-13" cx="313.48" cy="72.69" r="3.3"/>
        <circle class="cls-17" cx="313.48" cy="92.33" r="3.3"/>
        <circle class="cls-15" cx="313.48" cy="111.97" r="3.3"/>
        <circle class="cls-16" cx="313.48" cy="131.61" r="3.3"/>
        <circle class="cls-14" cx="313.48" cy="151.25" r="3.3"/>
      </g>
      <g>
        <path class="cls-21" d="M164.24,261.05l-2.54-10.21h-.04l-2.5,10.21h-3.34l-3.97-14.99h3.3l2.37,10.21h.04l2.6-10.21h3.09l2.56,10.33h.04l2.46-10.33h3.23l-4.03,14.99h-3.28Z"/>
        <path class="cls-21" d="M180.03,246.06l5.61,14.99h-3.42l-1.13-3.34h-5.61l-1.18,3.34h-3.32l5.67-14.99h3.38ZM180.22,255.26l-1.89-5.5h-.04l-1.95,5.5h3.89Z"/>
        <path class="cls-21" d="M183.77,246.06h3.7l3.51,5.92,3.49-5.92h3.67l-5.56,9.24v5.75h-3.3v-5.84l-5.5-9.16Z"/>
      </g>
      <g>
        <path class="cls-21" d="M100.78,280.92c.94,0,1.74.14,2.39.41s1.19.63,1.61,1.08c.41.45.71.96.9,1.53.19.57.28,1.17.28,1.79s-.09,1.19-.28,1.77c-.19.58-.49,1.1-.9,1.54-.41.45-.95.81-1.61,1.08s-1.46.41-2.39.41h-3.46v5.38h-3.3v-14.99h6.76ZM99.88,287.98c.38,0,.74-.03,1.09-.08.35-.06.66-.16.92-.33.27-.16.48-.39.64-.68.16-.29.24-.68.24-1.16s-.08-.86-.24-1.15-.38-.52-.64-.68c-.27-.16-.57-.27-.92-.33-.35-.06-.71-.08-1.09-.08h-2.56v4.49h2.56Z"/>
        <path class="cls-21" d="M107.88,285.36c.34-.96.82-1.8,1.45-2.51.63-.71,1.4-1.27,2.32-1.68.92-.41,1.95-.61,3.1-.61s2.2.2,3.11.61c.91.41,1.68.97,2.31,1.68.63.71,1.11,1.55,1.45,2.51.34.96.5,2,.5,3.12s-.17,2.11-.5,3.06c-.34.94-.82,1.77-1.45,2.47-.63.7-1.4,1.25-2.31,1.65-.91.4-1.95.6-3.11.6s-2.18-.2-3.1-.6c-.92-.4-1.69-.95-2.32-1.65-.63-.7-1.11-1.52-1.45-2.47-.34-.95-.5-1.96-.5-3.06s.17-2.16.5-3.12ZM110.89,290.32c.15.6.38,1.13.7,1.61.32.48.74.86,1.26,1.14.52.29,1.15.43,1.89.43s1.37-.14,1.89-.43c.52-.29.94-.67,1.26-1.14.32-.48.56-1.01.7-1.61.15-.59.22-1.21.22-1.84s-.07-1.29-.22-1.91c-.15-.62-.38-1.17-.7-1.65s-.74-.87-1.26-1.15c-.52-.29-1.15-.43-1.89-.43s-1.37.14-1.89.43c-.52.29-.94.67-1.26,1.15-.32.48-.55,1.03-.7,1.65-.15.62-.22,1.25-.22,1.91s.07,1.24.22,1.84Z"/>
        <path class="cls-21" d="M127.66,280.92v12.22h7.31v2.77h-10.6v-14.99h3.3Z"/>
        <path class="cls-21" d="M144.29,280.92l5.61,14.99h-3.42l-1.13-3.34h-5.61l-1.18,3.34h-3.32l5.67-14.99h3.38ZM144.48,290.12l-1.89-5.5h-.04l-1.95,5.5h3.88Z"/>
        <path class="cls-21" d="M159.28,280.92c.67,0,1.28.11,1.82.33.54.22,1,.51,1.39.89s.68.82.88,1.31.3,1.03.3,1.61c0,.88-.19,1.65-.56,2.29s-.98,1.13-1.82,1.47v.04c.41.11.74.28,1.01.51.27.23.48.5.65.82s.29.66.37,1.04c.08.38.13.76.16,1.13.01.24.03.52.04.84.01.32.04.65.07.99s.09.65.17.96c.08.3.19.56.35.77h-3.3c-.18-.48-.29-1.04-.34-1.7-.04-.66-.11-1.29-.19-1.89-.11-.78-.35-1.36-.71-1.72-.37-.36-.96-.55-1.79-.55h-3.3v5.86h-3.3v-14.99h8.08ZM158.11,287.71c.76,0,1.32-.17,1.7-.5.38-.34.57-.88.57-1.64s-.19-1.26-.57-1.59c-.38-.33-.95-.49-1.7-.49h-3.61v4.22h3.61Z"/>
        <path class="cls-21" d="M169.66,280.92v14.99h-3.3v-14.99h3.3Z"/>
        <path class="cls-21" d="M171.38,283.69v-2.77h12.29v2.77h-4.49v12.22h-3.3v-12.22h-4.49Z"/>
        <path class="cls-21" d="M183.77,280.92h3.7l3.51,5.92,3.49-5.92h3.67l-5.56,9.24v5.75h-3.3v-5.84l-5.5-9.16Z"/>
      </g>
      <g>
        <path class="cls-21" d="M.27,214.14v-2.77h12.28v2.77h-4.49v12.22h-3.3v-12.22H.27Z"/>
        <path class="cls-21" d="M22.37,211.37c.67,0,1.28.11,1.82.33.54.22,1,.51,1.38.89s.68.82.88,1.31.3,1.03.3,1.61c0,.88-.19,1.65-.56,2.29s-.98,1.13-1.82,1.47v.04c.41.11.74.28,1.01.51s.48.5.65.82.29.66.37,1.04c.08.38.13.76.16,1.13.01.24.03.52.04.84.01.32.04.65.07.99s.09.65.17.96c.08.3.19.56.35.77h-3.3c-.18-.48-.29-1.04-.34-1.7-.04-.66-.11-1.29-.19-1.89-.11-.78-.35-1.36-.71-1.72-.36-.36-.96-.55-1.79-.55h-3.3v5.86h-3.3v-14.99h8.09ZM21.19,218.15c.76,0,1.32-.17,1.7-.5.38-.34.57-.88.57-1.64s-.19-1.26-.57-1.59c-.38-.33-.94-.49-1.7-.49h-3.61v4.22h3.61Z"/>
        <path class="cls-21" d="M36.92,211.37l5.61,14.99h-3.42l-1.13-3.34h-5.61l-1.18,3.34h-3.32l5.67-14.99h3.38ZM37.11,220.57l-1.89-5.5h-.04l-1.95,5.5h3.88Z"/>
        <path class="cls-21" d="M47.1,211.37l6.26,10.06h.04v-10.06h3.09v14.99h-3.3l-6.24-10.04h-.04v10.04h-3.09v-14.99h3.28Z"/>
        <path class="cls-21" d="M61.91,222.67c.18.35.42.63.72.85.3.22.65.38,1.06.48s.83.16,1.26.16c.29,0,.61-.02.95-.07s.65-.14.95-.28c.29-.14.54-.33.73-.58.2-.24.29-.56.29-.93,0-.41-.13-.73-.39-.99s-.6-.46-1.02-.63-.9-.31-1.43-.44c-.53-.13-1.07-.27-1.62-.42-.56-.14-1.11-.31-1.64-.51-.53-.2-1.01-.47-1.43-.79-.42-.32-.76-.72-1.02-1.21-.26-.48-.39-1.07-.39-1.75,0-.77.17-1.44.49-2.01.33-.57.76-1.04,1.29-1.42.53-.38,1.13-.66,1.81-.84.67-.18,1.34-.27,2.02-.27.78,0,1.54.09,2.26.26.72.18,1.36.46,1.92.85.56.39,1,.89,1.33,1.5.33.61.49,1.35.49,2.22h-3.19c-.03-.45-.12-.82-.28-1.11-.16-.29-.38-.53-.64-.69s-.57-.29-.91-.36c-.34-.07-.72-.1-1.12-.1-.27,0-.53.03-.8.08-.27.06-.51.15-.72.29-.22.14-.39.31-.54.52-.14.21-.21.48-.21.8,0,.29.05.53.17.71.11.18.33.35.66.5.33.15.79.31,1.37.46.58.15,1.34.35,2.28.59.28.06.67.16,1.17.3.5.15.99.38,1.48.7.49.32.91.75,1.27,1.29.36.54.54,1.23.54,2.07,0,.69-.13,1.32-.4,1.91s-.66,1.1-1.19,1.52c-.52.43-1.18.76-1.95,1-.78.24-1.68.36-2.7.36-.83,0-1.63-.1-2.4-.3-.78-.2-1.46-.52-2.06-.96s-1.07-.99-1.42-1.66-.52-1.47-.5-2.39h3.19c0,.5.09.93.27,1.28Z"/>
        <path class="cls-21" d="M83.56,211.37v2.77h-7.25v3.47h6.28v2.56h-6.28v6.19h-3.3v-14.99h10.54Z"/>
        <path class="cls-21" d="M85.32,215.81c.34-.96.82-1.8,1.45-2.51.63-.71,1.4-1.27,2.32-1.68.92-.41,1.95-.61,3.1-.61s2.2.2,3.11.61c.91.41,1.68.97,2.31,1.68.63.71,1.11,1.55,1.45,2.51.34.96.5,2,.5,3.12s-.17,2.11-.5,3.06c-.34.94-.82,1.77-1.45,2.47-.63.7-1.4,1.25-2.31,1.65-.91.4-1.95.6-3.11.6s-2.18-.2-3.1-.6c-.92-.4-1.69-.95-2.32-1.65-.63-.7-1.11-1.52-1.45-2.47-.34-.95-.5-1.96-.5-3.06s.17-2.16.5-3.12ZM88.33,220.77c.15.6.38,1.13.7,1.61.32.48.74.86,1.26,1.14.52.29,1.15.43,1.89.43s1.37-.14,1.89-.43c.52-.29.94-.67,1.26-1.14.32-.48.56-1.01.7-1.61.15-.59.22-1.21.22-1.84s-.07-1.29-.22-1.91c-.15-.62-.38-1.17-.7-1.65s-.74-.87-1.26-1.15c-.52-.29-1.15-.43-1.89-.43s-1.37.14-1.89.43c-.52.29-.94.67-1.26,1.15-.32.48-.55,1.03-.7,1.65-.15.62-.22,1.25-.22,1.91s.07,1.24.22,1.84Z"/>
        <path class="cls-21" d="M109.89,211.37c.67,0,1.28.11,1.82.33.54.22,1,.51,1.39.89s.68.82.88,1.31.3,1.03.3,1.61c0,.88-.19,1.65-.56,2.29s-.98,1.13-1.82,1.47v.04c.41.11.74.28,1.01.51.27.23.48.5.65.82s.29.66.37,1.04c.08.38.13.76.16,1.13.01.24.03.52.04.84.01.32.04.65.07.99s.09.65.17.96c.08.3.19.56.35.77h-3.3c-.18-.48-.29-1.04-.34-1.7-.04-.66-.11-1.29-.19-1.89-.11-.78-.35-1.36-.71-1.72-.37-.36-.96-.55-1.79-.55h-3.3v5.86h-3.3v-14.99h8.08ZM108.71,218.15c.76,0,1.32-.17,1.7-.5.38-.34.57-.88.57-1.64s-.19-1.26-.57-1.59c-.38-.33-.95-.49-1.7-.49h-3.61v4.22h3.61Z"/>
        <path class="cls-21" d="M121.61,211.37l3.51,10.31h.04l3.32-10.31h4.64v14.99h-3.09v-10.63h-.04l-3.68,10.63h-2.54l-3.67-10.52h-.04v10.52h-3.09v-14.99h4.64Z"/>
        <path class="cls-21" d="M143.49,211.37l5.61,14.99h-3.42l-1.13-3.34h-5.61l-1.18,3.34h-3.32l5.67-14.99h3.38ZM143.68,220.57l-1.89-5.5h-.04l-1.95,5.5h3.88Z"/>
        <path class="cls-21" d="M147.29,214.14v-2.77h12.28v2.77h-4.49v12.22h-3.3v-12.22h-4.49Z"/>
        <path class="cls-21" d="M164.6,211.37v14.99h-3.3v-14.99h3.3Z"/>
        <path class="cls-21" d="M167.35,215.81c.34-.96.82-1.8,1.45-2.51.63-.71,1.4-1.27,2.32-1.68.92-.41,1.95-.61,3.1-.61s2.2.2,3.11.61c.91.41,1.68.97,2.31,1.68.63.71,1.11,1.55,1.45,2.51.34.96.5,2,.5,3.12s-.17,2.11-.5,3.06c-.34.94-.82,1.77-1.45,2.47-.63.7-1.4,1.25-2.31,1.65-.91.4-1.95.6-3.11.6s-2.18-.2-3.1-.6c-.92-.4-1.69-.95-2.32-1.65-.63-.7-1.11-1.52-1.45-2.47-.34-.95-.5-1.96-.5-3.06s.17-2.16.5-3.12ZM170.36,220.77c.15.6.38,1.13.7,1.61.32.48.74.86,1.26,1.14.52.29,1.15.43,1.89.43s1.37-.14,1.89-.43c.52-.29.94-.67,1.26-1.14.32-.48.56-1.01.7-1.61.15-.59.22-1.21.22-1.84s-.07-1.29-.22-1.91c-.15-.62-.38-1.17-.7-1.65s-.74-.87-1.26-1.15c-.52-.29-1.15-.43-1.89-.43s-1.37.14-1.89.43c-.52.29-.94.67-1.26,1.15-.32.48-.55,1.03-.7,1.65-.15.62-.22,1.25-.22,1.91s.07,1.24.22,1.84Z"/>
        <path class="cls-21" d="M187.11,211.37l6.26,10.06h.04v-10.06h3.09v14.99h-3.3l-6.24-10.04h-.04v10.04h-3.09v-14.99h3.28Z"/>
      </g>
      <g>
        <path class="cls-21" d="M53.4,187.98c.18.35.42.63.72.85.3.22.65.38,1.06.48s.83.16,1.26.16c.29,0,.61-.02.95-.07s.65-.14.95-.28c.29-.14.54-.33.73-.58.2-.24.29-.56.29-.93,0-.41-.13-.73-.39-.99-.26-.25-.6-.46-1.02-.63s-.9-.31-1.43-.44c-.53-.13-1.07-.27-1.62-.42-.56-.14-1.11-.31-1.64-.51-.53-.2-1.01-.47-1.43-.79-.42-.32-.76-.72-1.02-1.21-.26-.48-.39-1.07-.39-1.75,0-.77.16-1.44.49-2.01.33-.57.76-1.04,1.29-1.42.53-.38,1.13-.66,1.8-.84.67-.18,1.35-.27,2.02-.27.78,0,1.54.09,2.26.26.72.18,1.36.46,1.92.85.56.39,1.01.89,1.33,1.5.33.61.49,1.35.49,2.22h-3.19c-.03-.45-.12-.82-.28-1.11-.16-.29-.38-.53-.64-.69s-.57-.29-.91-.36c-.34-.07-.72-.1-1.12-.1-.27,0-.53.03-.8.08-.27.06-.51.15-.72.29-.22.14-.4.31-.54.52-.14.21-.21.48-.21.8,0,.29.06.53.17.71.11.18.33.35.66.5.33.15.78.31,1.37.46.58.15,1.34.35,2.28.59.28.06.67.16,1.17.3s.99.38,1.48.7c.49.32.91.75,1.27,1.29.36.54.54,1.23.54,2.07,0,.69-.13,1.32-.4,1.91-.27.59-.66,1.1-1.19,1.52-.53.43-1.18.76-1.95,1s-1.68.36-2.7.36c-.83,0-1.63-.1-2.4-.3-.78-.2-1.46-.52-2.06-.96-.6-.43-1.07-.99-1.42-1.66s-.52-1.47-.5-2.39h3.19c0,.5.09.93.27,1.28Z"/>
        <path class="cls-21" d="M67.81,176.68v14.99h-3.3v-14.99h3.3Z"/>
        <path class="cls-21" d="M79.59,191.56c-.71.3-1.44.45-2.16.45-1.15,0-2.18-.2-3.1-.6-.92-.4-1.69-.95-2.32-1.65-.63-.7-1.11-1.52-1.45-2.47-.34-.95-.5-1.96-.5-3.06s.17-2.16.5-3.12c.34-.96.82-1.8,1.45-2.51.63-.71,1.4-1.27,2.32-1.68.92-.41,1.95-.61,3.1-.61.77,0,1.52.12,2.24.35s1.37.57,1.95,1.02c.58.45,1.06,1,1.44,1.66.38.66.61,1.41.69,2.27h-3.15c-.2-.84-.57-1.47-1.13-1.89-.56-.42-1.24-.63-2.04-.63-.74,0-1.37.14-1.89.43-.52.29-.94.67-1.26,1.15s-.56,1.03-.7,1.65c-.15.62-.22,1.25-.22,1.91s.07,1.24.22,1.84c.15.6.38,1.13.7,1.61.32.48.74.86,1.26,1.14.52.29,1.15.43,1.89.43,1.09,0,1.94-.28,2.53-.83.6-.55.94-1.35,1.04-2.4h-3.32v-2.46h6.3v8.11h-2.1l-.34-1.7c-.59.76-1.24,1.28-1.95,1.59Z"/>
        <path class="cls-21" d="M89.92,176.68l6.26,10.06h.04v-10.06h3.09v14.99h-3.3l-6.24-10.04h-.04v10.04h-3.09v-14.99h3.28Z"/>
        <path class="cls-21" d="M105.5,176.68v14.99h-3.3v-14.99h3.3Z"/>
        <path class="cls-21" d="M118.94,176.68v2.77h-7.25v3.47h6.28v2.56h-6.28v6.19h-3.3v-14.99h10.54Z"/>
        <path class="cls-21" d="M124.15,176.68v14.99h-3.3v-14.99h3.3Z"/>
        <path class="cls-21" d="M136.67,180.68c-.2-.31-.44-.59-.73-.83-.29-.24-.63-.42-1-.56-.37-.13-.76-.2-1.17-.2-.74,0-1.37.14-1.89.43-.52.29-.94.67-1.26,1.15-.32.48-.55,1.03-.7,1.65-.15.62-.22,1.25-.22,1.91s.07,1.24.22,1.84c.15.6.38,1.13.7,1.61.32.48.74.86,1.26,1.14.52.29,1.15.43,1.89.43,1.01,0,1.8-.31,2.36-.92s.91-1.43,1.04-2.44h3.19c-.08.94-.3,1.78-.65,2.54-.35.76-.81,1.4-1.39,1.93-.57.53-1.25.94-2.02,1.22s-1.62.42-2.54.42c-1.15,0-2.18-.2-3.1-.6-.92-.4-1.69-.95-2.32-1.65-.63-.7-1.11-1.52-1.45-2.47-.34-.95-.5-1.96-.5-3.06s.17-2.16.5-3.12c.34-.96.82-1.8,1.45-2.51.63-.71,1.4-1.27,2.32-1.68.92-.41,1.95-.61,3.1-.61.83,0,1.61.12,2.34.36.73.24,1.39.58,1.97,1.04.58.46,1.06,1.02,1.44,1.69.38.67.62,1.44.71,2.31h-3.19c-.06-.38-.18-.72-.38-1.04Z"/>
        <path class="cls-21" d="M150.08,176.68l5.61,14.99h-3.42l-1.13-3.34h-5.61l-1.18,3.34h-3.32l5.67-14.99h3.38ZM150.27,185.88l-1.89-5.5h-.04l-1.95,5.5h3.88Z"/>
        <path class="cls-21" d="M153.89,179.46v-2.77h12.28v2.77h-4.49v12.22h-3.3v-12.22h-4.49Z"/>
        <path class="cls-21" d="M167.75,181.12c.34-.96.82-1.8,1.45-2.51.63-.71,1.4-1.27,2.32-1.68.92-.41,1.95-.61,3.1-.61s2.2.2,3.11.61c.91.41,1.68.97,2.31,1.68.63.71,1.11,1.55,1.45,2.51.34.96.5,2,.5,3.12s-.17,2.11-.5,3.06c-.34.94-.82,1.77-1.45,2.47-.63.7-1.4,1.25-2.31,1.65-.91.4-1.95.6-3.11.6s-2.18-.2-3.1-.6c-.92-.4-1.69-.95-2.32-1.65-.63-.7-1.11-1.52-1.45-2.47-.34-.95-.5-1.96-.5-3.06s.17-2.16.5-3.12ZM170.76,186.08c.15.6.38,1.13.7,1.61.32.48.74.86,1.26,1.14.52.29,1.15.43,1.89.43s1.37-.14,1.89-.43c.52-.29.94-.67,1.26-1.14.32-.48.56-1.01.7-1.61.15-.59.22-1.21.22-1.84s-.07-1.29-.22-1.91c-.15-.62-.38-1.17-.7-1.65-.32-.48-.74-.87-1.26-1.15-.52-.29-1.15-.43-1.89-.43s-1.37.14-1.89.43c-.52.29-.94.67-1.26,1.15s-.56,1.03-.7,1.65c-.15.62-.22,1.25-.22,1.91s.07,1.24.22,1.84Z"/>
        <path class="cls-21" d="M192.32,176.68c.67,0,1.28.11,1.82.33.54.22,1,.51,1.38.89s.68.82.88,1.31.3,1.03.3,1.61c0,.88-.19,1.65-.56,2.29s-.98,1.13-1.82,1.47v.04c.41.11.74.28,1.01.51s.48.5.65.82.29.66.37,1.04c.08.38.13.76.16,1.13.01.24.03.52.04.84.01.32.04.65.07.99s.09.65.17.96c.08.3.19.56.35.77h-3.3c-.18-.48-.29-1.04-.34-1.7-.04-.66-.11-1.29-.19-1.89-.11-.78-.35-1.36-.71-1.72-.36-.36-.96-.55-1.79-.55h-3.3v5.86h-3.3v-14.99h8.09ZM191.14,183.47c.76,0,1.32-.17,1.7-.5.38-.34.57-.88.57-1.64s-.19-1.26-.57-1.59c-.38-.33-.94-.49-1.7-.49h-3.61v4.22h3.61Z"/>
      </g>
      <g>
        <path class="cls-21" d="M75.68,141.99v2.77h-7.92v3.21h7.27v2.56h-7.27v3.67h8.09v2.77h-11.38v-14.99h11.21Z"/>
        <path class="cls-21" d="M76.92,141.99h3.82l2.94,4.79,3.04-4.79h3.61l-4.81,7.16,5.23,7.83h-3.93l-3.28-5.19-3.34,5.19h-3.7l5.23-7.85-4.83-7.14Z"/>
        <path class="cls-21" d="M98.85,141.99c.94,0,1.74.14,2.39.41.66.27,1.19.63,1.61,1.08.41.45.71.96.9,1.53.19.57.29,1.17.29,1.79s-.1,1.19-.29,1.77c-.19.58-.49,1.1-.9,1.54-.41.45-.95.81-1.61,1.08-.66.27-1.46.41-2.39.41h-3.46v5.38h-3.3v-14.99h6.76ZM97.94,149.05c.38,0,.74-.03,1.09-.08.35-.06.66-.16.92-.33.27-.16.48-.39.64-.68.16-.29.24-.68.24-1.16s-.08-.86-.24-1.15c-.16-.29-.38-.52-.64-.68-.27-.16-.57-.27-.92-.33-.35-.06-.71-.08-1.09-.08h-2.56v4.49h2.56Z"/>
        <path class="cls-21" d="M117.3,141.99v2.77h-7.92v3.21h7.27v2.56h-7.27v3.67h8.09v2.77h-11.38v-14.99h11.21Z"/>
        <path class="cls-21" d="M127.78,141.99c.67,0,1.28.11,1.82.33.54.22,1,.51,1.39.89s.68.82.88,1.31.3,1.03.3,1.61c0,.88-.19,1.65-.56,2.29s-.98,1.13-1.82,1.47v.04c.41.11.74.28,1.01.51.27.23.48.5.65.82s.29.66.37,1.04c.08.38.13.76.16,1.13.01.24.03.52.04.84.01.32.04.65.07.99s.09.65.17.96c.08.3.19.56.35.77h-3.3c-.18-.48-.29-1.04-.34-1.7-.04-.66-.11-1.29-.19-1.89-.11-.78-.35-1.36-.71-1.72-.37-.36-.96-.55-1.79-.55h-3.3v5.86h-3.3v-14.99h8.08ZM126.61,148.78c.76,0,1.32-.17,1.7-.5.38-.34.57-.88.57-1.64s-.19-1.26-.57-1.59c-.38-.33-.95-.49-1.7-.49h-3.61v4.22h3.61Z"/>
        <path class="cls-21" d="M138.16,141.99v14.99h-3.3v-14.99h3.3Z"/>
        <path class="cls-21" d="M152.27,141.99v2.77h-7.92v3.21h7.27v2.56h-7.27v3.67h8.09v2.77h-11.38v-14.99h11.21Z"/>
        <path class="cls-21" d="M157.94,141.99l6.26,10.06h.04v-10.06h3.09v14.99h-3.3l-6.24-10.04h-.04v10.04h-3.09v-14.99h3.28Z"/>
        <path class="cls-21" d="M179.84,146c-.2-.31-.44-.59-.73-.83-.29-.24-.63-.42-1-.56-.37-.13-.76-.2-1.17-.2-.74,0-1.37.14-1.89.43-.52.29-.94.67-1.26,1.15-.32.48-.55,1.03-.7,1.65-.15.62-.22,1.25-.22,1.91s.07,1.24.22,1.84c.15.6.38,1.13.7,1.61.32.48.74.86,1.26,1.14.52.29,1.15.43,1.89.43,1.01,0,1.8-.31,2.36-.92s.91-1.43,1.04-2.44h3.19c-.08.94-.3,1.78-.65,2.54-.35.76-.81,1.4-1.39,1.93-.57.53-1.25.94-2.02,1.22s-1.62.42-2.54.42c-1.15,0-2.18-.2-3.1-.6-.92-.4-1.69-.95-2.32-1.65-.63-.7-1.11-1.52-1.45-2.47-.34-.95-.5-1.96-.5-3.06s.17-2.16.5-3.12c.34-.96.82-1.8,1.45-2.51.63-.71,1.4-1.27,2.32-1.68.92-.41,1.95-.61,3.1-.61.83,0,1.61.12,2.34.36.73.24,1.39.58,1.97,1.04.58.46,1.06,1.02,1.44,1.69.38.67.62,1.44.71,2.31h-3.19c-.06-.38-.18-.72-.38-1.04Z"/>
        <path class="cls-21" d="M197,141.99v2.77h-7.92v3.21h7.27v2.56h-7.27v3.67h8.08v2.77h-11.38v-14.99h11.21Z"/>
      </g>
      <g>
        <path class="cls-21" d="M105.12,111.31c-.2-.31-.44-.59-.73-.83-.29-.24-.63-.42-1-.56-.37-.13-.76-.2-1.17-.2-.74,0-1.37.14-1.89.43-.52.29-.94.67-1.26,1.15-.32.48-.55,1.03-.7,1.65-.15.62-.22,1.25-.22,1.91s.07,1.24.22,1.84c.15.6.38,1.13.7,1.61.32.48.74.86,1.26,1.14.52.29,1.15.43,1.89.43,1.01,0,1.8-.31,2.36-.92s.91-1.43,1.04-2.44h3.19c-.08.94-.3,1.78-.65,2.54-.35.76-.81,1.4-1.39,1.93-.57.53-1.25.94-2.02,1.22s-1.62.42-2.54.42c-1.15,0-2.18-.2-3.1-.6-.92-.4-1.69-.95-2.32-1.65-.63-.7-1.11-1.52-1.45-2.47-.34-.95-.5-1.96-.5-3.06s.17-2.16.5-3.12c.34-.96.82-1.8,1.45-2.51.63-.71,1.4-1.27,2.32-1.68.92-.41,1.95-.61,3.1-.61.83,0,1.61.12,2.34.36.73.24,1.39.58,1.97,1.04.58.46,1.06,1.02,1.44,1.69.38.67.62,1.44.71,2.31h-3.19c-.06-.38-.18-.72-.38-1.04Z"/>
        <path class="cls-21" d="M118.54,107.31l5.61,14.99h-3.42l-1.13-3.34h-5.61l-1.18,3.34h-3.32l5.67-14.99h3.38ZM118.73,116.51l-1.89-5.5h-.04l-1.95,5.5h3.88Z"/>
        <path class="cls-21" d="M122.35,110.08v-2.77h12.28v2.77h-4.49v12.22h-3.3v-12.22h-4.49Z"/>
        <path class="cls-21" d="M141.9,107.31l5.61,14.99h-3.42l-1.13-3.34h-5.61l-1.18,3.34h-3.32l5.67-14.99h3.38ZM142.09,116.51l-1.89-5.5h-.04l-1.95,5.5h3.89Z"/>
        <path class="cls-21" d="M152.1,107.31v12.22h7.31v2.77h-10.61v-14.99h3.3Z"/>
        <path class="cls-21" d="M157.31,107.31h3.7l3.51,5.92,3.49-5.92h3.67l-5.56,9.24v5.75h-3.3v-5.84l-5.5-9.16Z"/>
        <path class="cls-21" d="M175.45,118.61c.18.35.42.63.72.85.3.22.65.38,1.06.48s.83.16,1.26.16c.29,0,.61-.02.95-.07s.65-.14.95-.28c.29-.14.54-.33.73-.58.2-.24.29-.56.29-.93,0-.41-.13-.73-.39-.99s-.6-.46-1.02-.63-.9-.31-1.43-.44c-.53-.13-1.07-.27-1.62-.42-.56-.14-1.11-.31-1.64-.51-.53-.2-1.01-.47-1.43-.79-.42-.32-.76-.72-1.02-1.21-.26-.48-.39-1.07-.39-1.75,0-.77.17-1.44.49-2.01.33-.57.76-1.04,1.29-1.42.53-.38,1.13-.66,1.81-.84.67-.18,1.34-.27,2.02-.27.78,0,1.54.09,2.26.26.72.18,1.36.46,1.92.85.56.39,1,.89,1.33,1.5.33.61.49,1.35.49,2.22h-3.19c-.03-.45-.12-.82-.28-1.11-.16-.29-.38-.53-.64-.69s-.57-.29-.91-.36c-.34-.07-.72-.1-1.12-.1-.27,0-.53.03-.8.08-.27.06-.51.15-.72.29-.22.14-.39.31-.54.52-.14.21-.21.48-.21.8,0,.29.05.53.17.71.11.18.33.35.66.5.33.15.79.31,1.37.46.58.15,1.34.35,2.28.59.28.06.67.16,1.17.3.5.15.99.38,1.48.7.49.32.91.75,1.27,1.29.36.54.54,1.23.54,2.07,0,.69-.13,1.32-.4,1.91s-.66,1.1-1.19,1.52c-.52.43-1.18.76-1.95,1-.78.24-1.68.36-2.7.36-.83,0-1.63-.1-2.4-.3-.78-.2-1.46-.52-2.06-.96s-1.07-.99-1.42-1.66-.52-1.47-.5-2.39h3.19c0,.5.09.93.27,1.28Z"/>
        <path class="cls-21" d="M185.39,110.08v-2.77h12.29v2.77h-4.49v12.22h-3.3v-12.22h-4.49Z"/>
      </g>
      <g>
        <path class="cls-21" d="M58,72.62c.94,0,1.74.14,2.39.41s1.19.63,1.61,1.08c.41.45.71.96.9,1.53.19.57.28,1.17.28,1.79s-.09,1.19-.28,1.77c-.19.58-.49,1.1-.9,1.54-.41.45-.95.81-1.61,1.08s-1.46.41-2.39.41h-3.46v5.38h-3.3v-14.99h6.76ZM57.1,79.68c.38,0,.74-.03,1.09-.08.35-.06.66-.16.92-.33.27-.16.48-.39.64-.68.16-.29.24-.68.24-1.16s-.08-.86-.24-1.15-.38-.52-.64-.68c-.27-.16-.57-.27-.92-.33-.35-.06-.71-.08-1.09-.08h-2.56v4.49h2.56Z"/>
        <path class="cls-21" d="M65.1,77.06c.34-.96.82-1.8,1.45-2.51.63-.71,1.4-1.27,2.32-1.68.92-.41,1.95-.61,3.1-.61s2.2.2,3.11.61c.91.41,1.68.97,2.31,1.68.63.71,1.11,1.55,1.45,2.51.34.96.5,2,.5,3.12s-.17,2.11-.5,3.06c-.34.94-.82,1.77-1.45,2.47-.63.7-1.4,1.25-2.31,1.65-.91.4-1.95.6-3.11.6s-2.18-.2-3.1-.6c-.92-.4-1.69-.95-2.32-1.65-.63-.7-1.11-1.52-1.45-2.47-.34-.95-.5-1.96-.5-3.06s.17-2.16.5-3.12ZM68.11,82.02c.15.6.38,1.13.7,1.61.32.48.74.86,1.26,1.14.52.29,1.15.43,1.89.43s1.37-.14,1.89-.43c.52-.29.94-.67,1.26-1.14.32-.48.56-1.01.7-1.61.15-.59.22-1.21.22-1.84s-.07-1.29-.22-1.91c-.15-.62-.38-1.17-.7-1.65s-.74-.87-1.26-1.15c-.52-.29-1.15-.43-1.89-.43s-1.37.14-1.89.43c-.52.29-.94.67-1.26,1.15-.32.48-.55,1.03-.7,1.65-.15.62-.22,1.25-.22,1.91s.07,1.24.22,1.84Z"/>
        <path class="cls-21" d="M80.41,75.39v-2.77h12.28v2.77h-4.49v12.22h-3.3v-12.22h-4.49Z"/>
        <path class="cls-21" d="M105.63,72.62v2.77h-7.92v3.21h7.27v2.56h-7.27v3.67h8.09v2.77h-11.38v-14.99h11.21Z"/>
        <path class="cls-21" d="M111.3,72.62l6.26,10.06h.04v-10.06h3.09v14.99h-3.3l-6.24-10.04h-.04v10.04h-3.09v-14.99h3.28Z"/>
        <path class="cls-21" d="M122.41,75.39v-2.77h12.28v2.77h-4.49v12.22h-3.3v-12.22h-4.49Z"/>
        <path class="cls-21" d="M139.71,72.62v14.99h-3.3v-14.99h3.3Z"/>
        <path class="cls-21" d="M150.08,72.62l5.61,14.99h-3.42l-1.13-3.34h-5.61l-1.18,3.34h-3.32l5.67-14.99h3.38ZM150.27,81.82l-1.89-5.5h-.04l-1.95,5.5h3.88Z"/>
        <path class="cls-21" d="M153.89,75.39v-2.77h12.28v2.77h-4.49v12.22h-3.3v-12.22h-4.49Z"/>
        <path class="cls-21" d="M167.75,77.06c.34-.96.82-1.8,1.45-2.51.63-.71,1.4-1.27,2.32-1.68.92-.41,1.95-.61,3.1-.61s2.2.2,3.11.61c.91.41,1.68.97,2.31,1.68.63.71,1.11,1.55,1.45,2.51.34.96.5,2,.5,3.12s-.17,2.11-.5,3.06c-.34.94-.82,1.77-1.45,2.47-.63.7-1.4,1.25-2.31,1.65-.91.4-1.95.6-3.11.6s-2.18-.2-3.1-.6c-.92-.4-1.69-.95-2.32-1.65-.63-.7-1.11-1.52-1.45-2.47-.34-.95-.5-1.96-.5-3.06s.17-2.16.5-3.12ZM170.76,82.02c.15.6.38,1.13.7,1.61.32.48.74.86,1.26,1.14.52.29,1.15.43,1.89.43s1.37-.14,1.89-.43c.52-.29.94-.67,1.26-1.14.32-.48.56-1.01.7-1.61.15-.59.22-1.21.22-1.84s-.07-1.29-.22-1.91c-.15-.62-.38-1.17-.7-1.65-.32-.48-.74-.87-1.26-1.15-.52-.29-1.15-.43-1.89-.43s-1.37.14-1.89.43c-.52.29-.94.67-1.26,1.15s-.56,1.03-.7,1.65c-.15.62-.22,1.25-.22,1.91s.07,1.24.22,1.84Z"/>
        <path class="cls-21" d="M192.32,72.62c.67,0,1.28.11,1.82.33.54.22,1,.51,1.38.89s.68.82.88,1.31.3,1.03.3,1.61c0,.88-.19,1.65-.56,2.29s-.98,1.13-1.82,1.47v.04c.41.11.74.28,1.01.51s.48.5.65.82.29.66.37,1.04c.08.38.13.76.16,1.13.01.24.03.52.04.84.01.32.04.65.07.99s.09.65.17.96c.08.3.19.56.35.77h-3.3c-.18-.48-.29-1.04-.34-1.7-.04-.66-.11-1.29-.19-1.89-.11-.78-.35-1.36-.71-1.72-.36-.36-.96-.55-1.79-.55h-3.3v5.86h-3.3v-14.99h8.09ZM191.14,79.4c.76,0,1.32-.17,1.7-.5.38-.34.57-.88.57-1.64s-.19-1.26-.57-1.59c-.38-.33-.94-.49-1.7-.49h-3.61v4.22h3.61Z"/>
      </g>
      <g>
        <path class="cls-21" d="M124.34,37.93l3.51,10.31h.04l3.32-10.31h4.64v14.99h-3.09v-10.63h-.04l-3.68,10.63h-2.54l-3.67-10.52h-.04v10.52h-3.09v-14.99h4.64Z"/>
        <path class="cls-21" d="M146.22,37.93l5.61,14.99h-3.42l-1.13-3.34h-5.61l-1.18,3.34h-3.32l5.67-14.99h3.38ZM146.41,47.13l-1.89-5.5h-.04l-1.95,5.5h3.88Z"/>
        <path class="cls-21" d="M150.02,40.7v-2.77h12.28v2.77h-4.49v12.22h-3.3v-12.22h-4.49Z"/>
        <path class="cls-21" d="M172.12,37.93c.67,0,1.28.11,1.82.33.54.22,1,.51,1.38.89s.68.82.88,1.31.3,1.03.3,1.61c0,.88-.19,1.65-.56,2.29s-.98,1.13-1.82,1.47v.04c.41.11.74.28,1.01.51s.48.5.65.82.29.66.37,1.04c.08.38.13.76.16,1.13.01.24.03.52.04.84.01.32.04.65.07.99s.09.65.17.96c.08.3.19.56.35.77h-3.3c-.18-.48-.29-1.04-.34-1.7-.04-.66-.11-1.29-.19-1.89-.11-.78-.35-1.36-.71-1.72-.36-.36-.96-.55-1.79-.55h-3.3v5.86h-3.3v-14.99h8.09ZM170.94,44.71c.76,0,1.32-.17,1.7-.5.38-.34.57-.88.57-1.64s-.19-1.26-.57-1.59c-.38-.33-.94-.49-1.7-.49h-3.61v4.22h3.61Z"/>
        <path class="cls-21" d="M182.49,37.93v14.99h-3.3v-14.99h3.3Z"/>
        <path class="cls-21" d="M184.23,37.93h3.82l2.94,4.79,3.04-4.79h3.61l-4.81,7.16,5.23,7.83h-3.93l-3.28-5.19-3.34,5.19h-3.7l5.23-7.85-4.83-7.14Z"/>
      </g>
      <g>
        <path class="cls-21" d="M134.12,3.38v2.77h-7.92v3.21h7.27v2.56h-7.27v3.67h8.08v2.77h-11.38V3.38h11.21Z"/>
        <path class="cls-21" d="M139.79,3.38l6.26,10.06h.04V3.38h3.09v14.99h-3.3l-6.24-10.04h-.04v10.04h-3.09V3.38h3.28Z"/>
        <path class="cls-21" d="M150.9,6.15v-2.77h12.29v2.77h-4.49v12.22h-3.3V6.15h-4.49Z"/>
        <path class="cls-21" d="M168.21,3.38v14.99h-3.3V3.38h3.3Z"/>
        <path class="cls-21" d="M169.93,6.15v-2.77h12.29v2.77h-4.49v12.22h-3.3V6.15h-4.49Z"/>
        <path class="cls-21" d="M182.32,3.38h3.7l3.51,5.92,3.49-5.92h3.67l-5.56,9.24v5.75h-3.3v-5.84l-5.5-9.16Z"/>
      </g>
    </g>
  </g>
</svg>