<?xml version="1.0" encoding="UTF-8"?>
<svg id="Layer_2" data-name="Layer 2" xmlns="http://www.w3.org/2000/svg" viewBox="0 0 47.99 96.75">
  <defs>
    <style>
      .cls-1, .cls-2, .cls-3, .cls-4 {
        stroke-width: 0px;
      }

      .cls-2 {
        fill: #231f20;
      }

      .cls-3 {
        fill: #221f1f;
      }

      .cls-4 {
        fill: #fff;
      }
    </style>
  </defs>
  <g id="Layer_4" data-name="Layer 4">
    <g>
      <g>
        <g>
          <polygon class="cls-4" points=".5 41.51 .5 14.32 23.5 .92 23.5 54.84 .5 41.51"/>
          <path class="cls-3" d="M23,1.79v52.18L1,41.22V14.61L23,1.79M24,.05L0,14.04v27.77l24,13.9V.05h0Z"/>
        </g>
        <g>
          <polygon class="cls-3" points="24.5 .83 47.49 14.4 47.49 41.51 24.5 54.93 24.5 .83"/>
          <path class="cls-2" d="M25,1.7l21.99,12.98v26.54s-21.99,12.83-21.99,12.83V1.7M24.08,0l-.08.05v55.66l.08.05,23.91-13.95V14.11S24.08,0,24.08,0h0Z"/>
        </g>
      </g>
      <g>
        <path class="cls-1" d="M8.23,83.84c-.17-.33-.49-.5-.94-.5-.25,0-.46.07-.62.2-.16.14-.29.35-.39.66-.09.3-.16.7-.2,1.19-.04.49-.06,1.09-.06,1.8,0,.76.03,1.37.08,1.83.05.47.13.83.24,1.08.11.26.24.43.41.52.16.09.35.13.57.13.18,0,.34-.03.5-.09s.29-.18.4-.36c.11-.18.2-.44.27-.77.06-.33.1-.77.1-1.31h2.02c0,.54-.04,1.05-.13,1.54s-.24.91-.47,1.27c-.23.36-.55.65-.97.85-.42.21-.95.31-1.62.31-.76,0-1.36-.12-1.81-.36-.45-.24-.79-.59-1.03-1.05-.24-.46-.39-1-.46-1.64-.07-.63-.1-1.33-.1-2.1s.03-1.45.1-2.09c.07-.64.22-1.19.46-1.65.24-.46.58-.81,1.03-1.07.45-.26,1.05-.39,1.81-.39s1.29.12,1.7.35c.42.23.73.53.93.89.21.36.33.75.39,1.16.05.42.08.8.08,1.17h-2.02c0-.73-.09-1.26-.26-1.59Z"/>
        <path class="cls-1" d="M13.76,82.05v3.82h2.35v-3.82h2.02v10h-2.02v-4.44h-2.35v4.44h-2.02v-10h2.02Z"/>
        <path class="cls-1" d="M19.42,84.96c.07-.64.22-1.19.46-1.65.24-.46.58-.81,1.03-1.07.45-.26,1.05-.39,1.81-.39s1.36.13,1.81.39c.45.26.79.61,1.03,1.07.24.46.39,1.01.46,1.65s.1,1.34.1,2.09-.04,1.47-.1,2.1c-.07.63-.22,1.18-.46,1.64-.24.46-.58.81-1.03,1.05-.45.24-1.05.36-1.81.36s-1.36-.12-1.81-.36c-.45-.24-.79-.59-1.03-1.05-.24-.46-.39-1-.46-1.64-.07-.63-.1-1.33-.1-2.1s.03-1.45.1-2.09ZM21.38,88.76c.03.47.1.85.2,1.15s.24.51.42.64c.18.14.42.2.72.2s.54-.07.72-.2c.18-.13.32-.35.42-.64.1-.29.16-.68.2-1.15.03-.47.05-1.04.05-1.71s-.02-1.24-.05-1.71-.1-.85-.2-1.15c-.1-.3-.24-.52-.42-.65-.18-.14-.42-.2-.72-.2s-.54.07-.72.2-.32.35-.42.65c-.1.3-.16.68-.2,1.15-.03.47-.05,1.04-.05,1.71s.02,1.24.05,1.71Z"/>
        <path class="cls-1" d="M27.41,82.05h2.02v10h-2.02v-10Z"/>
        <path class="cls-1" d="M34.93,83.84c-.17-.33-.49-.5-.94-.5-.25,0-.46.07-.62.2-.16.14-.29.35-.39.66-.09.3-.16.7-.2,1.19-.04.49-.06,1.09-.06,1.8,0,.76.03,1.37.08,1.83.05.47.13.83.24,1.08.11.26.24.43.41.52.16.09.35.13.57.13.18,0,.34-.03.5-.09s.29-.18.4-.36c.11-.18.2-.44.27-.77.06-.33.1-.77.1-1.31h2.02c0,.54-.04,1.05-.13,1.54s-.24.91-.47,1.27c-.23.36-.55.65-.97.85-.42.21-.95.31-1.62.31-.76,0-1.36-.12-1.81-.36-.45-.24-.79-.59-1.03-1.05-.24-.46-.39-1-.46-1.64-.07-.63-.1-1.33-.1-2.1s.03-1.45.1-2.09c.07-.64.22-1.19.46-1.65.24-.46.58-.81,1.03-1.07.45-.26,1.05-.39,1.81-.39s1.29.12,1.7.35c.42.23.73.53.93.89.21.36.33.75.39,1.16.05.42.08.8.08,1.17h-2.02c0-.73-.09-1.26-.26-1.59Z"/>
        <path class="cls-1" d="M44.02,83.7h-3.57v2.35h3.36v1.65h-3.36v2.69h3.71v1.65h-5.73v-10h5.59v1.65Z"/>
      </g>
    </g>
  </g>
</svg>