<?xml version="1.0" encoding="UTF-8"?>
<svg id="Layer_2" data-name="Layer 2" xmlns="http://www.w3.org/2000/svg" viewBox="0 0 418.93 252.14">
  <defs>
    <style>
      .cls-1, .cls-2, .cls-3, .cls-4, .cls-5 {
        stroke-width: 0px;
      }

      .cls-1, .cls-6 {
        fill: none;
      }

      .cls-7, .cls-8, .cls-5 {
        fill: #fff;
      }

      .cls-7, .cls-8, .cls-6 {
        stroke: #231f20;
        stroke-miterlimit: 10;
      }

      .cls-7, .cls-6 {
        stroke-width: .5px;
      }

      .cls-3 {
        fill: #231f20;
      }

      .cls-4 {
        fill: #939598;
      }
    </style>
  </defs>
  <g id="Layer_1-2" data-name="Layer 1">
    <g>
      <g>
        <g>
          <g>
            <rect class="cls-2" x="17.68" y=".25" width="153.65" height="251.55"/>
            <path class="cls-4" d="M171.08.5v251.05H17.93V.5h153.15M171.58,0H17.43v252.05h154.15V0h0Z"/>
          </g>
          <rect class="cls-5" x="17.93" y=".5" width="76.57" height="251.05"/>
        </g>
        <g>
          <polyline class="cls-6" points="54.45 251.49 17.93 251.49 17.93 .55 75.36 .55"/>
          <polyline class="cls-6" points="134.57 251.49 171.08 251.55 171.08 .55 113.65 .55"/>
        </g>
        <g>
          <g>
            <g>
              <path class="cls-5" d="M172.56,72.12c-9.75,0-17.68-7.93-17.68-17.68s7.93-17.68,17.68-17.68,17.68,7.93,17.68,17.68-7.93,17.68-17.68,17.68Z"/>
              <path class="cls-3" d="M172.56,37c9.61,0,17.43,7.82,17.43,17.43,0,9.61-7.82,17.43-17.43,17.43s-17.43-7.82-17.43-17.43,7.82-17.43,17.43-17.43h0M172.56,36.5c-9.9,0-17.93,8.03-17.93,17.93s8.03,17.93,17.93,17.93,17.93-8.03,17.93-17.93c0-9.9-8.03-17.93-17.93-17.93h0Z"/>
            </g>
            <path class="cls-2" d="M172.9,44.89c.72,0,1.39.07,2.01.22s1.15.39,1.59.74.79.8,1.03,1.38c.25.57.37,1.28.37,2.12,0,.95-.22,1.77-.66,2.45-.44.68-1.11,1.15-1.99,1.39v.05c.98.13,1.76.55,2.34,1.26.57.71.86,1.65.86,2.83,0,.69-.09,1.35-.27,1.97s-.49,1.17-.92,1.64c-.44.47-1,.84-1.7,1.12s-1.56.42-2.6.42h-5.98v-17.58h5.93ZM171.52,52.1c.98,0,1.7-.18,2.15-.53.45-.35.68-.95.68-1.79s-.21-1.43-.62-1.77c-.41-.34-1.06-.52-1.95-.52h-1.28v4.6h1.01ZM171.89,59.86c.85,0,1.54-.19,2.07-.57.52-.38.79-1.08.79-2.09,0-.51-.07-.93-.21-1.27-.14-.34-.33-.61-.57-.81-.24-.21-.52-.35-.85-.43-.33-.08-.69-.12-1.08-.12h-1.53v5.29h1.38Z"/>
          </g>
          <g>
            <g>
              <path class="cls-5" d="M172.56,108.13c-9.75,0-17.68-7.93-17.68-17.68s7.93-17.68,17.68-17.68,17.68,7.93,17.68,17.68-7.93,17.68-17.68,17.68Z"/>
              <path class="cls-3" d="M172.56,73.01c9.61,0,17.43,7.82,17.43,17.43,0,9.61-7.82,17.43-17.43,17.43s-17.43-7.82-17.43-17.43,7.82-17.43,17.43-17.43M172.56,72.51c-9.9,0-17.93,8.03-17.93,17.93s8.03,17.93,17.93,17.93,17.93-8.03,17.93-17.93c0-9.9-8.03-17.93-17.93-17.93h0Z"/>
            </g>
            <path class="cls-2" d="M170.3,93.5c0,.41.03.78.1,1.12.07.34.19.62.37.85.18.23.42.41.73.54.3.13.69.2,1.15.2.54,0,1.03-.18,1.47-.53.43-.35.65-.9.65-1.64,0-.39-.05-.73-.16-1.02s-.28-.55-.53-.78c-.25-.23-.57-.44-.97-.63-.4-.19-.9-.38-1.49-.58-.79-.26-1.47-.55-2.04-.86-.57-.31-1.05-.68-1.44-1.1s-.67-.9-.85-1.45-.27-1.19-.27-1.91c0-1.74.48-3.04,1.45-3.89.97-.85,2.3-1.28,3.99-1.28.79,0,1.51.09,2.18.26.66.17,1.24.45,1.72.84.48.39.86.88,1.13,1.48.27.6.41,1.32.41,2.15v.49h-3.4c0-.84-.15-1.48-.44-1.93s-.79-.68-1.48-.68c-.39,0-.72.06-.98.17-.26.11-.47.27-.63.46-.16.19-.26.41-.32.65s-.09.5-.09.76c0,.54.11,1,.34,1.37.23.37.72.71,1.48,1.02l2.73,1.18c.67.3,1.22.6,1.65.92.43.32.77.66,1.02,1.03.25.37.43.78.53,1.22s.15.94.15,1.48c0,1.85-.54,3.21-1.61,4.05s-2.57,1.27-4.49,1.27-3.44-.44-4.3-1.31-1.29-2.12-1.29-3.74v-.71h3.55v.52Z"/>
          </g>
          <g>
            <g>
              <path class="cls-5" d="M172.56,36.11c-9.75,0-17.68-7.93-17.68-17.68S162.81.74,172.56.74s17.68,7.93,17.68,17.68-7.93,17.68-17.68,17.68Z"/>
              <path class="cls-3" d="M172.56.99c9.61,0,17.43,7.82,17.43,17.43,0,9.61-7.82,17.43-17.43,17.43s-17.43-7.82-17.43-17.43S162.95.99,172.56.99M172.56.49c-9.9,0-17.93,8.03-17.93,17.93s8.03,17.93,17.93,17.93,17.93-8.03,17.93-17.93c0-9.9-8.03-17.93-17.93-17.93h0Z"/>
            </g>
            <path class="cls-2" d="M170.02,8.89l2.51,12.41h.05l2.54-12.41h5.24v17.58h-3.25v-14.04h-.05l-3.13,14.04h-2.76l-3.13-14.04h-.05v14.04h-3.25V8.89h5.27Z"/>
          </g>
        </g>
        <g>
          <g>
            <path class="cls-5" d="M17.93,36.11C8.18,36.11.25,28.18.25,18.43S8.18.74,17.93.74s17.68,7.93,17.68,17.68-7.93,17.68-17.68,17.68Z"/>
            <path class="cls-3" d="M17.93.99c9.61,0,17.43,7.82,17.43,17.43s-7.82,17.43-17.43,17.43S.5,28.04.5,18.42,8.32.99,17.93.99M17.93.49C8.03.49,0,8.52,0,18.42s8.03,17.93,17.93,17.93,17.93-8.03,17.93-17.93S27.84.49,17.93.49h0Z"/>
          </g>
          <path class="cls-2" d="M23.06,11.79h-6.28v4.14h5.91v2.91h-5.91v4.73h6.53v2.91h-10.07V8.89h9.83v2.91Z"/>
        </g>
        <g>
          <g>
            <path class="cls-5" d="M17.93,72.12c-9.75,0-17.68-7.93-17.68-17.68s7.93-17.68,17.68-17.68,17.68,7.93,17.68,17.68-7.93,17.68-17.68,17.68Z"/>
            <path class="cls-3" d="M17.93,37c9.61,0,17.43,7.82,17.43,17.43s-7.82,17.43-17.43,17.43S.5,64.05.5,54.43s7.82-17.43,17.43-17.43h0M17.93,36.5C8.03,36.5,0,44.53,0,54.43s8.03,17.93,17.93,17.93,17.93-8.03,17.93-17.93-8.03-17.93-17.93-17.93h0Z"/>
          </g>
          <path class="cls-2" d="M11.72,56.83v-3.05h4.7v-4.7h3.05v4.7h4.7v3.05h-4.7v4.7h-3.05v-4.7h-4.7Z"/>
        </g>
        <g>
          <g>
            <path class="cls-5" d="M17.93,108.13c-9.75,0-17.68-7.93-17.68-17.68s7.93-17.68,17.68-17.68,17.68,7.93,17.68,17.68-7.93,17.68-17.68,17.68Z"/>
            <path class="cls-3" d="M17.93,73.01c9.61,0,17.43,7.82,17.43,17.43s-7.82,17.43-17.43,17.43S.5,100.06.5,90.44s7.82-17.43,17.43-17.43M17.93,72.51c-9.9,0-17.93,8.03-17.93,17.93s8.03,17.93,17.93,17.93,17.93-8.03,17.93-17.93-8.03-17.93-17.93-17.93h0Z"/>
          </g>
          <path class="cls-2" d="M21.45,92.06h-6.94v-2.91h6.94v2.91Z"/>
        </g>
        <path class="cls-1" d="M94.57,181.36c.17-.52.29-1.19.34-2.02.06-.83.09-1.83.09-3.02s-.03-2.18-.09-3c-.06-.82-.17-1.49-.34-2.02-.02-.06-.05-.09-.07-.15v10.35c.02-.05.05-.09.07-.15Z"/>
        <path class="cls-1" d="M92.57,169.8c-.53,0-.95.12-1.27.36-.32.24-.57.62-.74,1.15s-.29,1.2-.34,2.02c-.06.82-.09,1.82-.09,3s.03,2.19.09,3.02c.06.83.17,1.5.34,2.02.17.52.42.9.74,1.13.32.24.74.36,1.27.36s.95-.12,1.27-.36c.29-.21.5-.55.67-.99v-10.35c-.17-.44-.39-.79-.67-1-.32-.24-.74-.36-1.27-.36Z"/>
        <g>
          <g>
            <path class="cls-2" d="M67.52,186.52c-.11.58-.27,1.03-.47,1.35-.2.32-.43.53-.7.64-.27.11-.56.16-.87.16-.38,0-.71-.08-1-.23s-.53-.46-.71-.91c-.19-.45-.33-1.09-.42-1.91-.09-.82-.14-1.9-.14-3.23,0-1.25.03-2.3.1-3.16.06-.86.18-1.56.34-2.09.16-.53.39-.92.68-1.16.29-.24.65-.36,1.1-.36.8,0,1.36.29,1.66.88.3.58.46,1.51.46,2.79h3.55c0-.64-.05-1.33-.14-2.06s-.32-1.41-.68-2.04c-.36-.63-.91-1.15-1.64-1.56s-1.73-.62-2.99-.62c-1.33,0-2.39.23-3.18.68-.79.45-1.39,1.08-1.81,1.88-.42.8-.69,1.77-.81,2.89s-.18,2.35-.18,3.68.06,2.58.18,3.69c.12,1.12.39,2.08.81,2.88.42.8,1.02,1.42,1.81,1.85.79.43,1.85.64,3.18.64,1.17,0,2.11-.18,2.84-.54.73-.36,1.3-.86,1.7-1.5.4-.64.68-1.39.82-2.24.15-.85.22-1.76.22-2.71h-3.55c0,.95-.06,1.72-.17,2.3Z"/>
            <polygon class="cls-2" points="80.94 180.08 76.81 180.08 76.81 173.36 73.26 173.36 73.26 190.94 76.81 190.94 76.81 183.13 80.94 183.13 80.94 190.94 84.49 190.94 84.49 173.36 80.94 173.36 80.94 180.08"/>
            <path class="cls-2" d="M93.83,188.32c-.32.24-.74.36-1.27.36s-.95-.12-1.27-.36c-.32-.24-.57-.62-.74-1.13-.17-.52-.29-1.19-.34-2.02-.06-.83-.09-1.83-.09-3.02s.03-2.18.09-3c.06-.82.17-1.49.34-2.02s.42-.91.74-1.15c.32-.24.74-.36,1.27-.36s.95.12,1.27.36c.29.21.5.56.67,1v-3.74c-.57-.14-1.2-.22-1.94-.22-1.33,0-2.39.23-3.18.68-.79.45-1.39,1.08-1.81,1.88-.42.8-.69,1.77-.81,2.89s-.18,2.35-.18,3.68.06,2.58.18,3.69c.12,1.12.39,2.08.81,2.88.42.8,1.02,1.42,1.81,1.85.79.43,1.85.64,3.18.64.74,0,1.37-.08,1.94-.21v-3.67c-.17.43-.39.78-.67.99Z"/>
          </g>
          <g>
            <path class="cls-5" d="M97.55,175.57c-.42-.8-1.02-1.43-1.81-1.88-.35-.2-.78-.34-1.24-.45v3.74c.02.05.05.09.07.15.17.53.29,1.2.34,2.02.06.82.09,1.82.09,3s-.03,2.19-.09,3.02c-.06.83-.17,1.5-.34,2.02-.02.06-.05.09-.07.15v3.67c.46-.11.89-.24,1.24-.43.79-.43,1.39-1.04,1.81-1.85.42-.8.69-1.76.81-2.88.12-1.12.18-2.35.18-3.69s-.06-2.56-.18-3.68c-.12-1.12-.39-2.09-.81-2.89Z"/>
            <rect class="cls-5" x="100.82" y="173.36" width="3.55" height="17.58"/>
            <path class="cls-5" d="M114.48,186.52c-.11.58-.27,1.03-.47,1.35-.2.32-.43.53-.7.64-.27.11-.56.16-.87.16-.38,0-.71-.08-1-.23s-.53-.46-.71-.91c-.19-.45-.33-1.09-.42-1.91-.09-.82-.14-1.9-.14-3.23,0-1.25.03-2.3.1-3.16.06-.86.18-1.56.34-2.09.16-.53.39-.92.68-1.16.29-.24.65-.36,1.1-.36.8,0,1.36.29,1.66.88.3.58.46,1.51.46,2.79h3.55c0-.64-.05-1.33-.14-2.06s-.32-1.41-.68-2.04c-.36-.63-.91-1.15-1.64-1.56s-1.73-.62-2.99-.62c-1.33,0-2.39.23-3.18.68-.79.45-1.39,1.08-1.81,1.88-.42.8-.69,1.77-.81,2.89s-.18,2.35-.18,3.68.06,2.58.18,3.69c.12,1.12.39,2.08.81,2.88.42.8,1.02,1.42,1.81,1.85.79.43,1.85.64,3.18.64,1.17,0,2.11-.18,2.84-.54.73-.36,1.3-.86,1.7-1.5.4-.64.68-1.39.82-2.24.15-.85.22-1.76.22-2.71h-3.55c0,.95-.06,1.72-.17,2.3Z"/>
            <polygon class="cls-5" points="123.76 188.03 123.76 183.31 129.67 183.31 129.67 180.4 123.76 180.4 123.76 176.26 130.04 176.26 130.04 173.36 120.22 173.36 120.22 190.94 130.29 190.94 130.29 188.03 123.76 188.03"/>
          </g>
        </g>
        <g>
          <rect class="cls-8" x="65.21" y="31.54" width="60.08" height="47.85" rx="1.86" ry="1.86"/>
          <g>
            <path class="cls-2" d="M81.57,40.63h-4.47v-2.15h7.5v1.99l-4.87,8.88h4.94v2.15h-7.9v-1.92l4.8-8.96Z"/>
            <path class="cls-2" d="M93.29,40.63h-4.65v3.06h4.38v2.15h-4.38v3.5h4.83v2.15h-7.46v-13.02h7.28v2.15Z"/>
            <path class="cls-2" d="M99.64,38.47c1.09,0,1.95.28,2.55.83.61.55.91,1.4.91,2.53,0,.88-.18,1.59-.53,2.14-.35.55-.9.91-1.64,1.07v.04c.66.1,1.14.31,1.44.64.3.33.49.86.57,1.59.02.24.04.51.05.79.01.29.02.6.04.96.02.69.06,1.22.11,1.59.07.36.23.61.47.75v.11h-2.85c-.13-.18-.22-.39-.26-.63-.04-.24-.06-.48-.07-.74l-.07-2.5c-.02-.51-.15-.91-.38-1.2-.23-.29-.62-.44-1.17-.44h-1.4v5.51h-2.63v-13.02h4.85ZM98.51,44.17c.63,0,1.12-.15,1.46-.45.34-.3.51-.8.51-1.5,0-1.2-.61-1.81-1.82-1.81h-1.24v3.76h1.09Z"/>
            <path class="cls-2" d="M104.8,42.26c.09-.83.29-1.55.6-2.14.31-.6.76-1.06,1.34-1.4s1.37-.5,2.35-.5,1.77.17,2.35.5c.58.33,1.03.8,1.34,1.4.31.6.51,1.31.6,2.14.09.83.14,1.74.14,2.73s-.05,1.91-.14,2.74c-.09.83-.29,1.54-.6,2.13s-.76,1.05-1.34,1.37c-.58.32-1.37.47-2.35.47s-1.77-.16-2.35-.47c-.58-.32-1.03-.77-1.34-1.37s-.51-1.31-.6-2.13c-.09-.83-.14-1.74-.14-2.74s.05-1.89.14-2.73ZM107.35,47.22c.04.61.13,1.11.26,1.5.13.38.31.66.55.84s.55.26.94.26.7-.09.94-.26c.24-.18.42-.46.55-.84.13-.38.21-.88.26-1.5.04-.61.06-1.36.06-2.23s-.02-1.62-.06-2.23-.13-1.11-.26-1.5c-.13-.39-.31-.67-.55-.85-.24-.18-.55-.26-.94-.26s-.7.09-.94.26-.42.46-.55.85c-.13.39-.21.89-.26,1.5s-.06,1.35-.06,2.23.02,1.62.06,2.23Z"/>
            <path class="cls-2" d="M77.96,58.87h-4.65v3.06h4.38v2.15h-4.38v3.5h4.83v2.15h-7.46v-13.02h7.28v2.15Z"/>
            <path class="cls-2" d="M85.66,65.63h.04v-8.92h2.41v13.02h-2.99l-3.21-9.12h-.04v9.12h-2.41v-13.02h3.03l3.17,8.92Z"/>
            <path class="cls-2" d="M97.55,58.87h-2.85v10.87h-2.63v-10.87h-2.85v-2.15h8.32v2.15Z"/>
            <path class="cls-2" d="M98.81,56.71h2.63v13.02h-2.63v-13.02Z"/>
            <path class="cls-2" d="M111.01,58.87h-2.85v10.87h-2.63v-10.87h-2.85v-2.15h8.32v2.15Z"/>
            <path class="cls-2" d="M115.96,61.75h.04l1.82-5.03h2.85l-3.37,7.9v5.13h-2.63v-5.13l-3.37-7.9h2.96l1.71,5.03Z"/>
          </g>
        </g>
        <g>
          <g>
            <circle class="cls-3" cx="50.37" cy="126.05" r="17.93"/>
            <circle class="cls-5" cx="50.37" cy="126.05" r="5.92"/>
          </g>
          <g>
            <circle class="cls-5" cx="140.94" cy="126.05" r="17.93"/>
            <circle class="cls-3" cx="140.94" cy="126.05" r="5.92"/>
          </g>
        </g>
        <g>
          <line class="cls-6" x1="207.19" y1="18.42" x2="207.19" y2="247.56"/>
          <g>
            <polygon class="cls-5" points="204.71 251.3 207.2 247.11 209.7 251.3 204.71 251.3"/>
            <path class="cls-3" d="M204.27,251.55l2.93-4.92,2.93,4.92h-5.87ZM207.2,247.6l-2.05,3.45h4.11l-2.05-3.45Z"/>
          </g>
        </g>
        <line class="cls-6" x1="193.73" y1="54.43" x2="207.19" y2="54.43"/>
        <line class="cls-6" x1="193.73" y1="18.42" x2="207.19" y2="18.42"/>
        <line class="cls-6" x1="193.73" y1="90.44" x2="207.19" y2="90.44"/>
        <circle class="cls-7" cx="207.19" cy="18.42" r="3.85"/>
        <circle class="cls-7" cx="207.19" cy="54.43" r="3.85"/>
        <circle class="cls-7" cx="207.19" cy="90.44" r="3.85"/>
        <circle class="cls-7" cx="207.19" cy="126.45" r="3.85"/>
        <circle class="cls-7" cx="207.19" cy="162.46" r="3.85"/>
        <circle class="cls-7" cx="207.19" cy="198.47" r="3.85"/>
        <circle class="cls-7" cx="207.19" cy="234.48" r="3.85"/>
      </g>
      <g>
        <path class="cls-2" d="M233.44,242.04l-2.54-10.21h-.04l-2.5,10.21h-3.34l-3.97-14.99h3.3l2.37,10.21h.04l2.6-10.21h3.09l2.56,10.33h.04l2.46-10.33h3.23l-4.03,14.99h-3.28Z"/>
        <path class="cls-2" d="M249.23,227.04l5.61,14.99h-3.42l-1.13-3.34h-5.61l-1.18,3.34h-3.32l5.67-14.99h3.38ZM249.42,236.24l-1.89-5.5h-.04l-1.95,5.5h3.89Z"/>
        <path class="cls-2" d="M252.97,227.04h3.7l3.51,5.92,3.49-5.92h3.67l-5.57,9.24v5.75h-3.3v-5.84l-5.5-9.16Z"/>
      </g>
      <g>
        <path class="cls-2" d="M221.26,194.12v-2.77h12.28v2.77h-4.49v12.22h-3.3v-12.22h-4.49Z"/>
        <path class="cls-2" d="M243.35,191.35c.67,0,1.28.11,1.82.33s1,.51,1.39.89.68.82.88,1.31.3,1.03.3,1.61c0,.88-.19,1.64-.56,2.29-.37.64-.98,1.13-1.82,1.47v.04c.41.11.74.28,1.01.51.27.23.48.5.65.82.17.32.29.66.37,1.04s.13.76.16,1.13c.01.24.03.52.04.84.01.32.04.65.07.99s.09.65.17.96c.08.3.19.56.35.77h-3.3c-.18-.48-.29-1.04-.34-1.7-.04-.66-.11-1.29-.19-1.89-.11-.78-.35-1.36-.71-1.72-.36-.36-.96-.55-1.79-.55h-3.3v5.86h-3.3v-14.99h8.08ZM242.18,198.14c.76,0,1.32-.17,1.7-.5s.57-.88.57-1.64-.19-1.26-.57-1.59c-.38-.33-.94-.49-1.7-.49h-3.61v4.22h3.61Z"/>
        <path class="cls-2" d="M257.91,191.35l5.61,14.99h-3.42l-1.13-3.34h-5.61l-1.18,3.34h-3.32l5.67-14.99h3.38ZM258.09,200.55l-1.89-5.5h-.04l-1.95,5.5h3.89Z"/>
        <path class="cls-2" d="M268.09,191.35l6.26,10.06h.04v-10.06h3.09v14.99h-3.3l-6.24-10.04h-.04v10.04h-3.09v-14.99h3.28Z"/>
        <path class="cls-2" d="M282.9,202.65c.18.35.42.63.72.85.3.22.65.38,1.06.48.41.11.83.16,1.26.16.29,0,.61-.02.95-.07s.65-.14.95-.28.54-.33.73-.58c.2-.24.29-.56.29-.93,0-.41-.13-.73-.39-.99-.26-.25-.6-.46-1.02-.63s-.9-.32-1.43-.44-1.07-.27-1.62-.42c-.56-.14-1.11-.31-1.64-.51-.53-.2-1.01-.46-1.43-.79s-.76-.72-1.02-1.21c-.26-.48-.39-1.07-.39-1.75,0-.77.17-1.44.49-2.01.33-.57.76-1.04,1.29-1.42.53-.38,1.13-.66,1.81-.84.67-.18,1.34-.27,2.02-.27.78,0,1.54.09,2.26.26.72.17,1.36.46,1.92.85.56.39,1,.89,1.33,1.5.33.61.49,1.35.49,2.22h-3.19c-.03-.45-.12-.82-.28-1.11s-.38-.53-.64-.69-.57-.29-.91-.36c-.34-.07-.72-.11-1.12-.11-.27,0-.53.03-.8.08-.27.06-.51.15-.72.29-.22.14-.4.32-.54.53-.14.21-.21.48-.21.8,0,.29.06.53.17.71.11.18.33.35.66.5.33.15.78.31,1.37.46.58.15,1.34.35,2.28.59.28.06.67.16,1.17.3.5.15.99.38,1.48.7.49.32.91.75,1.27,1.29.36.54.54,1.23.54,2.07,0,.69-.13,1.32-.4,1.91-.27.59-.66,1.1-1.19,1.52-.52.43-1.18.76-1.95,1-.78.24-1.68.36-2.7.36-.83,0-1.63-.1-2.4-.3-.78-.2-1.46-.52-2.06-.96-.6-.43-1.07-.99-1.42-1.66s-.52-1.47-.5-2.39h3.19c0,.5.09.93.27,1.28Z"/>
        <path class="cls-2" d="M304.55,191.35v2.77h-7.25v3.46h6.28v2.56h-6.28v6.19h-3.3v-14.99h10.54Z"/>
        <path class="cls-2" d="M306.31,195.79c.34-.96.82-1.79,1.45-2.51s1.4-1.27,2.32-1.68c.92-.41,1.95-.61,3.1-.61s2.2.2,3.11.61c.91.41,1.68.97,2.31,1.68s1.11,1.55,1.45,2.51c.34.96.5,2,.5,3.12s-.17,2.11-.5,3.06c-.34.94-.82,1.77-1.45,2.47-.63.7-1.4,1.25-2.31,1.65-.91.4-1.95.6-3.11.6s-2.18-.2-3.1-.6c-.92-.4-1.69-.95-2.32-1.65-.63-.7-1.11-1.52-1.45-2.47-.34-.95-.5-1.96-.5-3.06s.17-2.16.5-3.12ZM309.32,200.75c.15.6.38,1.13.7,1.61.32.48.74.86,1.26,1.14.52.29,1.15.43,1.89.43s1.37-.14,1.89-.43c.52-.29.94-.67,1.26-1.14.32-.48.56-1.01.7-1.61.15-.59.22-1.21.22-1.84s-.07-1.29-.22-1.91c-.15-.62-.38-1.17-.7-1.65-.32-.48-.74-.87-1.26-1.16-.52-.29-1.15-.43-1.89-.43s-1.37.14-1.89.43c-.52.29-.94.67-1.26,1.16-.32.48-.56,1.03-.7,1.65-.15.62-.22,1.25-.22,1.91s.07,1.24.22,1.84Z"/>
        <path class="cls-2" d="M330.88,191.35c.67,0,1.28.11,1.82.33s1,.51,1.39.89.68.82.88,1.31.3,1.03.3,1.61c0,.88-.19,1.64-.56,2.29-.37.64-.98,1.13-1.82,1.47v.04c.41.11.74.28,1.01.51.27.23.48.5.65.82.17.32.29.66.37,1.04s.13.76.16,1.13c.01.24.03.52.04.84.01.32.04.65.07.99s.09.65.17.96c.08.3.19.56.35.77h-3.3c-.18-.48-.29-1.04-.34-1.7-.04-.66-.11-1.29-.19-1.89-.11-.78-.35-1.36-.71-1.72-.36-.36-.96-.55-1.79-.55h-3.3v5.86h-3.3v-14.99h8.08ZM329.7,198.14c.76,0,1.32-.17,1.7-.5s.57-.88.57-1.64-.19-1.26-.57-1.59c-.38-.33-.94-.49-1.7-.49h-3.61v4.22h3.61Z"/>
        <path class="cls-2" d="M342.6,191.35l3.51,10.31h.04l3.32-10.31h4.64v14.99h-3.09v-10.63h-.04l-3.67,10.63h-2.54l-3.67-10.52h-.04v10.52h-3.09v-14.99h4.64Z"/>
        <path class="cls-2" d="M364.48,191.35l5.61,14.99h-3.42l-1.13-3.34h-5.61l-1.18,3.34h-3.32l5.67-14.99h3.38ZM364.67,200.55l-1.89-5.5h-.04l-1.95,5.5h3.89Z"/>
        <path class="cls-2" d="M368.28,194.12v-2.77h12.28v2.77h-4.49v12.22h-3.3v-12.22h-4.49Z"/>
        <path class="cls-2" d="M385.58,191.35v14.99h-3.3v-14.99h3.3Z"/>
        <path class="cls-2" d="M388.33,195.79c.34-.96.82-1.79,1.45-2.51s1.4-1.27,2.32-1.68c.92-.41,1.95-.61,3.1-.61s2.2.2,3.11.61c.91.41,1.68.97,2.31,1.68s1.11,1.55,1.45,2.51c.34.96.5,2,.5,3.12s-.17,2.11-.5,3.06c-.34.94-.82,1.77-1.45,2.47-.63.7-1.4,1.25-2.31,1.65-.91.4-1.95.6-3.11.6s-2.18-.2-3.1-.6c-.92-.4-1.69-.95-2.32-1.65-.63-.7-1.11-1.52-1.45-2.47-.34-.95-.5-1.96-.5-3.06s.17-2.16.5-3.12ZM391.35,200.75c.15.6.38,1.13.7,1.61.32.48.74.86,1.26,1.14.52.29,1.15.43,1.89.43s1.37-.14,1.89-.43c.52-.29.94-.67,1.26-1.14.32-.48.56-1.01.7-1.61.15-.59.22-1.21.22-1.84s-.07-1.29-.22-1.91c-.15-.62-.38-1.17-.7-1.65-.32-.48-.74-.87-1.26-1.16-.52-.29-1.15-.43-1.89-.43s-1.37.14-1.89.43c-.52.29-.94.67-1.26,1.16-.32.48-.56,1.03-.7,1.65-.15.62-.22,1.25-.22,1.91s.07,1.24.22,1.84Z"/>
        <path class="cls-2" d="M408.1,191.35l6.26,10.06h.04v-10.06h3.09v14.99h-3.3l-6.24-10.04h-.04v10.04h-3.09v-14.99h3.28Z"/>
      </g>
      <g>
        <path class="cls-2" d="M224.96,166.96c.18.35.42.63.72.85.3.22.65.38,1.06.48s.83.16,1.26.16c.29,0,.61-.02.95-.07s.65-.14.95-.28c.29-.14.54-.33.73-.58.2-.24.29-.56.29-.93,0-.41-.13-.73-.39-.99-.26-.25-.6-.46-1.02-.63s-.9-.31-1.43-.44-1.07-.27-1.62-.42c-.56-.14-1.11-.31-1.64-.51-.53-.2-1.01-.47-1.43-.79-.42-.32-.76-.72-1.02-1.21s-.39-1.07-.39-1.75c0-.77.17-1.44.49-2.01.33-.57.76-1.04,1.29-1.42.53-.38,1.13-.66,1.81-.84.67-.18,1.34-.27,2.02-.27.78,0,1.54.09,2.26.26.72.18,1.36.46,1.92.85s1,.89,1.33,1.5c.33.61.49,1.35.49,2.22h-3.19c-.03-.45-.12-.82-.28-1.11-.16-.29-.38-.53-.64-.69s-.57-.29-.91-.36c-.34-.07-.72-.1-1.12-.1-.27,0-.53.03-.8.08-.27.06-.51.15-.72.29-.22.14-.4.31-.54.52-.14.21-.21.48-.21.8,0,.29.06.53.17.71.11.18.33.35.66.5.33.15.78.31,1.37.46.58.15,1.34.35,2.28.59.28.06.67.16,1.17.3.5.15.99.38,1.48.7.49.32.91.75,1.27,1.29.36.54.54,1.23.54,2.07,0,.69-.13,1.32-.4,1.91-.27.59-.66,1.1-1.19,1.52-.52.43-1.18.76-1.95,1-.78.24-1.68.36-2.7.36-.83,0-1.63-.1-2.4-.3-.78-.2-1.46-.52-2.06-.96-.6-.43-1.07-.99-1.42-1.66s-.52-1.47-.5-2.39h3.19c0,.5.09.93.27,1.28Z"/>
        <path class="cls-2" d="M239.36,155.66v14.99h-3.3v-14.99h3.3Z"/>
        <path class="cls-2" d="M251.14,170.54c-.71.3-1.44.45-2.16.45-1.15,0-2.18-.2-3.1-.6-.92-.4-1.69-.95-2.32-1.65-.63-.7-1.11-1.52-1.45-2.47-.34-.95-.5-1.96-.5-3.06s.17-2.16.5-3.12c.34-.96.82-1.8,1.45-2.51s1.4-1.27,2.32-1.68c.92-.41,1.95-.61,3.1-.61.77,0,1.52.12,2.24.35s1.37.57,1.95,1.02,1.06,1,1.44,1.66c.38.66.61,1.41.69,2.27h-3.15c-.2-.84-.57-1.47-1.13-1.89-.56-.42-1.24-.63-2.04-.63-.74,0-1.37.14-1.89.43-.52.29-.94.67-1.26,1.15-.32.48-.56,1.03-.7,1.65-.15.62-.22,1.25-.22,1.91s.07,1.24.22,1.84c.15.6.38,1.13.7,1.61.32.48.74.86,1.26,1.14.52.29,1.15.43,1.89.43,1.09,0,1.94-.28,2.53-.83.59-.55.94-1.35,1.04-2.4h-3.32v-2.46h6.3v8.11h-2.1l-.34-1.7c-.59.76-1.24,1.28-1.95,1.59Z"/>
        <path class="cls-2" d="M261.48,155.66l6.26,10.06h.04v-10.06h3.09v14.99h-3.3l-6.24-10.04h-.04v10.04h-3.09v-14.99h3.28Z"/>
        <path class="cls-2" d="M277.06,155.66v14.99h-3.3v-14.99h3.3Z"/>
        <path class="cls-2" d="M290.5,155.66v2.77h-7.25v3.47h6.28v2.56h-6.28v6.19h-3.3v-14.99h10.54Z"/>
        <path class="cls-2" d="M295.71,155.66v14.99h-3.3v-14.99h3.3Z"/>
        <path class="cls-2" d="M308.22,159.66c-.2-.31-.44-.59-.74-.83-.29-.24-.63-.42-1-.56-.37-.13-.76-.2-1.17-.2-.74,0-1.37.14-1.89.43-.52.29-.94.67-1.26,1.15-.32.48-.56,1.03-.7,1.65-.15.62-.22,1.25-.22,1.91s.07,1.24.22,1.84c.15.6.38,1.13.7,1.61.32.48.74.86,1.26,1.14.52.29,1.15.43,1.89.43,1.01,0,1.8-.31,2.36-.92.57-.62.91-1.43,1.04-2.44h3.19c-.08.94-.3,1.78-.65,2.54-.35.76-.81,1.4-1.39,1.93-.57.53-1.25.94-2.02,1.22-.77.28-1.62.42-2.54.42-1.15,0-2.18-.2-3.1-.6-.92-.4-1.69-.95-2.32-1.65-.63-.7-1.11-1.52-1.45-2.47-.34-.95-.5-1.96-.5-3.06s.17-2.16.5-3.12c.34-.96.82-1.8,1.45-2.51s1.4-1.27,2.32-1.68c.92-.41,1.95-.61,3.1-.61.83,0,1.61.12,2.34.36.73.24,1.39.58,1.97,1.04.58.46,1.06,1.02,1.44,1.69.38.67.62,1.44.71,2.31h-3.19c-.06-.38-.18-.72-.38-1.04Z"/>
        <path class="cls-2" d="M321.64,155.66l5.61,14.99h-3.42l-1.13-3.34h-5.61l-1.18,3.34h-3.32l5.67-14.99h3.38ZM321.83,164.86l-1.89-5.5h-.04l-1.95,5.5h3.89Z"/>
        <path class="cls-2" d="M325.44,158.44v-2.77h12.28v2.77h-4.49v12.22h-3.3v-12.22h-4.49Z"/>
        <path class="cls-2" d="M339.3,160.11c.34-.96.82-1.8,1.45-2.51s1.4-1.27,2.32-1.68c.92-.41,1.95-.61,3.1-.61s2.2.2,3.11.61c.91.41,1.68.97,2.31,1.68s1.11,1.55,1.45,2.51c.34.96.5,2,.5,3.12s-.17,2.11-.5,3.06c-.34.94-.82,1.77-1.45,2.47-.63.7-1.4,1.25-2.31,1.65-.91.4-1.95.6-3.11.6s-2.18-.2-3.1-.6c-.92-.4-1.69-.95-2.32-1.65-.63-.7-1.11-1.52-1.45-2.47-.34-.95-.5-1.96-.5-3.06s.17-2.16.5-3.12ZM342.31,165.06c.15.6.38,1.13.7,1.61.32.48.74.86,1.26,1.14.52.29,1.15.43,1.89.43s1.37-.14,1.89-.43c.52-.29.94-.67,1.26-1.14.32-.48.56-1.01.7-1.61.15-.59.22-1.21.22-1.84s-.07-1.29-.22-1.91c-.15-.62-.38-1.17-.7-1.65-.32-.48-.74-.87-1.26-1.15-.52-.29-1.15-.43-1.89-.43s-1.37.14-1.89.43c-.52.29-.94.67-1.26,1.15-.32.48-.56,1.03-.7,1.65-.15.62-.22,1.25-.22,1.91s.07,1.24.22,1.84Z"/>
        <path class="cls-2" d="M363.87,155.66c.67,0,1.28.11,1.82.33.54.22,1,.51,1.39.89s.68.82.88,1.31.3,1.03.3,1.61c0,.88-.19,1.65-.56,2.29s-.98,1.13-1.82,1.47v.04c.41.11.74.28,1.01.51.27.23.48.5.65.82s.29.66.37,1.04.13.76.16,1.13c.01.24.03.52.04.84.01.32.04.65.07.99s.09.65.17.96c.08.3.19.56.35.77h-3.3c-.18-.48-.29-1.04-.34-1.7-.04-.66-.11-1.29-.19-1.89-.11-.78-.35-1.36-.71-1.72-.36-.36-.96-.55-1.79-.55h-3.3v5.86h-3.3v-14.99h8.08ZM362.7,162.45c.76,0,1.32-.17,1.7-.5s.57-.88.57-1.64-.19-1.26-.57-1.59c-.38-.33-.94-.49-1.7-.49h-3.61v4.22h3.61Z"/>
      </g>
      <g>
        <path class="cls-2" d="M233.65,119.98v2.77h-7.92v3.21h7.27v2.56h-7.27v3.67h8.08v2.77h-11.38v-14.99h11.21Z"/>
        <path class="cls-2" d="M234.89,119.98h3.82l2.94,4.79,3.04-4.79h3.61l-4.81,7.16,5.23,7.83h-3.93l-3.28-5.19-3.34,5.19h-3.7l5.23-7.85-4.83-7.14Z"/>
        <path class="cls-2" d="M256.81,119.98c.94,0,1.74.14,2.39.41.66.27,1.19.63,1.61,1.08.41.45.71.96.9,1.53.19.57.28,1.17.28,1.79s-.09,1.19-.28,1.77c-.19.58-.49,1.1-.9,1.54-.41.45-.95.81-1.61,1.08-.66.27-1.46.41-2.39.41h-3.46v5.38h-3.3v-14.99h6.76ZM255.91,127.03c.38,0,.74-.03,1.09-.08.35-.06.66-.16.92-.33.27-.16.48-.39.64-.68.16-.29.24-.68.24-1.16s-.08-.86-.24-1.15c-.16-.29-.38-.52-.64-.68-.27-.16-.57-.27-.92-.33-.35-.06-.71-.08-1.09-.08h-2.56v4.49h2.56Z"/>
        <path class="cls-2" d="M275.27,119.98v2.77h-7.92v3.21h7.27v2.56h-7.27v3.67h8.08v2.77h-11.38v-14.99h11.21Z"/>
        <path class="cls-2" d="M285.75,119.98c.67,0,1.28.11,1.82.33.54.22,1,.51,1.39.89s.68.82.88,1.31.3,1.03.3,1.61c0,.88-.19,1.65-.56,2.29s-.98,1.13-1.82,1.47v.04c.41.11.74.28,1.01.51.27.23.48.5.65.82s.29.66.37,1.04.13.76.16,1.13c.01.24.03.52.04.84.01.32.04.65.07.99s.09.65.17.96c.08.3.19.56.35.77h-3.3c-.18-.48-.29-1.04-.34-1.7-.04-.66-.11-1.29-.19-1.89-.11-.78-.35-1.36-.71-1.72-.36-.36-.96-.55-1.79-.55h-3.3v5.86h-3.3v-14.99h8.08ZM284.58,126.76c.76,0,1.32-.17,1.7-.5s.57-.88.57-1.64-.19-1.26-.57-1.59c-.38-.33-.94-.49-1.7-.49h-3.61v4.22h3.61Z"/>
        <path class="cls-2" d="M296.13,119.98v14.99h-3.3v-14.99h3.3Z"/>
        <path class="cls-2" d="M310.24,119.98v2.77h-7.92v3.21h7.27v2.56h-7.27v3.67h8.08v2.77h-11.38v-14.99h11.21Z"/>
        <path class="cls-2" d="M315.91,119.98l6.26,10.06h.04v-10.06h3.09v14.99h-3.3l-6.24-10.04h-.04v10.04h-3.09v-14.99h3.28Z"/>
        <path class="cls-2" d="M337.81,123.98c-.2-.31-.44-.59-.74-.83-.29-.24-.63-.42-1-.56-.37-.13-.76-.2-1.17-.2-.74,0-1.37.14-1.89.43-.52.29-.94.67-1.26,1.15-.32.48-.56,1.03-.7,1.65-.15.62-.22,1.25-.22,1.91s.07,1.24.22,1.84c.15.6.38,1.13.7,1.61.32.48.74.86,1.26,1.14.52.29,1.15.43,1.89.43,1.01,0,1.8-.31,2.36-.92.57-.62.91-1.43,1.04-2.44h3.19c-.08.94-.3,1.78-.65,2.54-.35.76-.81,1.4-1.39,1.93-.57.53-1.25.94-2.02,1.22-.77.28-1.62.42-2.54.42-1.15,0-2.18-.2-3.1-.6-.92-.4-1.69-.95-2.32-1.65-.63-.7-1.11-1.52-1.45-2.47-.34-.95-.5-1.96-.5-3.06s.17-2.16.5-3.12c.34-.96.82-1.8,1.45-2.51s1.4-1.27,2.32-1.68c.92-.41,1.95-.61,3.1-.61.83,0,1.61.12,2.34.36.73.24,1.39.58,1.97,1.04.58.46,1.06,1.02,1.44,1.69.38.67.62,1.44.71,2.31h-3.19c-.06-.38-.18-.72-.38-1.04Z"/>
        <path class="cls-2" d="M354.97,119.98v2.77h-7.92v3.21h7.27v2.56h-7.27v3.67h8.08v2.77h-11.38v-14.99h11.21Z"/>
      </g>
      <g>
        <path class="cls-2" d="M232.06,88.29c-.2-.31-.44-.59-.74-.83-.29-.24-.63-.42-1-.56-.37-.13-.76-.2-1.17-.2-.74,0-1.37.14-1.89.43-.52.29-.94.67-1.26,1.15-.32.48-.56,1.03-.7,1.65-.15.62-.22,1.25-.22,1.91s.07,1.24.22,1.84c.15.6.38,1.13.7,1.61.32.48.74.86,1.26,1.14.52.29,1.15.43,1.89.43,1.01,0,1.8-.31,2.36-.92.57-.62.91-1.43,1.04-2.44h3.19c-.08.94-.3,1.78-.65,2.54-.35.76-.81,1.4-1.39,1.93-.57.53-1.25.94-2.02,1.22-.77.28-1.62.42-2.54.42-1.15,0-2.18-.2-3.1-.6-.92-.4-1.69-.95-2.32-1.65-.63-.7-1.11-1.52-1.45-2.47-.34-.95-.5-1.96-.5-3.06s.17-2.16.5-3.12c.34-.96.82-1.8,1.45-2.51s1.4-1.27,2.32-1.68c.92-.41,1.95-.61,3.1-.61.83,0,1.61.12,2.34.36.73.24,1.39.58,1.97,1.04.58.46,1.06,1.02,1.44,1.69.38.67.62,1.44.71,2.31h-3.19c-.06-.38-.18-.72-.38-1.04Z"/>
        <path class="cls-2" d="M245.47,84.29l5.61,14.99h-3.42l-1.13-3.34h-5.61l-1.18,3.34h-3.32l5.67-14.99h3.38ZM245.66,93.49l-1.89-5.5h-.04l-1.95,5.5h3.89Z"/>
        <path class="cls-2" d="M249.28,87.06v-2.77h12.28v2.77h-4.49v12.22h-3.3v-12.22h-4.49Z"/>
        <path class="cls-2" d="M268.83,84.29l5.61,14.99h-3.42l-1.13-3.34h-5.61l-1.18,3.34h-3.32l5.67-14.99h3.38ZM269.02,93.49l-1.89-5.5h-.04l-1.95,5.5h3.89Z"/>
        <path class="cls-2" d="M279.03,84.29v12.22h7.31v2.77h-10.6v-14.99h3.3Z"/>
        <path class="cls-2" d="M284.24,84.29h3.7l3.51,5.92,3.49-5.92h3.67l-5.57,9.24v5.75h-3.3v-5.84l-5.5-9.16Z"/>
        <path class="cls-2" d="M302.38,95.59c.18.35.42.63.72.85.3.22.65.38,1.06.48s.83.16,1.26.16c.29,0,.61-.02.95-.07s.65-.14.95-.28c.29-.14.54-.33.73-.58.2-.24.29-.56.29-.93,0-.41-.13-.73-.39-.99-.26-.25-.6-.46-1.02-.63s-.9-.31-1.43-.44-1.07-.27-1.62-.42c-.56-.14-1.11-.31-1.64-.51-.53-.2-1.01-.47-1.43-.79-.42-.32-.76-.72-1.02-1.21s-.39-1.07-.39-1.75c0-.77.17-1.44.49-2.01.33-.57.76-1.04,1.29-1.42.53-.38,1.13-.66,1.81-.84.67-.18,1.34-.27,2.02-.27.78,0,1.54.09,2.26.26.72.18,1.36.46,1.92.85s1,.89,1.33,1.5c.33.61.49,1.35.49,2.22h-3.19c-.03-.45-.12-.82-.28-1.11-.16-.29-.38-.53-.64-.69s-.57-.29-.91-.36c-.34-.07-.72-.1-1.12-.1-.27,0-.53.03-.8.08-.27.06-.51.15-.72.29-.22.14-.4.31-.54.52-.14.21-.21.48-.21.8,0,.29.06.53.17.71.11.18.33.35.66.5.33.15.78.31,1.37.46.58.15,1.34.35,2.28.59.28.06.67.16,1.17.3.5.15.99.38,1.48.7.49.32.91.75,1.27,1.29.36.54.54,1.23.54,2.07,0,.69-.13,1.32-.4,1.91-.27.59-.66,1.1-1.19,1.52-.52.43-1.18.76-1.95,1-.78.24-1.68.36-2.7.36-.83,0-1.63-.1-2.4-.3-.78-.2-1.46-.52-2.06-.96-.6-.43-1.07-.99-1.42-1.66s-.52-1.47-.5-2.39h3.19c0,.5.09.93.27,1.28Z"/>
        <path class="cls-2" d="M312.32,87.06v-2.77h12.28v2.77h-4.49v12.22h-3.3v-12.22h-4.49Z"/>
      </g>
      <g>
        <path class="cls-2" d="M229.2,48.6c.94,0,1.74.14,2.39.41.66.27,1.19.63,1.61,1.08.41.45.71.96.9,1.53.19.57.28,1.17.28,1.79s-.09,1.19-.28,1.77c-.19.58-.49,1.1-.9,1.54-.41.45-.95.81-1.61,1.08-.66.27-1.46.41-2.39.41h-3.46v5.38h-3.3v-14.99h6.76ZM228.3,55.65c.38,0,.74-.03,1.09-.08.35-.06.66-.16.92-.33.27-.16.48-.39.64-.68.16-.29.24-.68.24-1.16s-.08-.86-.24-1.15c-.16-.29-.38-.52-.64-.68-.27-.16-.57-.27-.92-.33-.35-.06-.71-.08-1.09-.08h-2.56v4.49h2.56Z"/>
        <path class="cls-2" d="M236.3,53.04c.34-.96.82-1.8,1.45-2.51s1.4-1.27,2.32-1.68c.92-.41,1.95-.61,3.1-.61s2.2.2,3.11.61c.91.41,1.68.97,2.31,1.68s1.11,1.55,1.45,2.51c.34.96.5,2,.5,3.12s-.17,2.11-.5,3.06c-.34.94-.82,1.77-1.45,2.47-.63.7-1.4,1.25-2.31,1.65-.91.4-1.95.6-3.11.6s-2.18-.2-3.1-.6c-.92-.4-1.69-.95-2.32-1.65-.63-.7-1.11-1.52-1.45-2.47-.34-.95-.5-1.96-.5-3.06s.17-2.16.5-3.12ZM239.31,58c.15.6.38,1.13.7,1.61.32.48.74.86,1.26,1.14.52.29,1.15.43,1.89.43s1.37-.14,1.89-.43c.52-.29.94-.67,1.26-1.14.32-.48.56-1.01.7-1.61.15-.59.22-1.21.22-1.84s-.07-1.29-.22-1.91c-.15-.62-.38-1.17-.7-1.65-.32-.48-.74-.87-1.26-1.15-.52-.29-1.15-.43-1.89-.43s-1.37.14-1.89.43c-.52.29-.94.67-1.26,1.15-.32.48-.56,1.03-.7,1.65-.15.62-.22,1.25-.22,1.91s.07,1.24.22,1.84Z"/>
        <path class="cls-2" d="M251.61,51.37v-2.77h12.28v2.77h-4.49v12.22h-3.3v-12.22h-4.49Z"/>
        <path class="cls-2" d="M276.83,48.6v2.77h-7.92v3.21h7.27v2.56h-7.27v3.67h8.08v2.77h-11.38v-14.99h11.21Z"/>
        <path class="cls-2" d="M282.5,48.6l6.26,10.06h.04v-10.06h3.09v14.99h-3.3l-6.24-10.04h-.04v10.04h-3.09v-14.99h3.28Z"/>
        <path class="cls-2" d="M293.61,51.37v-2.77h12.28v2.77h-4.49v12.22h-3.3v-12.22h-4.49Z"/>
        <path class="cls-2" d="M310.91,48.6v14.99h-3.3v-14.99h3.3Z"/>
        <path class="cls-2" d="M321.28,48.6l5.61,14.99h-3.42l-1.13-3.34h-5.61l-1.18,3.34h-3.32l5.67-14.99h3.38ZM321.47,57.8l-1.89-5.5h-.04l-1.95,5.5h3.89Z"/>
        <path class="cls-2" d="M325.08,51.37v-2.77h12.28v2.77h-4.49v12.22h-3.3v-12.22h-4.49Z"/>
        <path class="cls-2" d="M338.94,53.04c.34-.96.82-1.8,1.45-2.51s1.4-1.27,2.32-1.68c.92-.41,1.95-.61,3.1-.61s2.2.2,3.11.61c.91.41,1.68.97,2.31,1.68s1.11,1.55,1.45,2.51c.34.96.5,2,.5,3.12s-.17,2.11-.5,3.06c-.34.94-.82,1.77-1.45,2.47-.63.7-1.4,1.25-2.31,1.65-.91.4-1.95.6-3.11.6s-2.18-.2-3.1-.6c-.92-.4-1.69-.95-2.32-1.65-.63-.7-1.11-1.52-1.45-2.47-.34-.95-.5-1.96-.5-3.06s.17-2.16.5-3.12ZM341.96,58c.15.6.38,1.13.7,1.61.32.48.74.86,1.26,1.14.52.29,1.15.43,1.89.43s1.37-.14,1.89-.43c.52-.29.94-.67,1.26-1.14.32-.48.56-1.01.7-1.61.15-.59.22-1.21.22-1.84s-.07-1.29-.22-1.91c-.15-.62-.38-1.17-.7-1.65-.32-.48-.74-.87-1.26-1.15-.52-.29-1.15-.43-1.89-.43s-1.37.14-1.89.43c-.52.29-.94.67-1.26,1.15-.32.48-.56,1.03-.7,1.65-.15.62-.22,1.25-.22,1.91s.07,1.24.22,1.84Z"/>
        <path class="cls-2" d="M363.51,48.6c.67,0,1.28.11,1.82.33.54.22,1,.51,1.39.89s.68.82.88,1.31.3,1.03.3,1.61c0,.88-.19,1.65-.56,2.29s-.98,1.13-1.82,1.47v.04c.41.11.74.28,1.01.51.27.23.48.5.65.82s.29.66.37,1.04.13.76.16,1.13c.01.24.03.52.04.84.01.32.04.65.07.99s.09.65.17.96c.08.3.19.56.35.77h-3.3c-.18-.48-.29-1.04-.34-1.7-.04-.66-.11-1.29-.19-1.89-.11-.78-.35-1.36-.71-1.72-.36-.36-.96-.55-1.79-.55h-3.3v5.86h-3.3v-14.99h8.08ZM362.34,55.38c.76,0,1.32-.17,1.7-.5s.57-.88.57-1.64-.19-1.26-.57-1.59c-.38-.33-.94-.49-1.7-.49h-3.61v4.22h3.61Z"/>
      </g>
      <g>
        <path class="cls-2" d="M227.08,12.91l3.51,10.31h.04l3.32-10.31h4.64v14.99h-3.09v-10.63h-.04l-3.67,10.63h-2.54l-3.67-10.52h-.04v10.52h-3.09v-14.99h4.64Z"/>
        <path class="cls-2" d="M248.96,12.91l5.61,14.99h-3.42l-1.13-3.34h-5.61l-1.18,3.34h-3.32l5.67-14.99h3.38ZM249.15,22.11l-1.89-5.5h-.04l-1.95,5.5h3.89Z"/>
        <path class="cls-2" d="M252.76,15.68v-2.77h12.28v2.77h-4.49v12.22h-3.3v-12.22h-4.49Z"/>
        <path class="cls-2" d="M274.85,12.91c.67,0,1.28.11,1.82.33.54.22,1,.51,1.39.89s.68.82.88,1.31.3,1.03.3,1.61c0,.88-.19,1.65-.56,2.29s-.98,1.13-1.82,1.47v.04c.41.11.74.28,1.01.51.27.23.48.5.65.82s.29.66.37,1.04.13.76.16,1.13c.01.24.03.52.04.84.01.32.04.65.07.99s.09.65.17.96c.08.3.19.56.35.77h-3.3c-.18-.48-.29-1.04-.34-1.7-.04-.66-.11-1.29-.19-1.89-.11-.78-.35-1.36-.71-1.72-.36-.36-.96-.55-1.79-.55h-3.3v5.86h-3.3v-14.99h8.08ZM273.68,19.69c.76,0,1.32-.17,1.7-.5s.57-.88.57-1.64-.19-1.26-.57-1.59c-.38-.33-.94-.49-1.7-.49h-3.61v4.22h3.61Z"/>
        <path class="cls-2" d="M285.23,12.91v14.99h-3.3v-14.99h3.3Z"/>
        <path class="cls-2" d="M286.97,12.91h3.82l2.94,4.79,3.04-4.79h3.61l-4.81,7.16,5.23,7.83h-3.93l-3.28-5.19-3.34,5.19h-3.7l5.23-7.85-4.83-7.14Z"/>
      </g>
    </g>
  </g>
</svg>