<?xml version="1.0" encoding="UTF-8"?>
<svg id="Layer_2" data-name="Layer 2" xmlns="http://www.w3.org/2000/svg" viewBox="0 0 334.2 499.34">
  <defs>
    <style>
      .cls-1, .cls-2, .cls-3, .cls-4, .cls-5, .cls-6 {
        stroke-width: 0px;
      }

      .cls-7 {
        fill: #c2b59b;
        stroke: #754c29;
        stroke-linejoin: round;
      }

      .cls-2 {
        fill: #58595b;
      }

      .cls-3 {
        fill: #231f20;
      }

      .cls-4 {
        fill: #bcbec0;
      }

      .cls-5 {
        fill: #939598;
      }

      .cls-6 {
        fill: #fff;
      }

      .cls-8 {
        fill: none;
        stroke: #231f20;
        stroke-miterlimit: 10;
        stroke-width: .5px;
      }
    </style>
  </defs>
  <g id="Layer_1-2" data-name="Layer 1">
    <g>
      <g>
        <g>
          <rect class="cls-1" x="31.17" y="58.15" width="269.18" height="440.93"/>
          <path class="cls-5" d="M300.1,58.4v440.43H31.42V58.4h268.68M300.6,57.9H30.92v441.43h269.68V57.9h0Z"/>
        </g>
        <polygon class="cls-6" points="31.42 58.4 31.42 58.45 31.42 498.84 165.76 498.84 165.76 58.4 31.42 58.4"/>
      </g>
      <g>
        <polyline class="cls-8" points="95.52 498.69 31.46 498.69 31.46 121.26 31.46 58.45 132.21 58.45"/>
        <polyline class="cls-8" points="236.08 498.69 300.14 498.69 300.14 58.45 199.39 58.45"/>
      </g>
      <g>
        <g>
          <g>
            <circle class="cls-6" cx="302.74" cy="152.98" r="31.21"/>
            <path class="cls-3" d="M302.74,122.02c17.07,0,30.96,13.89,30.96,30.96s-13.89,30.96-30.96,30.96-30.96-13.89-30.96-30.96,13.89-30.96,30.96-30.96M302.74,121.52c-17.38,0-31.46,14.09-31.46,31.46s14.09,31.46,31.46,31.46c17.38,0,31.46-14.09,31.46-31.46s-14.09-31.46-31.46-31.46h0Z"/>
          </g>
          <path class="cls-1" d="M303.34,136.23c1.27,0,2.44.13,3.52.39,1.08.26,2.01.69,2.79,1.3.78.6,1.38,1.41,1.81,2.42.43,1.01.65,2.25.65,3.72,0,1.67-.39,3.1-1.17,4.3-.78,1.2-1.94,2.01-3.5,2.44v.09c1.73.23,3.1.97,4.1,2.2,1.01,1.24,1.51,2.89,1.51,4.97,0,1.21-.16,2.36-.48,3.46-.32,1.09-.86,2.05-1.62,2.87s-1.76,1.48-2.98,1.97c-1.22.49-2.74.73-4.56.73h-10.5v-30.84h10.41ZM300.92,148.88c1.73,0,2.99-.31,3.78-.93.79-.62,1.19-1.66,1.19-3.13s-.36-2.51-1.08-3.11c-.72-.6-1.86-.91-3.41-.91h-2.25v8.08h1.77ZM301.57,162.49c1.5,0,2.71-.33,3.63-.99.92-.66,1.38-1.89,1.38-3.67,0-.89-.12-1.63-.37-2.23-.24-.59-.58-1.06-.99-1.43-.42-.36-.91-.61-1.49-.76-.58-.14-1.21-.22-1.9-.22h-2.68v9.29h2.42Z"/>
        </g>
        <g>
          <g>
            <circle class="cls-6" cx="302.74" cy="216.16" r="31.21"/>
            <path class="cls-3" d="M302.74,185.19c17.07,0,30.96,13.89,30.96,30.96s-13.89,30.96-30.96,30.96c-17.07,0-30.96-13.89-30.96-30.96s13.89-30.96,30.96-30.96M302.74,184.69c-17.38,0-31.46,14.09-31.46,31.46s14.09,31.46,31.46,31.46c17.38,0,31.46-14.09,31.46-31.46s-14.09-31.46-31.46-31.46h0Z"/>
          </g>
          <path class="cls-1" d="M298.78,221.52c0,.72.06,1.38.17,1.97.11.59.33,1.09.65,1.49.32.4.74.72,1.27.95.53.23,1.2.35,2.01.35.95,0,1.81-.31,2.57-.93.76-.62,1.14-1.58,1.14-2.87,0-.69-.09-1.29-.28-1.79-.19-.5-.5-.96-.93-1.36-.43-.4-1-.77-1.71-1.1-.71-.33-1.58-.67-2.61-1.02-1.38-.46-2.58-.96-3.59-1.51-1.01-.55-1.85-1.19-2.53-1.92-.68-.73-1.17-1.58-1.49-2.55-.32-.96-.48-2.08-.48-3.35,0-3.05.85-5.33,2.55-6.83,1.7-1.5,4.03-2.25,7-2.25,1.38,0,2.66.15,3.82.45,1.17.3,2.17.79,3.02,1.47.85.68,1.51,1.54,1.99,2.59.48,1.05.71,2.31.71,3.78v.86h-5.96c0-1.47-.26-2.6-.78-3.39-.52-.79-1.38-1.19-2.59-1.19-.69,0-1.27.1-1.73.3-.46.2-.83.47-1.1.8-.27.33-.46.71-.56,1.15-.1.43-.15.88-.15,1.34,0,.95.2,1.75.6,2.4.4.65,1.27,1.25,2.59,1.79l4.8,2.07c1.18.52,2.15,1.06,2.89,1.62.75.56,1.35,1.17,1.79,1.81.45.65.76,1.36.93,2.14.17.78.26,1.64.26,2.59,0,3.25-.94,5.62-2.83,7.11-1.89,1.48-4.51,2.22-7.88,2.22s-6.03-.76-7.54-2.29c-1.51-1.53-2.27-3.72-2.27-6.57v-1.25h6.22v.91Z"/>
        </g>
        <g>
          <g>
            <circle class="cls-6" cx="302.74" cy="89.8" r="31.21"/>
            <path class="cls-3" d="M302.74,58.84c17.07,0,30.96,13.89,30.96,30.96s-13.89,30.96-30.96,30.96-30.96-13.89-30.96-30.96,13.89-30.96,30.96-30.96M302.74,58.34c-17.38,0-31.46,14.09-31.46,31.46s14.09,31.46,31.46,31.46,31.46-14.09,31.46-31.46-14.09-31.46-31.46-31.46h0Z"/>
          </g>
          <path class="cls-1" d="M298.27,73.07l4.41,21.77h.09l4.45-21.77h9.2v30.84h-5.7v-24.62h-.09l-5.49,24.62h-4.84l-5.49-24.62h-.09v24.62h-5.7v-30.84h9.24Z"/>
        </g>
      </g>
      <g>
        <g>
          <circle class="cls-6" cx="31.46" cy="89.8" r="31.21"/>
          <path class="cls-3" d="M31.46,58.84c17.07,0,30.96,13.89,30.96,30.96,0,17.07-13.89,30.96-30.96,30.96S.5,106.88.5,89.8c0-17.07,13.89-30.96,30.96-30.96M31.46,58.34c-17.38,0-31.46,14.09-31.46,31.46,0,17.38,14.09,31.46,31.46,31.46s31.46-14.09,31.46-31.46c0-17.38-14.09-31.46-31.46-31.46h0Z"/>
        </g>
        <path class="cls-1" d="M33.28,73.07c1.58,0,2.92.27,4,.8,1.08.53,1.95,1.23,2.61,2.1.66.86,1.14,1.85,1.43,2.96.29,1.11.43,2.24.43,3.39,0,1.58-.24,2.97-.71,4.15-.48,1.18-1.14,2.15-1.99,2.89-.85.75-1.88,1.31-3.09,1.69-1.21.37-2.55.56-4.02.56h-3.33v12.31h-6.22v-30.84h10.89ZM31.38,87.02c1.24,0,2.24-.37,3-1.12.76-.75,1.15-1.92,1.15-3.5s-.33-2.74-.99-3.54c-.66-.81-1.77-1.21-3.33-1.21h-2.59v9.37h2.76Z"/>
      </g>
      <g>
        <g>
          <circle class="cls-6" cx="87.8" cy="341.37" r="31.21"/>
          <path class="cls-3" d="M87.8,310.41c17.07,0,30.96,13.89,30.96,30.96,0,8.27-3.22,16.04-9.07,21.89-5.85,5.85-13.62,9.07-21.89,9.07-17.07,0-30.96-13.89-30.96-30.96,0-8.27,3.22-16.04,9.07-21.89,5.85-5.85,13.62-9.07,21.89-9.07M87.8,309.91c-17.38,0-31.46,14.09-31.46,31.46,0,17.38,14.09,31.46,31.46,31.46s31.46-14.09,31.46-31.46c0-17.38-14.09-31.46-31.46-31.46h0Z"/>
        </g>
        <path class="cls-1" d="M76.9,345.58v-5.36h8.25v-8.25h5.36v8.25h8.25v5.36h-8.25v8.25h-5.36v-8.25h-8.25Z"/>
      </g>
      <g>
        <g>
          <path class="cls-3" d="M246.7,372.58c-17.21,0-31.21-14-31.21-31.21s14-31.21,31.21-31.21,31.21,14,31.21,31.21-14,31.21-31.21,31.21Z"/>
          <path class="cls-6" d="M246.7,310.41c17.07,0,30.96,13.89,30.96,30.96s-13.89,30.96-30.96,30.96-30.96-13.89-30.96-30.96,13.89-30.96,30.96-30.96M246.7,309.91c-17.38,0-31.46,14.09-31.46,31.46s14.09,31.46,31.46,31.46,31.46-14.09,31.46-31.46-14.09-31.46-31.46-31.46h0Z"/>
        </g>
        <path class="cls-6" d="M252.86,344.21h-12.18v-5.1h12.18v5.1Z"/>
      </g>
      <g>
        <circle class="cls-4" cx="87.8" cy="404.46" r="31.21"/>
        <path class="cls-3" d="M87.8,373.5c17.07,0,30.96,13.89,30.96,30.96,0,8.27-3.22,16.04-9.07,21.89-5.85,5.85-13.62,9.07-21.89,9.07-17.07,0-30.96-13.89-30.96-30.96,0-8.27,3.22-16.04,9.07-21.89,5.85-5.85,13.62-9.07,21.89-9.07M87.8,373c-17.38,0-31.46,14.09-31.46,31.46,0,17.38,14.09,31.46,31.46,31.46s31.46-14.09,31.46-31.46c0-17.38-14.09-31.46-31.46-31.46h0Z"/>
      </g>
      <g>
        <path class="cls-2" d="M246.7,435.67c-17.21,0-31.21-14-31.21-31.21s14-31.21,31.21-31.21,31.21,14,31.21,31.21-14,31.21-31.21,31.21Z"/>
        <path class="cls-6" d="M246.7,373.5c17.07,0,30.96,13.89,30.96,30.96s-13.89,30.96-30.96,30.96-30.96-13.89-30.96-30.96,13.89-30.96,30.96-30.96M246.7,373c-17.38,0-31.46,14.09-31.46,31.46s14.09,31.46,31.46,31.46,31.46-14.09,31.46-31.46-14.09-31.46-31.46-31.46h0Z"/>
      </g>
      <g>
        <g>
          <circle class="cls-3" cx="87.8" cy="275.67" r="31.46"/>
          <circle class="cls-6" cx="87.8" cy="275.67" r="10.38"/>
        </g>
        <g>
          <circle class="cls-6" cx="246.7" cy="275.67" r="31.46"/>
          <circle class="cls-3" cx="246.7" cy="275.67" r="10.38"/>
        </g>
      </g>
      <g>
        <g>
          <path class="cls-7" d="M168.58,498.79l8.02-20.09-9.99-173.11-5.25,173.11,5.25,20.09h-51.67l22.25-20.11-8.21-77.94-3.29-120.55-29.71,25.4v-33.54l2.4-54.23s7.7-65.11,9.12-74.44c1.59-10.48,24.35-16.11,24.35-16.11l18.78-5.86,15.98-18.52,16.73,18.75,18.03,5.62s23.73,6.77,24.67,16.11c.94,9.34,7.43,74.18,7.43,74.18l2.16,54.49v33.54l-27.89-25.4-3.8,120.55-5.94,77.96,18.55,20.09h-47.95"/>
          <circle class="cls-7" cx="166.53" cy="89.82" r="31.46"/>
        </g>
        <line class="cls-7" x1="125.68" y1="280.19" x2="132.26" y2="157.84"/>
        <line class="cls-7" x1="207.74" y1="280.19" x2="201.79" y2="157.84"/>
      </g>
      <g>
        <path class="cls-6" d="M220.31,88.28l2.86,14.11h.06l2.88-14.11h5.96v19.99h-3.7v-15.96h-.06l-3.56,15.96h-3.14l-3.56-15.96h-.06v15.96h-3.7v-19.99h5.99Z"/>
        <path class="cls-6" d="M238.14,102.53c0,.45.03.88.1,1.3s.17.79.32,1.12c.15.33.35.59.59.78.24.2.54.29.9.29.65,0,1.13-.23,1.43-.7.3-.47.5-1.18.62-2.13h3.47c-.08,1.75-.54,3.09-1.4,4s-2.21,1.37-4.06,1.37c-1.4,0-2.49-.23-3.28-.7-.78-.47-1.36-1.08-1.74-1.85-.37-.77-.6-1.62-.69-2.58s-.13-1.9-.13-2.86c0-1.01.07-1.98.21-2.91.14-.93.42-1.76.84-2.49.42-.73,1.02-1.31,1.81-1.74.78-.43,1.83-.64,3.14-.64,1.12,0,2.04.18,2.76.55.72.36,1.28.88,1.69,1.54.41.66.69,1.47.84,2.41.15.94.22,1.99.22,3.15v.87h-7.64v1.2ZM241.98,97.51c-.06-.44-.15-.81-.29-1.12-.14-.31-.34-.54-.59-.7-.25-.16-.57-.24-.97-.24s-.71.09-.97.27c-.25.18-.45.41-.6.7-.15.29-.26.61-.32.97-.07.35-.1.71-.1,1.06v.59h3.95c-.02-.58-.06-1.09-.11-1.53Z"/>
      </g>
      <path class="cls-1" d="M101.05,88.28h4.03v19.99h-4.03v-19.99Z"/>
      <g>
        <path class="cls-1" d="M117.16,11.69c-.53-1.02-1.5-1.53-2.92-1.53-.78,0-1.42.21-1.92.63-.5.42-.9,1.1-1.19,2.03-.29.94-.49,2.16-.6,3.67-.12,1.51-.17,3.36-.17,5.55,0,2.33.08,4.22.24,5.66.16,1.44.4,2.56.73,3.35.33.79.75,1.33,1.25,1.6.5.27,1.09.41,1.75.41.55,0,1.06-.09,1.53-.28.48-.19.89-.56,1.23-1.12.35-.56.62-1.35.82-2.38.2-1.02.3-2.37.3-4.04h6.22c0,1.67-.13,3.25-.39,4.75-.26,1.5-.74,2.81-1.45,3.93-.71,1.12-1.7,2-2.98,2.64-1.28.63-2.94.95-4.99.95-2.33,0-4.19-.37-5.57-1.12-1.38-.75-2.44-1.83-3.18-3.24-.73-1.41-1.21-3.1-1.43-5.05-.22-1.96-.32-4.12-.32-6.48s.11-4.49.32-6.46c.22-1.97.69-3.66,1.43-5.08.73-1.41,1.79-2.51,3.18-3.3,1.38-.79,3.24-1.19,5.57-1.19s3.97.36,5.25,1.08c1.28.72,2.24,1.63,2.87,2.74.63,1.11,1.03,2.3,1.19,3.59.16,1.28.24,2.48.24,3.61h-6.22c0-2.25-.27-3.88-.8-4.9Z"/>
        <path class="cls-1" d="M134.2,6.18v11.79h7.26V6.18h6.22v30.84h-6.22v-13.69h-7.26v13.69h-6.22V6.18h6.22Z"/>
        <path class="cls-1" d="M151.67,15.14c.22-1.97.69-3.66,1.43-5.08.73-1.41,1.79-2.51,3.18-3.3,1.38-.79,3.24-1.19,5.57-1.19s4.19.4,5.57,1.19c1.38.79,2.44,1.89,3.18,3.3.73,1.41,1.21,3.1,1.43,5.08.22,1.97.32,4.13.32,6.46s-.11,4.52-.32,6.48c-.22,1.96-.69,3.64-1.43,5.05-.73,1.41-1.79,2.49-3.18,3.24s-3.24,1.12-5.57,1.12-4.19-.37-5.57-1.12c-1.38-.75-2.44-1.83-3.18-3.24-.73-1.41-1.21-3.1-1.43-5.05-.22-1.96-.32-4.12-.32-6.48s.11-4.49.32-6.46ZM157.72,26.89c.1,1.45.3,2.64.6,3.54s.73,1.57,1.3,1.99,1.3.63,2.23.63,1.66-.21,2.22-.63.99-1.08,1.3-1.99c.3-.91.5-2.09.6-3.54.1-1.45.15-3.22.15-5.29s-.05-3.83-.15-5.27c-.1-1.44-.3-2.62-.6-3.54-.3-.92-.73-1.59-1.3-2.01-.56-.42-1.3-.63-2.22-.63s-1.66.21-2.23.63c-.56.42-.99,1.09-1.3,2.01-.3.92-.5,2.1-.6,3.54-.1,1.44-.15,3.2-.15,5.27s.05,3.84.15,5.29Z"/>
        <path class="cls-1" d="M176.32,6.18h6.22v30.84h-6.22V6.18Z"/>
        <path class="cls-1" d="M199.54,11.69c-.53-1.02-1.5-1.53-2.92-1.53-.78,0-1.42.21-1.92.63-.5.42-.9,1.1-1.19,2.03-.29.94-.49,2.16-.6,3.67-.12,1.51-.17,3.36-.17,5.55,0,2.33.08,4.22.24,5.66.16,1.44.4,2.56.73,3.35.33.79.75,1.33,1.25,1.6.5.27,1.09.41,1.75.41.55,0,1.06-.09,1.53-.28.48-.19.89-.56,1.23-1.12.35-.56.62-1.35.82-2.38.2-1.02.3-2.37.3-4.04h6.22c0,1.67-.13,3.25-.39,4.75-.26,1.5-.74,2.81-1.45,3.93-.71,1.12-1.7,2-2.98,2.64-1.28.63-2.94.95-4.99.95-2.33,0-4.19-.37-5.57-1.12-1.38-.75-2.44-1.83-3.18-3.24-.73-1.41-1.21-3.1-1.43-5.05-.22-1.96-.32-4.12-.32-6.48s.11-4.49.32-6.46c.22-1.97.69-3.66,1.43-5.08.73-1.41,1.79-2.51,3.18-3.3,1.38-.79,3.24-1.19,5.57-1.19s3.97.36,5.25,1.08c1.28.72,2.24,1.63,2.87,2.74.63,1.11,1.03,2.3,1.19,3.59.16,1.28.24,2.48.24,3.61h-6.22c0-2.25-.27-3.88-.8-4.9Z"/>
        <path class="cls-1" d="M227.6,11.27h-11.02v7.26h10.37v5.1h-10.37v8.29h11.45v5.1h-17.67V6.18h17.24v5.1Z"/>
      </g>
      <g>
        <path class="cls-1" d="M152.46,232.79h7.17v.61h-6.46v4.58h5.82v.61h-5.82v5.63h-.7v-11.42Z"/>
        <path class="cls-1" d="M160.79,237.81h.05c.07-.27.21-.52.41-.75.2-.23.44-.44.72-.61.28-.17.6-.3.94-.39s.71-.13,1.08-.12v.61c-.32-.04-.69-.01-1.1.1s-.8.34-1.18.7c-.15.16-.28.31-.39.46s-.21.31-.28.5c-.07.18-.13.38-.18.61-.04.22-.07.49-.08.8v4.5h-.61v-8.22h.61v1.82Z"/>
        <path class="cls-1" d="M164.66,240.18v.1c0,.48.06.94.19,1.38.13.44.32.82.57,1.15.25.33.57.59.95.78.38.19.82.29,1.32.29.82,0,1.48-.22,1.96-.65.48-.43.81-1.03.99-1.8h.61c-.18.96-.57,1.7-1.18,2.21-.6.51-1.4.77-2.39.77-.61,0-1.14-.11-1.59-.33-.45-.22-.83-.52-1.14-.9-.3-.38-.53-.83-.68-1.34-.15-.52-.22-1.07-.22-1.67s.08-1.13.23-1.66c.15-.53.39-.99.7-1.39.31-.4.7-.72,1.16-.96.46-.24,1.01-.36,1.64-.36.58,0,1.08.11,1.53.32.44.21.81.5,1.11.87.3.37.53.79.68,1.28.15.49.23,1.01.23,1.56,0,.05,0,.11,0,.18,0,.07,0,.13,0,.17h-6.66ZM170.71,239.65c-.02-.45-.1-.87-.22-1.27s-.32-.75-.57-1.06c-.25-.3-.56-.55-.91-.73-.36-.18-.77-.27-1.23-.27-.49,0-.93.09-1.3.28s-.69.43-.95.74c-.26.3-.45.66-.59,1.06-.14.41-.22.82-.26,1.25h6.03Z"/>
        <path class="cls-1" d="M172.97,240.18v.1c0,.48.06.94.19,1.38.13.44.32.82.57,1.15.25.33.57.59.95.78.38.19.82.29,1.32.29.82,0,1.48-.22,1.96-.65.48-.43.81-1.03.99-1.8h.61c-.18.96-.57,1.7-1.18,2.21-.6.51-1.4.77-2.39.77-.61,0-1.14-.11-1.59-.33-.45-.22-.83-.52-1.14-.9-.3-.38-.53-.83-.68-1.34-.15-.52-.22-1.07-.22-1.67s.08-1.13.23-1.66c.15-.53.39-.99.7-1.39.31-.4.7-.72,1.16-.96.46-.24,1.01-.36,1.64-.36.58,0,1.08.11,1.53.32.44.21.81.5,1.11.87.3.37.53.79.68,1.28.15.49.23,1.01.23,1.56,0,.05,0,.11,0,.18,0,.07,0,.13,0,.17h-6.66ZM179.02,239.65c-.02-.45-.1-.87-.22-1.27s-.32-.75-.57-1.06c-.25-.3-.56-.55-.91-.73-.36-.18-.77-.27-1.23-.27-.49,0-.93.09-1.3.28s-.69.43-.95.74c-.26.3-.45.66-.59,1.06-.14.41-.22.82-.26,1.25h6.03Z"/>
        <path class="cls-1" d="M149.17,248.22l2.21,14.78h.06l2.35-14.78h3.86l2.35,14.78h.06l2.21-14.78h3.86l-3.64,19.99h-4.51l-2.24-14.5h-.06l-2.24,14.5h-4.51l-3.64-19.99h3.86Z"/>
        <path class="cls-1" d="M171.65,247.99v3.3h-3.86v-3.3h3.86ZM171.65,253.15v15.06h-3.86v-15.06h3.86Z"/>
        <path class="cls-1" d="M178.37,248.22v19.99h-3.86v-19.99h3.86Z"/>
        <path class="cls-1" d="M185.09,248.22v19.99h-3.86v-19.99h3.86Z"/>
        <path class="cls-1" d="M149.54,276.05c-.02-.49-.13-.92-.31-1.28s-.44-.67-.76-.91c-.32-.25-.7-.43-1.14-.55-.44-.12-.93-.18-1.45-.18-.32,0-.66.04-1.03.11-.37.07-.71.21-1.02.39-.31.19-.57.44-.78.75-.2.31-.3.71-.3,1.18s.11.83.34,1.12.52.52.88.7c.36.18.78.32,1.25.42.47.11.94.21,1.42.3.49.1.97.21,1.43.34.46.13.88.31,1.25.54.37.23.66.53.89.9.22.37.34.83.34,1.38,0,.6-.13,1.1-.38,1.5-.26.41-.58.74-.97.99-.39.26-.82.44-1.3.55-.48.11-.93.17-1.37.17-.67,0-1.3-.07-1.89-.22-.59-.14-1.1-.38-1.54-.7-.44-.33-.78-.74-1.03-1.26-.25-.51-.37-1.14-.36-1.87h.7c-.03.63.06,1.16.27,1.59s.51.79.89,1.06c.38.28.82.48,1.34.6.51.12,1.05.18,1.62.18.34,0,.71-.04,1.1-.13.39-.09.75-.23,1.07-.43s.6-.47.82-.8.33-.75.33-1.25-.11-.87-.34-1.18c-.22-.3-.52-.55-.89-.74-.37-.19-.78-.34-1.25-.45-.46-.11-.94-.22-1.43-.31-.48-.1-.96-.21-1.42-.34s-.89-.3-1.25-.52c-.36-.22-.66-.5-.88-.85s-.34-.79-.34-1.34.11-1.01.34-1.4c.23-.39.53-.7.9-.94.37-.24.78-.42,1.24-.53.46-.11.91-.17,1.36-.17.6,0,1.15.07,1.67.2.52.13.97.34,1.36.62.39.28.7.65.94,1.1.23.45.37.99.4,1.62h-.7Z"/>
        <path class="cls-1" d="M152.27,280.18v.1c0,.48.06.94.19,1.38.13.44.32.82.57,1.15.25.33.57.59.95.78.38.19.82.29,1.32.29.82,0,1.48-.22,1.96-.65.48-.43.81-1.03.99-1.8h.61c-.18.96-.57,1.7-1.18,2.21-.6.51-1.4.77-2.39.77-.61,0-1.14-.11-1.59-.33-.45-.22-.83-.52-1.14-.9-.3-.38-.53-.83-.68-1.34-.15-.52-.22-1.07-.22-1.67s.08-1.13.23-1.66c.15-.53.39-.99.7-1.39.31-.4.7-.72,1.16-.96.46-.24,1.01-.36,1.64-.36.58,0,1.08.11,1.53.32.44.21.81.5,1.11.87.3.37.53.79.68,1.28.15.49.23,1.01.23,1.56,0,.05,0,.11,0,.18,0,.07,0,.13,0,.17h-6.66ZM158.32,279.65c-.02-.45-.1-.87-.22-1.27s-.32-.75-.57-1.06c-.25-.3-.56-.55-.91-.73-.36-.18-.77-.27-1.23-.27-.49,0-.93.09-1.3.28s-.69.43-.95.74c-.26.3-.45.66-.59,1.06-.14.41-.22.82-.26,1.25h6.03Z"/>
        <path class="cls-1" d="M160.96,277.81h.05c.07-.27.21-.52.41-.75.2-.23.44-.44.72-.61.28-.17.6-.3.94-.39s.71-.13,1.08-.12v.61c-.32-.04-.69-.01-1.1.1s-.8.34-1.18.7c-.15.16-.28.31-.39.46s-.21.31-.28.5c-.07.18-.13.38-.18.61-.04.22-.07.49-.08.8v4.5h-.61v-8.22h.61v1.82Z"/>
        <path class="cls-1" d="M168.16,284.21h-.75l-3.31-8.22h.7l2.98,7.52h.03l2.78-7.52h.67l-3.1,8.22Z"/>
        <path class="cls-1" d="M172.27,274.43v-1.65h.61v1.65h-.61ZM172.27,284.21v-8.22h.61v8.22h-.61Z"/>
        <path class="cls-1" d="M181.01,278.53c-.03-.36-.13-.68-.28-.96-.15-.28-.35-.51-.6-.69-.25-.18-.53-.32-.86-.42-.33-.1-.67-.14-1.05-.14-.51,0-.97.1-1.36.31s-.73.49-.99.83c-.27.35-.47.74-.61,1.18-.14.44-.21.9-.21,1.37,0,.55.06,1.07.19,1.54.13.47.33.88.59,1.22.27.35.6.62.99.81.39.19.86.29,1.39.29.38,0,.74-.06,1.06-.19.33-.13.61-.3.86-.53.25-.22.46-.49.62-.81.16-.31.27-.66.32-1.03h.61c-.06.49-.2.93-.4,1.31s-.46.71-.77.97c-.31.26-.66.46-1.06.6-.39.14-.81.21-1.25.21-.67,0-1.25-.12-1.72-.36-.47-.24-.86-.56-1.17-.97-.3-.4-.53-.87-.67-1.4-.14-.53-.22-1.08-.22-1.66s.08-1.12.25-1.63c.17-.51.41-.96.73-1.34.32-.38.71-.69,1.18-.91.47-.22,1.01-.34,1.62-.34.45,0,.87.06,1.26.17.39.11.74.28,1.04.5.3.22.55.51.74.86.19.35.31.75.35,1.21h-.61Z"/>
        <path class="cls-1" d="M183.34,280.18v.1c0,.48.06.94.19,1.38.13.44.32.82.57,1.15.25.33.57.59.95.78.38.19.82.29,1.32.29.82,0,1.48-.22,1.96-.65.48-.43.81-1.03.99-1.8h.61c-.18.96-.57,1.7-1.18,2.21-.6.51-1.4.77-2.39.77-.61,0-1.14-.11-1.59-.33-.45-.22-.83-.52-1.14-.9-.3-.38-.53-.83-.68-1.34-.15-.52-.22-1.07-.22-1.67s.08-1.13.23-1.66c.15-.53.39-.99.7-1.39.31-.4.7-.72,1.16-.96.46-.24,1.01-.36,1.64-.36.58,0,1.08.11,1.53.32.44.21.81.5,1.11.87.3.37.53.79.68,1.28.15.49.23,1.01.23,1.56,0,.05,0,.11,0,.18,0,.07,0,.13,0,.17h-6.66ZM189.39,279.65c-.02-.45-.1-.87-.22-1.27s-.32-.75-.57-1.06c-.25-.3-.56-.55-.91-.73-.36-.18-.77-.27-1.23-.27-.49,0-.93.09-1.3.28s-.69.43-.95.74c-.26.3-.45.66-.59,1.06-.14.41-.22.82-.26,1.25h6.03Z"/>
      </g>
      <g>
        <path class="cls-1" d="M155.93,149.87c0-.84.12-1.61.35-2.32.23-.71.58-1.32,1.04-1.82.46-.5,1.04-.9,1.74-1.19.7-.29,1.51-.43,2.42-.43,1.98,0,3.46.49,4.44,1.47.98.98,1.47,2.29,1.47,3.93,0,.78-.13,1.51-.38,2.18s-.71,1.4-1.39,2.18l-1.12,1.26c-.49.54-.84,1.04-1.05,1.48-.21.45-.32,1.03-.32,1.74v.42h-3.47v-1.09c0-.93.13-1.72.39-2.37.26-.64.71-1.32,1.34-2.03l1.06-1.2c.39-.43.67-.89.83-1.39.16-.49.24-1.02.24-1.58,0-.71-.16-1.28-.48-1.72-.32-.44-.79-.66-1.43-.66-.71,0-1.22.28-1.53.85-.31.57-.46,1.31-.46,2.23v.7h-3.7v-.64ZM163.32,164.31h-3.86v-3.7h3.86v3.7Z"/>
        <path class="cls-6" d="M170.6,150.82v-6.5h3.86v6.5l-.53,7.92h-2.8l-.53-7.92ZM174.46,164.31h-3.86v-3.7h3.86v3.7Z"/>
      </g>
    </g>
  </g>
</svg>