<?xml version="1.0" encoding="UTF-8"?>
<svg id="Layer_2" data-name="Layer 2" xmlns="http://www.w3.org/2000/svg" viewBox="0 0 88.25 118.6">
  <defs>
    <style>
      .cls-1 {
        stroke: #000;
      }

      .cls-1, .cls-2 {
        stroke-miterlimit: 10;
      }

      .cls-1, .cls-3 {
        fill: #fff;
      }

      .cls-2 {
        fill: none;
        stroke: #221f1f;
      }

      .cls-4 {
        opacity: .5;
      }

      .cls-5, .cls-6, .cls-7, .cls-8, .cls-9, .cls-10, .cls-3 {
        stroke-width: 0px;
      }

      .cls-6 {
        fill: #6d6f70;
      }

      .cls-7 {
        fill: #231f20;
      }

      .cls-8 {
        fill: #221f1f;
      }

      .cls-9 {
        fill: #919395;
      }

      .cls-10 {
        fill: #babcbe;
      }
    </style>
  </defs>
  <g id="Layer_4" data-name="Layer 4">
    <g>
      <g>
        <polygon class="cls-6" points="44.21 76.39 20.13 62.44 20.13 34.67 44.21 48.53 44.21 76.39"/>
        <polygon class="cls-10" points="44.21 48.53 44.21 48.53 68.12 34.75 44.21 48.53 20.13 34.67 44.21 20.64 68.12 34.75 44.21 48.53"/>
        <polygon class="cls-9" points="44.21 48.53 44.21 48.53 68.12 34.75 68.12 34.75 68.12 62.44 44.21 76.39 44.21 48.53"/>
      </g>
      <g>
        <path class="cls-5" d="M30.86,105.55h-3.57v2.35h3.36v1.65h-3.36v2.69h3.71v1.65h-5.73v-10h5.59v1.65Z"/>
        <path class="cls-5" d="M36.77,110.74h.03v-6.85h1.85v10h-2.3l-2.46-7h-.03v7h-1.85v-10h2.32l2.44,6.85Z"/>
        <path class="cls-5" d="M45.9,105.55h-2.18v8.34h-2.02v-8.34h-2.18v-1.65h6.38v1.65Z"/>
        <path class="cls-5" d="M46.86,103.9h2.02v10h-2.02v-10Z"/>
        <path class="cls-5" d="M56.23,105.55h-2.18v8.34h-2.02v-8.34h-2.18v-1.65h6.38v1.65Z"/>
        <path class="cls-5" d="M60.02,107.76h.03l1.4-3.86h2.18l-2.59,6.06v3.93h-2.02v-3.93l-2.59-6.06h2.27l1.32,3.86Z"/>
      </g>
      <circle class="cls-2" cx="44.13" cy="48.51" r="34.4"/>
      <g>
        <line class="cls-2" x1="44.13" y1="82.92" x2="44.13" y2="92.5"/>
        <g>
          <path class="cls-3" d="M40.37,92.28c0,2.08,1.68,3.76,3.76,3.76s3.76-1.68,3.76-3.76-1.68-3.76-3.76-3.76-3.76,1.68-3.76,3.76Z"/>
          <path class="cls-8" d="M39.87,92.28c0-2.35,1.91-4.26,4.26-4.26s4.26,1.91,4.26,4.26-1.91,4.26-4.26,4.26-4.26-1.91-4.26-4.26,0,2.35,0,0ZM47.39,92.28c0-1.8-1.46-3.26-3.26-3.26s-3.26,1.46-3.26,3.26,1.46,3.26,3.26,3.26,3.26-1.46,3.26-3.26,0,1.8,0,0Z"/>
        </g>
      </g>
      <g>
        <circle class="cls-1" cx="44.13" cy="10.29" r="9.79"/>
        <path class="cls-5" d="M42.68,4.94l1.43,7.06h.03l1.44-7.06h2.98v10h-1.85v-7.98h-.03l-1.78,7.98h-1.57l-1.78-7.98h-.03v7.98h-1.85V4.94h3Z"/>
      </g>
      <g>
        <g>
          <circle class="cls-1" cx="77.96" cy="67.59" r="9.79"/>
          <path class="cls-5" d="M76.65,69.41c0,.23.02.45.06.64.04.19.11.35.21.48s.24.23.41.31c.17.08.39.11.65.11.31,0,.59-.1.83-.3.25-.2.37-.51.37-.93,0-.22-.03-.42-.09-.58-.06-.16-.16-.31-.3-.44-.14-.13-.32-.25-.55-.36-.23-.11-.51-.22-.85-.33-.45-.15-.84-.31-1.16-.49-.33-.18-.6-.38-.82-.62s-.38-.51-.48-.83c-.1-.31-.15-.67-.15-1.08,0-.99.27-1.73.83-2.21s1.31-.73,2.27-.73c.45,0,.86.05,1.24.15.38.1.7.26.98.48.27.22.49.5.64.84.15.34.23.75.23,1.22v.28h-1.93c0-.48-.08-.84-.25-1.1s-.45-.38-.84-.38c-.22,0-.41.03-.56.1-.15.07-.27.15-.36.26s-.15.23-.18.37c-.03.14-.05.29-.05.43,0,.31.07.57.2.78.13.21.41.4.84.58l1.55.67c.38.17.69.34.94.52.24.18.44.38.58.59.14.21.24.44.3.69s.08.53.08.84c0,1.05-.31,1.82-.92,2.3-.61.48-1.46.72-2.56.72s-1.95-.25-2.44-.74c-.49-.5-.73-1.2-.73-2.13v-.41h2.02v.29Z"/>
        </g>
        <g>
          <circle class="cls-1" cx="10.29" cy="67.59" r="9.79"/>
          <path class="cls-5" d="M10.47,62.24c.41,0,.79.04,1.14.13.35.08.65.22.9.42s.45.46.59.78c.14.33.21.73.21,1.2,0,.54-.13,1.01-.38,1.39-.25.39-.63.65-1.13.79v.03c.56.08,1,.31,1.33.71s.49.94.49,1.61c0,.39-.05.77-.15,1.12s-.28.67-.52.93c-.25.27-.57.48-.97.64-.4.16-.89.24-1.48.24h-3.4v-10h3.37ZM9.69,66.35c.56,0,.97-.1,1.23-.3.26-.2.38-.54.38-1.01s-.12-.81-.35-1.01c-.23-.2-.6-.29-1.11-.29h-.73v2.62h.57ZM9.9,70.76c.49,0,.88-.11,1.18-.32s.45-.61.45-1.19c0-.29-.04-.53-.12-.72s-.19-.35-.32-.46c-.14-.12-.3-.2-.48-.25-.19-.05-.39-.07-.62-.07h-.87v3.01h.78Z"/>
        </g>
      </g>
      <g class="cls-4">
        <g>
          <polygon class="cls-3" points="20.62 62.26 20.62 35.06 43.88 21.5 43.88 75.73 20.62 62.26"/>
          <path class="cls-8" d="M43.63,21.94v53.36l-22.76-13.19v-26.91l22.76-13.26M44.13,21.06l-23.76,13.85v27.49l23.76,13.77V21.06h0Z"/>
        </g>
        <g>
          <polygon class="cls-8" points="44.63 21.84 67.38 35.27 67.38 62.11 44.63 75.39 44.63 21.84"/>
          <path class="cls-7" d="M45.13,22.72l21.75,12.84v26.27s-21.75,12.69-21.75,12.69V22.72M44.21,21.02l-.08.05v55.1l.08.05,23.67-13.81v-27.41s-23.67-13.97-23.67-13.97h0Z"/>
        </g>
      </g>
    </g>
  </g>
</svg>