<?xml version="1.0" encoding="UTF-8"?>
<svg id="Layer_2" data-name="Layer 2" xmlns="http://www.w3.org/2000/svg" xmlns:xlink="http://www.w3.org/1999/xlink" viewBox="0 0 177.6 132.94">
  <defs>
    <style>
      .cls-1 {
        stroke-width: .38px;
      }

      .cls-1, .cls-2, .cls-3 {
        stroke: #231f20;
      }

      .cls-1, .cls-3 {
        fill: #fff;
      }

      .cls-4 {
        fill: url(#Radial_Gradient-3);
      }

      .cls-4, .cls-5, .cls-6, .cls-7, .cls-8, .cls-9, .cls-10, .cls-11 {
        stroke-width: 0px;
      }

      .cls-5 {
        fill: url(#Radial_Gradient-2);
      }

      .cls-2 {
        fill: none;
        stroke-linecap: round;
        stroke-linejoin: round;
        stroke-width: .34px;
      }

      .cls-3 {
        stroke-width: .49px;
      }

      .cls-7 {
        fill: url(#Radial_Gradient);
      }

      .cls-8 {
        fill: #6d6e70;
      }

      .cls-9 {
        fill: #231f20;
      }

      .cls-10 {
        fill: #bbbdbf;
      }

      .cls-11 {
        fill: #929497;
      }
    </style>
    <radialGradient id="Radial_Gradient" data-name="Radial Gradient" cx="-359.01" cy="-343.51" fx="-359.01" fy="-343.51" r="8.31" gradientTransform="translate(-417.26 -54.96) rotate(-120) scale(1 -1)" gradientUnits="userSpaceOnUse">
      <stop offset="0" stop-color="#fff"/>
      <stop offset="1" stop-color="#231f20"/>
    </radialGradient>
    <radialGradient id="Radial_Gradient-2" data-name="Radial Gradient" cx="-387.82" cy="-393.84" fx="-387.82" fy="-393.84" r="9.29" xlink:href="#Radial_Gradient"/>
    <radialGradient id="Radial_Gradient-3" data-name="Radial Gradient" cx="-330.5" cy="-393.56" fx="-330.5" fy="-393.56" r="9.29" xlink:href="#Radial_Gradient"/>
  </defs>
  <g id="Erratta">
    <g>
      <g>
        <path class="cls-6" d="M3.71,100.98v1.2h-1.26v8.34h1.26v1.2H.96v-10.74h2.75Z"/>
        <path class="cls-6" d="M7.27,100.98c.35,0,.68.04.98.11.3.07.56.19.77.36.22.17.38.39.5.67.12.28.18.62.18,1.03,0,.46-.11.86-.32,1.19-.22.33-.54.56-.97.68v.02c.48.06.86.27,1.14.61s.42.8.42,1.38c0,.34-.04.66-.13.96-.09.3-.24.57-.45.8-.21.23-.49.41-.83.55-.34.14-.76.2-1.27.2h-2.92v-8.57h2.89ZM6.6,104.49c.48,0,.83-.09,1.05-.26.22-.17.33-.46.33-.87s-.1-.7-.3-.86-.52-.25-.95-.25h-.62v2.24h.49ZM6.78,108.27c.42,0,.75-.09,1.01-.28.26-.18.38-.52.38-1.02,0-.25-.03-.45-.1-.62-.07-.16-.16-.3-.28-.4-.12-.1-.25-.17-.41-.21-.16-.04-.34-.06-.53-.06h-.74v2.58h.67Z"/>
        <path class="cls-6" d="M10.96,103.47c.06-.55.19-1.02.4-1.41.2-.39.5-.7.88-.92.38-.22.9-.33,1.55-.33s1.16.11,1.55.33c.38.22.68.53.88.92.2.39.34.86.4,1.41.06.55.09,1.15.09,1.79s-.03,1.26-.09,1.8c-.06.54-.19,1.01-.4,1.4-.2.39-.5.69-.88.9-.38.21-.9.31-1.55.31s-1.16-.1-1.55-.31c-.38-.21-.68-.51-.88-.9-.2-.39-.34-.86-.4-1.4-.06-.54-.09-1.14-.09-1.8s.03-1.25.09-1.79ZM12.64,106.73c.03.4.08.73.17.98s.2.44.36.55c.16.12.36.17.62.17s.46-.06.62-.17c.16-.12.28-.3.36-.55s.14-.58.17-.98c.03-.4.04-.89.04-1.47s-.01-1.06-.04-1.46c-.03-.4-.08-.73-.17-.98s-.2-.44-.36-.56c-.16-.12-.36-.17-.62-.17s-.46.06-.62.17c-.16.12-.28.3-.36.56s-.14.58-.17.98c-.03.4-.04.89-.04,1.46s.01,1.07.04,1.47Z"/>
        <path class="cls-6" d="M20.64,100.98c.6,0,1.08.1,1.45.29.37.2.65.48.86.84s.34.8.41,1.31c.07.51.11,1.08.11,1.72,0,.75-.05,1.41-.14,1.96-.09.56-.25,1.01-.47,1.37-.22.36-.52.63-.9.8s-.85.26-1.43.26h-2.72v-8.57h2.83ZM20.3,108.27c.3,0,.55-.05.73-.16.18-.1.33-.28.44-.52.11-.24.18-.56.21-.95.04-.39.05-.88.05-1.46,0-.49-.02-.92-.05-1.28-.03-.37-.1-.67-.2-.92s-.25-.43-.44-.55c-.2-.12-.46-.19-.79-.19h-.73v6.02h.77Z"/>
        <path class="cls-6" d="M26.88,104.29h.02l1.2-3.31h1.87l-2.22,5.2v3.37h-1.73v-3.37l-2.22-5.2h1.94l1.13,3.31Z"/>
        <path class="cls-6" d="M31.34,110.52v-8.34h-1.26v-1.2h2.75v10.74h-2.75v-1.2h1.26Z"/>
      </g>
      <g>
        <path class="cls-6" d="M142.66,100.98v1.2h-1.26v8.34h1.26v1.2h-2.75v-10.74h2.75Z"/>
        <path class="cls-6" d="M144.73,107.12c0,.2.02.38.05.55.03.16.09.3.18.41.09.11.21.2.35.26.15.06.33.1.56.1.26,0,.5-.09.71-.26.21-.17.32-.44.32-.8,0-.19-.03-.36-.08-.5s-.14-.27-.26-.38-.28-.21-.47-.31c-.2-.09-.44-.19-.73-.28-.38-.13-.72-.27-1-.42-.28-.15-.51-.33-.7-.53-.19-.2-.33-.44-.41-.71-.09-.27-.13-.58-.13-.93,0-.85.24-1.48.71-1.9s1.12-.62,1.94-.62c.38,0,.74.04,1.06.13.32.08.6.22.84.41.24.19.42.43.55.72s.2.64.2,1.05v.24h-1.66c0-.41-.07-.72-.22-.94-.14-.22-.38-.33-.72-.33-.19,0-.35.03-.48.08-.13.06-.23.13-.31.22s-.13.2-.16.32c-.03.12-.04.24-.04.37,0,.26.06.49.17.67.11.18.35.35.72.5l1.33.58c.33.14.6.29.8.45s.37.32.5.5.21.38.26.59c.05.22.07.46.07.72,0,.9-.26,1.56-.79,1.97-.53.41-1.25.62-2.19.62s-1.67-.21-2.09-.64-.63-1.03-.63-1.82v-.35h1.73v.25Z"/>
        <path class="cls-6" d="M152.59,100.98c.44,0,.81.07,1.11.22.3.15.54.34.73.58.18.24.32.51.4.82.08.31.12.62.12.94,0,.44-.07.82-.2,1.15-.13.33-.32.6-.55.8s-.52.36-.86.47-.71.16-1.12.16h-.92v3.42h-1.73v-8.57h3.02ZM152.06,104.85c.34,0,.62-.1.83-.31s.32-.53.32-.97-.09-.76-.28-.98c-.18-.22-.49-.34-.92-.34h-.72v2.6h.77Z"/>
        <path class="cls-6" d="M155.88,100.98h1.73v8.57h-1.73v-8.57Z"/>
        <path class="cls-6" d="M162.08,100.98c.72,0,1.28.18,1.68.55.4.36.6.92.6,1.66,0,.58-.12,1.05-.35,1.41-.23.36-.59.6-1.08.7v.02c.43.06.75.2.95.42.2.22.32.56.37,1.04.02.16.03.33.04.52,0,.19.02.4.02.63.02.46.04.8.07,1.04.05.24.15.4.31.49v.07h-1.87c-.09-.12-.14-.26-.17-.41s-.04-.32-.05-.49l-.05-1.64c-.02-.34-.1-.6-.25-.79-.15-.19-.41-.29-.77-.29h-.92v3.62h-1.73v-8.57h3.19ZM161.33,104.72c.42,0,.74-.1.96-.29.22-.2.34-.53.34-.99,0-.79-.4-1.19-1.2-1.19h-.82v2.47h.72Z"/>
        <path class="cls-6" d="M165.64,100.98h1.73v8.57h-1.73v-8.57Z"/>
        <path class="cls-6" d="M173.67,102.39h-1.87v7.15h-1.73v-7.15h-1.87v-1.42h5.47v1.42Z"/>
        <path class="cls-6" d="M175.15,110.52v-8.34h-1.26v-1.2h2.75v10.74h-2.75v-1.2h1.26Z"/>
      </g>
      <g>
        <path class="cls-6" d="M66.6,113.37h-5.35v3.53h5.04v2.48h-5.04v4.03h5.56v2.48h-8.59v-14.99h8.38v2.48Z"/>
        <path class="cls-6" d="M75.46,121.16h.04v-10.27h2.77v14.99h-3.44l-3.7-10.5h-.04v10.5h-2.77v-14.99h3.49l3.65,10.27Z"/>
        <path class="cls-6" d="M89.15,113.37h-3.28v12.52h-3.02v-12.52h-3.28v-2.48h9.58v2.48Z"/>
        <path class="cls-6" d="M90.6,110.89h3.02v14.99h-3.02v-14.99Z"/>
        <path class="cls-6" d="M104.65,113.37h-3.28v12.52h-3.02v-12.52h-3.28v-2.48h9.58v2.48Z"/>
        <path class="cls-6" d="M110.34,116.68h.04l2.1-5.8h3.28l-3.88,9.09v5.9h-3.02v-5.9l-3.88-9.09h3.4l1.97,5.8Z"/>
      </g>
      <g>
        <path class="cls-6" d="M73.55,1.72v1.2h-1.26v8.34h1.26v1.2h-2.75V1.72h2.75Z"/>
        <path class="cls-6" d="M76.83,1.72l1.22,6.05h.02l1.24-6.05h2.56v8.57h-1.58V3.44h-.02l-1.52,6.84h-1.34l-1.52-6.84h-.02v6.84h-1.58V1.72h2.57Z"/>
        <path class="cls-6" d="M83.19,1.72h1.73v8.57h-1.73V1.72Z"/>
        <path class="cls-6" d="M90.28,7.58h.02V1.72h1.58v8.57h-1.97l-2.11-6h-.02v6h-1.58V1.72h1.99l2.09,5.87Z"/>
        <path class="cls-6" d="M96,1.72c.6,0,1.08.1,1.45.29.37.2.65.48.86.84s.34.8.41,1.31c.07.51.11,1.08.11,1.72,0,.75-.05,1.41-.14,1.96-.09.56-.25,1.01-.47,1.37-.22.36-.52.63-.9.8s-.85.26-1.43.26h-2.72V1.72h2.83ZM95.67,9.01c.3,0,.55-.05.73-.16.18-.1.33-.28.44-.52.11-.24.18-.56.21-.95.04-.39.05-.88.05-1.46,0-.49-.02-.92-.05-1.28-.03-.37-.1-.67-.2-.92s-.25-.43-.44-.55c-.2-.12-.46-.19-.79-.19h-.73v6.02h.77Z"/>
        <path class="cls-6" d="M100.71,11.26V2.92h-1.26v-1.2h2.75v10.74h-2.75v-1.2h1.26Z"/>
      </g>
      <g>
        <polygon class="cls-3" points="136.16 100.11 36.84 100.11 86.5 14.09 136.16 100.11"/>
        <g>
          <g>
            <polyline class="cls-2" points="86.54 35.72 86.54 68.76 115.15 85.29"/>
            <line class="cls-2" x1="86.52" y1="68.77" x2="57.72" y2="85.4"/>
          </g>
          <path class="cls-7" d="M54.62,79.7c-3.11,1.79-4.17,5.76-2.38,8.87,1.79,3.1,5.77,4.17,8.87,2.38,3.11-1.79,4.17-5.77,2.38-8.87-1.79-3.1-5.76-4.17-8.87-2.37Z"/>
          <g>
            <path class="cls-5" d="M111.9,79.72c-3.11,1.79-4.17,5.76-2.38,8.87,1.8,3.1,5.77,4.17,8.87,2.37,3.11-1.8,4.17-5.76,2.38-8.87-1.79-3.1-5.77-4.17-8.87-2.38Z"/>
            <path class="cls-4" d="M83.24,30.08c-3.11,1.79-4.17,5.77-2.38,8.87,1.79,3.11,5.76,4.17,8.87,2.38,3.1-1.79,4.17-5.77,2.38-8.87-1.79-3.11-5.77-4.17-8.87-2.38Z"/>
          </g>
        </g>
        <g>
          <polygon class="cls-8" points="86.48 87.8 70.03 78.41 70.11 59.46 86.57 68.86 86.48 87.8"/>
          <g>
            <polygon class="cls-10" points="86.46 68.92 86.45 68.93 101.95 59.98 86.45 68.93 70 59.54 86.54 49.98 102.99 59.38 86.46 68.92"/>
            <polygon class="cls-11" points="86.45 68.92 86.45 68.92 102.99 59.37 102.99 59.38 102.9 78.32 86.36 87.87 86.45 68.92"/>
          </g>
        </g>
        <g>
          <polygon class="cls-1" points="92.8 90.92 86.5 94.56 80.2 90.92 80.2 83.64 86.5 80 92.8 83.64 92.8 90.92"/>
          <path class="cls-9" d="M88.57,84.74h-2.71v1.78h2.55v1.25h-2.55v2.04h2.82v1.25h-4.35v-7.59h4.24v1.25Z"/>
        </g>
      </g>
    </g>
  </g>
</svg>