<?xml version="1.0" encoding="UTF-8"?>
<svg id="Layer_2" data-name="Layer 2" xmlns="http://www.w3.org/2000/svg" viewBox="0 0 69.8 105.14">
  <defs>
    <style>
      .cls-1 {
        fill: none;
        stroke: #221f1f;
        stroke-miterlimit: 10;
      }

      .cls-2, .cls-3, .cls-4, .cls-5, .cls-6, .cls-7 {
        stroke-width: 0px;
      }

      .cls-3 {
        fill: #6d6f70;
      }

      .cls-4 {
        fill: #221f1f;
      }

      .cls-5 {
        fill: #919395;
      }

      .cls-6 {
        fill: #babcbe;
      }

      .cls-7 {
        fill: #fff;
      }
    </style>
  </defs>
  <g id="Layer_4" data-name="Layer 4">
    <g>
      <g>
        <g>
          <polygon class="cls-3" points="34.9 62.76 10.82 48.81 10.82 21.04 34.9 34.9 34.9 62.76"/>
          <polygon class="cls-6" points="34.9 34.9 34.9 34.9 58.81 21.12 34.9 34.9 10.82 21.04 34.9 7.01 58.81 21.12 34.9 34.9"/>
          <polygon class="cls-5" points="34.9 34.9 34.9 34.9 58.81 21.12 58.81 21.12 58.81 48.81 34.9 62.76 34.9 34.9"/>
        </g>
        <circle class="cls-1" cx="34.9" cy="34.9" r="34.4"/>
        <g>
          <line class="cls-1" x1="34.9" y1="69.3" x2="34.9" y2="81.88"/>
          <g>
            <path class="cls-7" d="M31.14,81.66c0,2.08,1.68,3.76,3.76,3.76s3.76-1.68,3.76-3.76-1.68-3.76-3.76-3.76-3.76,1.68-3.76,3.76Z"/>
            <path class="cls-4" d="M30.64,81.66c0-2.35,1.91-4.26,4.26-4.26s4.26,1.91,4.26,4.26-1.91,4.26-4.26,4.26-4.26-1.91-4.26-4.26,0,2.35,0,0ZM38.16,81.66c0-1.8-1.46-3.26-3.26-3.26s-3.26,1.46-3.26,3.26,1.46,3.26,3.26,3.26,3.26-1.46,3.26-3.26,0,1.8,0,0Z"/>
          </g>
        </g>
      </g>
      <g>
        <path class="cls-2" d="M21.64,92.09h-3.57v2.35h3.36v1.65h-3.36v2.69h3.71v1.65h-5.73v-10h5.59v1.65Z"/>
        <path class="cls-2" d="M27.54,97.28h.03v-6.85h1.85v10h-2.3l-2.46-7h-.03v7h-1.85v-10h2.32l2.44,6.85Z"/>
        <path class="cls-2" d="M36.67,92.09h-2.18v8.34h-2.02v-8.34h-2.18v-1.65h6.38v1.65Z"/>
        <path class="cls-2" d="M37.64,90.44h2.02v10h-2.02v-10Z"/>
        <path class="cls-2" d="M47,92.09h-2.18v8.34h-2.02v-8.34h-2.18v-1.65h6.38v1.65Z"/>
        <path class="cls-2" d="M50.8,94.3h.03l1.4-3.86h2.18l-2.59,6.06v3.93h-2.02v-3.93l-2.59-6.06h2.27l1.32,3.86Z"/>
      </g>
    </g>
  </g>
</svg>