<?xml version="1.0" encoding="UTF-8"?>
<svg id="Layer_2" data-name="Layer 2" xmlns="http://www.w3.org/2000/svg" viewBox="0 0 69.56 80.87">
  <defs>
    <style>
      .cls-1 {
        fill: #7c0000;
      }

      .cls-1, .cls-2, .cls-3, .cls-4, .cls-5, .cls-6, .cls-7, .cls-8, .cls-9, .cls-10, .cls-11, .cls-12, .cls-13, .cls-14, .cls-15, .cls-16, .cls-17, .cls-18, .cls-19, .cls-20, .cls-21 {
        stroke-width: 0px;
      }

      .cls-2 {
        fill: #7d10de;
      }

      .cls-3 {
        fill: #490e7e;
      }

      .cls-4 {
        fill: #480000;
      }

      .cls-5 {
        fill: #95580e;
      }

      .cls-6 {
        fill: #07ccce;
      }

      .cls-7 {
        fill: #1000c5;
      }

      .cls-8 {
        fill: #090070;
      }

      .cls-9 {
        fill: #057475;
      }

      .cls-10 {
        fill: #09ffff;
      }

      .cls-11 {
        fill: #1400fa;
      }

      .cls-12 {
        fill: #a00000;
      }

      .cls-13 {
        fill: #a117fa;
      }

      .cls-14 {
        fill: #951e05;
      }

      .cls-15 {
        fill: #fec820;
      }

      .cls-16 {
        fill: #ff410a;
      }

      .cls-17 {
        fill: #ff3108;
      }

      .cls-18 {
        fill: #fe9918;
      }

      .cls-19 {
        fill: #00430a;
      }

      .cls-20 {
        fill: #009318;
      }

      .cls-21 {
        fill: #007312;
      }
    </style>
  </defs>
  <g id="Erratta">
    <g>
      <g>
        <polygon class="cls-2" points="46.38 6.74 34.84 0 23.29 6.74 34.84 13.48 46.38 6.74"/>
        <polygon class="cls-13" points="23.29 20.22 23.29 6.74 34.84 13.48 34.84 26.96 23.29 20.22"/>
        <polygon class="cls-3" points="34.84 26.96 34.84 13.48 34.84 13.48 46.38 6.74 46.38 20.22 34.84 26.96"/>
      </g>
      <g>
        <polygon class="cls-7" points="69.56 20.22 58.01 13.48 46.47 20.22 58.01 26.96 69.56 20.22"/>
        <polygon class="cls-11" points="46.47 33.7 46.47 20.22 58.01 26.96 58.01 40.44 46.47 33.7"/>
        <polygon class="cls-8" points="58.01 40.44 58.01 26.96 58.01 26.96 69.56 20.22 69.56 33.7 58.01 40.44"/>
      </g>
      <g>
        <polygon class="cls-6" points="11.86 40.18 23.47 33.55 23.41 20.18 11.8 26.81 11.86 40.18"/>
        <polygon class="cls-10" points="11.74 13.44 23.41 20.18 11.8 26.81 .13 20.07 11.74 13.44"/>
        <polygon class="cls-9" points=".13 20.07 11.8 26.81 11.8 26.81 11.86 40.18 .19 33.44 .13 20.07"/>
      </g>
      <g>
        <polygon class="cls-21" points="46.38 33.54 34.84 26.81 23.29 33.54 34.84 40.29 46.38 33.54"/>
        <polygon class="cls-20" points="23.29 47.02 23.29 33.54 34.84 40.29 34.84 53.76 23.29 47.02"/>
        <polygon class="cls-19" points="34.84 53.76 34.84 40.29 34.84 40.29 46.38 33.54 46.38 47.02 34.84 53.76"/>
      </g>
      <g>
        <polygon class="cls-18" points="57.86 67.13 69.52 60.58 69.56 47.21 57.9 53.76 57.86 67.13"/>
        <polygon class="cls-15" points="57.93 40.39 69.56 47.21 57.9 53.76 46.28 46.93 57.93 40.39"/>
        <polygon class="cls-5" points="46.28 46.93 57.9 53.76 57.9 53.76 57.86 67.13 46.24 60.3 46.28 46.93"/>
      </g>
      <g>
        <polygon class="cls-17" points="11.74 66.97 23.35 60.34 23.28 46.97 11.67 53.6 11.74 66.97"/>
        <polygon class="cls-16" points="11.61 40.23 23.28 46.97 11.67 53.6 0 46.86 11.61 40.23"/>
        <polygon class="cls-14" points="0 46.86 11.67 53.6 11.67 53.6 11.74 66.97 .06 60.23 0 46.86"/>
      </g>
      <g>
        <polygon class="cls-1" points="46.38 60.65 34.84 53.92 23.29 60.65 34.84 67.39 46.38 60.65"/>
        <polygon class="cls-12" points="23.29 74.13 23.29 60.65 34.84 67.39 34.84 80.87 23.29 74.13"/>
        <polygon class="cls-4" points="34.84 80.87 34.84 67.39 34.84 67.39 46.38 60.65 46.38 74.13 34.84 80.87"/>
      </g>
    </g>
  </g>
</svg>