<?xml version="1.0" encoding="UTF-8"?>
<svg id="Layer_2" data-name="Layer 2" xmlns="http://www.w3.org/2000/svg" viewBox="0 0 75.98 113.59">
  <defs>
    <style>
      .cls-1 {
        fill: none;
        stroke: #221f1f;
        stroke-miterlimit: 10;
      }

      .cls-2, .cls-3, .cls-4, .cls-5, .cls-6, .cls-7, .cls-8 {
        stroke-width: 0px;
      }

      .cls-3 {
        fill: #6d6f70;
      }

      .cls-4 {
        fill: #444445;
      }

      .cls-5 {
        fill: #221f1f;
      }

      .cls-6 {
        fill: #919395;
      }

      .cls-7 {
        fill: #babcbe;
      }

      .cls-8 {
        fill: #fff;
      }
    </style>
  </defs>
  <g id="Layer_4" data-name="Layer 4">
    <g>
      <g>
        <g>
          <line class="cls-1" x1="37.85" y1="43.51" x2="37.85" y2="4.05"/>
          <g>
            <path class="cls-8" d="M41.61,4.26c0-2.08-1.68-3.76-3.76-3.76s-3.76,1.68-3.76,3.76,1.68,3.76,3.76,3.76,3.76-1.68,3.76-3.76Z"/>
            <path class="cls-5" d="M42.11,4.26c0,2.35-1.91,4.26-4.26,4.26s-4.26-1.91-4.26-4.26,1.91-4.26,4.26-4.26,4.26,1.91,4.26,4.26,0-2.35,0,0ZM34.59,4.26c0,1.8,1.46,3.26,3.26,3.26s3.26-1.46,3.26-3.26-1.46-3.26-3.26-3.26-3.26,1.46-3.26,3.26,0-1.8,0,0Z"/>
          </g>
        </g>
        <g>
          <line class="cls-1" x1="37.85" y1="43.51" x2="4.08" y2="63.62"/>
          <g>
            <path class="cls-8" d="M2.34,60.29c-1.78,1.06-2.37,3.37-1.31,5.15,1.06,1.78,3.37,2.37,5.15,1.31s2.37-3.37,1.31-5.15-3.37-2.37-5.15-1.31Z"/>
            <path class="cls-5" d="M2.08,59.86c2.02-1.2,4.64-.54,5.84,1.48s.54,4.64-1.48,5.84c-2.02,1.2-4.64.54-5.84-1.48-1.2-2.02-.54-4.64,1.48-5.84,2.02-1.2-2.02,1.2,0,0ZM5.93,66.32c1.54-.92,2.05-2.92,1.13-4.47-.92-1.54-2.92-2.05-4.47-1.13-1.54.92-2.05,2.92-1.13,4.47.92,1.54,2.92,2.05,4.47,1.13,1.54-.92-1.54.92,0,0Z"/>
          </g>
        </g>
        <g>
          <line class="cls-1" x1="37.85" y1="43.51" x2="71.91" y2="63.64"/>
          <g>
            <path class="cls-8" d="M69.81,66.77c1.79,1.06,4.09.46,5.15-1.32s.46-4.09-1.32-5.15c-1.79-1.06-4.09-.46-5.15,1.32-1.06,1.79-.46,4.09,1.32,5.15Z"/>
            <path class="cls-5" d="M69.56,67.2c-2.02-1.19-2.7-3.81-1.5-5.83,1.19-2.02,3.81-2.7,5.83-1.5,2.02,1.19,2.7,3.81,1.5,5.83-1.19,2.02-3.81,2.7-5.83,1.5-2.02-1.19,2.02,1.19,0,0ZM73.38,60.72c-1.55-.91-3.55-.4-4.46,1.15-.91,1.55-.4,3.55,1.15,4.46,1.55.91,3.55.4,4.46-1.15.91-1.55.4-3.55-1.15-4.46-1.55-.91,1.55.91,0,0Z"/>
          </g>
        </g>
      </g>
      <g>
        <path class="cls-2" d="M20.23,98.89h2.02v10h-2.02v-10Z"/>
        <path class="cls-2" d="M28.5,105.74h.03v-6.85h1.85v10h-2.3l-2.46-7h-.03v7h-1.85v-10h2.32l2.44,6.85Z"/>
        <path class="cls-2" d="M33.4,106.06c0,.23.02.45.06.64.04.19.11.35.21.48s.24.23.41.31c.17.08.39.11.65.11.31,0,.58-.1.83-.3.25-.2.37-.51.37-.93,0-.22-.03-.42-.09-.58-.06-.16-.16-.31-.3-.44-.14-.13-.32-.25-.55-.36-.23-.11-.51-.22-.85-.33-.45-.15-.84-.31-1.16-.49-.33-.18-.6-.38-.82-.62-.22-.24-.38-.51-.48-.83-.1-.31-.15-.67-.15-1.08,0-.99.28-1.73.83-2.21.55-.49,1.31-.73,2.27-.73.45,0,.86.05,1.24.15s.7.26.98.48c.28.22.49.5.64.84.15.34.23.75.23,1.22v.28h-1.93c0-.48-.08-.84-.25-1.1s-.45-.38-.84-.38c-.22,0-.41.03-.56.1-.15.07-.27.15-.36.26-.09.11-.15.23-.18.37-.03.14-.05.29-.05.43,0,.31.07.57.2.78s.41.4.84.58l1.55.67c.38.17.7.34.94.52.24.18.44.38.58.59.14.21.25.44.3.69s.08.53.08.84c0,1.05-.31,1.82-.92,2.3-.61.48-1.46.72-2.55.72s-1.95-.25-2.44-.74-.74-1.2-.74-2.13v-.41h2.02v.29Z"/>
        <path class="cls-2" d="M39.14,98.89h2.02v10h-2.02v-10Z"/>
        <path class="cls-2" d="M46.06,98.89c.7,0,1.26.11,1.69.34.43.23.76.56,1,.98s.4.94.48,1.53c.08.6.13,1.26.13,2,0,.88-.05,1.64-.16,2.29-.11.65-.29,1.18-.55,1.6-.26.42-.61.73-1.05.94-.44.21-.99.31-1.67.31h-3.18v-10h3.3ZM45.67,107.41c.35,0,.64-.06.85-.18.21-.12.38-.32.51-.6.13-.28.21-.65.25-1.11s.06-1.03.06-1.71c0-.57-.02-1.07-.06-1.5-.04-.43-.11-.79-.23-1.07-.12-.28-.29-.5-.52-.64s-.53-.22-.92-.22h-.85v7.03h.9Z"/>
        <path class="cls-2" d="M56.28,100.55h-3.57v2.35h3.36v1.65h-3.36v2.69h3.71v1.65h-5.73v-10h5.59v1.65Z"/>
      </g>
      <g>
        <path class="cls-4" d="M38.08,15.99c15.18,0,27.53,12.35,27.53,27.53s-12.35,27.53-27.53,27.53-27.53-12.35-27.53-27.53,12.35-27.53,27.53-27.53M38.08,14.99c-15.76,0-28.53,12.77-28.53,28.53s12.77,28.53,28.53,28.53,28.53-12.77,28.53-28.53-12.77-28.53-28.53-28.53h0Z"/>
        <polygon class="cls-7" points="38.08 34.22 38.08 34.22 61.99 20.44 38.08 34.22 14 20.37 38.08 6.33 61.99 20.44 38.08 34.22"/>
        <polygon class="cls-3" points="28.08 77.08 4 63.13 4 35.37 28.08 49.22 28.08 77.08"/>
        <polygon class="cls-6" points="48.08 49.22 48.08 49.22 71.99 35.44 71.99 35.44 71.99 63.13 48.08 77.08 48.08 49.22"/>
        <g>
          <line class="cls-1" x1="38.08" y1="91.53" x2="38.08" y2="71.4"/>
          <g>
            <path class="cls-8" d="M41.84,91.31c0,2.08-1.68,3.76-3.76,3.76s-3.76-1.68-3.76-3.76,1.68-3.76,3.76-3.76,3.76,1.68,3.76,3.76Z"/>
            <path class="cls-5" d="M42.34,91.31c0-2.35-1.91-4.26-4.26-4.26s-4.26,1.91-4.26,4.26,1.91,4.26,4.26,4.26,4.26-1.91,4.26-4.26,0,2.35,0,0ZM34.82,91.31c0-1.8,1.46-3.26,3.26-3.26s3.26,1.46,3.26,3.26-1.46,3.26-3.26,3.26-3.26-1.46-3.26-3.26,0,1.8,0,0Z"/>
          </g>
        </g>
      </g>
    </g>
  </g>
</svg>