<?xml version="1.0" encoding="UTF-8"?>
<svg id="Layer_2" data-name="Layer 2" xmlns="http://www.w3.org/2000/svg" viewBox="0 0 79.77 113.75">
  <defs>
    <style>
      .cls-1 {
        fill: none;
        stroke: #221f1f;
        stroke-miterlimit: 10;
      }

      .cls-2, .cls-3, .cls-4, .cls-5, .cls-6, .cls-7 {
        stroke-width: 0px;
      }

      .cls-3 {
        fill: #6d6f70;
      }

      .cls-4 {
        fill: #221f1f;
      }

      .cls-5 {
        fill: #919395;
      }

      .cls-6 {
        fill: #babcbe;
      }

      .cls-7 {
        fill: #fff;
      }
    </style>
  </defs>
  <g id="Layer_4" data-name="Layer 4">
    <g>
      <circle class="cls-1" cx="39.88" cy="43.51" r="39.38"/>
      <g>
        <g>
          <line class="cls-1" x1="39.74" y1="16.62" x2="39.74" y2="4.05"/>
          <g>
            <path class="cls-7" d="M43.5,4.26c0-2.08-1.68-3.76-3.76-3.76s-3.76,1.68-3.76,3.76,1.68,3.76,3.76,3.76,3.76-1.68,3.76-3.76Z"/>
            <path class="cls-4" d="M44,4.26c0,2.35-1.91,4.26-4.26,4.26s-4.26-1.91-4.26-4.26,1.91-4.26,4.26-4.26,4.26,1.91,4.26,4.26,0-2.35,0,0ZM36.48,4.26c0,1.8,1.46,3.26,3.26,3.26s3.26-1.46,3.26-3.26-1.46-3.26-3.26-3.26-3.26,1.46-3.26,3.26,0-1.8,0,0Z"/>
          </g>
        </g>
        <g>
          <line class="cls-1" x1="16.88" y1="57.38" x2="5.99" y2="63.67"/>
          <g>
            <path class="cls-7" d="M4.3,60.31c-1.8,1.04-2.41,3.34-1.38,5.14s3.34,2.41,5.14,1.38,2.41-3.34,1.38-5.14-3.34-2.41-5.14-1.38Z"/>
            <path class="cls-4" d="M4.05,59.88c2.03-1.17,4.64-.47,5.82,1.56s.47,4.64-1.56,5.82c-2.03,1.17-4.64.47-5.82-1.56s-.47-4.64,1.56-5.82c2.03-1.17-2.03,1.17,0,0ZM7.81,66.39c1.56-.9,2.09-2.9,1.19-4.45s-2.9-2.09-4.45-1.19-2.09,2.9-1.19,4.45,2.9,2.09,4.45,1.19-1.56.9,0,0Z"/>
          </g>
        </g>
        <g>
          <line class="cls-1" x1="62.89" y1="57.38" x2="73.78" y2="63.67"/>
          <g>
            <path class="cls-7" d="M71.71,66.82c1.8,1.04,4.1.42,5.14-1.38s.42-4.1-1.38-5.14c-1.8-1.04-4.1-.42-5.14,1.38s-.42,4.1,1.38,5.14Z"/>
            <path class="cls-4" d="M71.46,67.25c-2.03-1.17-2.73-3.78-1.56-5.82s3.78-2.73,5.82-1.56c2.03,1.17,2.73,3.78,1.56,5.82s-3.79,2.73-5.82,1.56c-2.03-1.17,2.03,1.17,0,0ZM75.22,60.74c-1.56-.9-3.55-.36-4.45,1.19s-.36,3.55,1.19,4.45,3.55.36,4.45-1.19.36-3.55-1.19-4.45,1.56.9,0,0Z"/>
          </g>
        </g>
        <polygon class="cls-6" points="39.74 43.51 39.74 43.51 63.65 29.73 39.74 43.51 15.66 29.66 39.74 15.62 63.65 29.73 39.74 43.51"/>
        <polygon class="cls-3" points="39.74 71.38 15.66 57.42 15.66 29.66 39.74 43.51 39.74 71.38"/>
        <polygon class="cls-5" points="39.74 43.51 39.74 43.51 63.65 29.73 63.65 29.73 63.65 57.42 39.74 71.38 39.74 43.51"/>
      </g>
      <g>
        <line class="cls-1" x1="39.88" y1="82.95" x2="39.88" y2="91.53"/>
        <g>
          <path class="cls-7" d="M36.12,91.31c0,2.08,1.68,3.76,3.76,3.76s3.76-1.68,3.76-3.76-1.68-3.76-3.76-3.76-3.76,1.68-3.76,3.76Z"/>
          <path class="cls-4" d="M35.62,91.31c0-2.35,1.91-4.26,4.26-4.26s4.26,1.91,4.26,4.26-1.91,4.26-4.26,4.26-4.26-1.91-4.26-4.26,0,2.35,0,0ZM43.14,91.31c0-1.8-1.46-3.26-3.26-3.26s-3.26,1.46-3.26,3.26,1.46,3.26,3.26,3.26,3.26-1.46,3.26-3.26,0,1.8,0,0Z"/>
        </g>
      </g>
      <g>
        <path class="cls-2" d="M16.64,101.95c.07-.64.22-1.19.46-1.65.24-.46.58-.81,1.03-1.07s1.05-.39,1.81-.39,1.36.13,1.81.39.79.61,1.03,1.07c.24.46.39,1.01.46,1.65.07.64.1,1.34.1,2.09s-.04,1.47-.1,2.1c-.07.63-.22,1.18-.46,1.64-.24.46-.58.81-1.03,1.05s-1.05.36-1.81.36-1.36-.12-1.81-.36-.79-.59-1.03-1.05c-.24-.46-.39-1-.46-1.64-.07-.63-.1-1.33-.1-2.1s.04-1.45.1-2.09ZM18.6,105.76c.03.47.1.85.2,1.15s.24.51.42.64c.18.14.42.2.72.2s.54-.07.72-.2c.18-.13.32-.35.42-.64.1-.29.16-.68.2-1.15.03-.47.05-1.04.05-1.71s-.02-1.24-.05-1.71c-.03-.47-.1-.85-.2-1.15-.1-.3-.24-.52-.42-.65-.18-.14-.42-.2-.72-.2s-.54.07-.72.2-.32.35-.42.65c-.1.3-.16.68-.2,1.15-.03.47-.05,1.04-.05,1.71s.02,1.24.05,1.71Z"/>
        <path class="cls-2" d="M26.42,106.02c0,.25.02.48.05.69.03.21.09.39.18.55.09.15.21.28.36.36.15.09.35.13.58.13s.44-.04.59-.13c.15-.09.27-.21.36-.36s.15-.34.18-.55c.03-.21.05-.44.05-.69v-6.97h2.02v6.97c0,.63-.09,1.16-.27,1.58-.18.42-.42.74-.71.99s-.64.41-1.02.49-.78.13-1.19.13-.81-.04-1.19-.11-.72-.23-1.02-.46-.54-.55-.71-.97-.27-.97-.27-1.64v-6.97h2.02v6.97Z"/>
        <path class="cls-2" d="M37.91,100.7h-2.18v8.34h-2.02v-8.34h-2.18v-1.65h6.38v1.65Z"/>
        <path class="cls-2" d="M40.4,106.22c0,.23.02.45.06.64.04.19.11.35.21.48s.24.23.41.31c.17.08.39.11.65.11.31,0,.58-.1.83-.3.25-.2.37-.51.37-.93,0-.22-.03-.42-.09-.58-.06-.16-.16-.31-.3-.44-.14-.13-.32-.25-.55-.36-.23-.11-.51-.22-.85-.33-.45-.15-.84-.31-1.16-.49-.33-.18-.6-.38-.82-.62-.22-.24-.38-.51-.48-.83-.1-.31-.15-.67-.15-1.08,0-.99.28-1.73.83-2.21.55-.49,1.31-.73,2.27-.73.45,0,.86.05,1.24.15s.7.26.98.48c.28.22.49.5.64.84.15.34.23.75.23,1.22v.28h-1.93c0-.48-.08-.84-.25-1.1s-.45-.38-.84-.38c-.22,0-.41.03-.56.1-.15.07-.27.15-.36.26-.09.11-.15.23-.18.37-.03.14-.05.29-.05.43,0,.31.07.57.2.78s.41.4.84.58l1.55.67c.38.17.7.34.94.52.24.18.44.38.58.59.14.21.25.44.3.69s.08.53.08.84c0,1.05-.31,1.82-.92,2.3-.61.48-1.46.72-2.55.72s-1.95-.25-2.44-.74-.74-1.2-.74-2.13v-.41h2.02v.29Z"/>
        <path class="cls-2" d="M46.14,99.05h2.02v10h-2.02v-10Z"/>
        <path class="cls-2" d="M53.06,99.05c.7,0,1.26.11,1.69.34.43.23.76.56,1,.98s.4.94.48,1.53c.08.6.13,1.26.13,2,0,.88-.05,1.64-.16,2.29-.11.65-.29,1.18-.55,1.6-.26.42-.61.73-1.05.94-.44.21-.99.31-1.67.31h-3.18v-10h3.3ZM52.67,107.56c.35,0,.64-.06.85-.18.21-.12.38-.32.51-.6.13-.28.21-.65.25-1.11s.06-1.03.06-1.71c0-.57-.02-1.07-.06-1.5-.04-.43-.11-.79-.23-1.07-.12-.28-.29-.5-.52-.64s-.53-.22-.92-.22h-.85v7.03h.9Z"/>
        <path class="cls-2" d="M63.28,100.7h-3.57v2.35h3.36v1.65h-3.36v2.69h3.71v1.65h-5.73v-10h5.59v1.65Z"/>
      </g>
    </g>
  </g>
</svg>