<?xml version="1.0" encoding="UTF-8"?>
<svg id="Layer_2" data-name="Layer 2" xmlns="http://www.w3.org/2000/svg" xmlns:xlink="http://www.w3.org/1999/xlink" viewBox="0 0 236.16 209.42">
  <defs>
    <style>
      .cls-1 {
        filter: url(#drop-shadow-2);
      }

      .cls-2 {
        filter: url(#drop-shadow-3);
      }

      .cls-3 {
        filter: url(#drop-shadow-1);
        opacity: .5;
      }

      .cls-4, .cls-5, .cls-6, .cls-7, .cls-8, .cls-9, .cls-10, .cls-11, .cls-12, .cls-13 {
        stroke-width: 0px;
      }

      .cls-5 {
        fill: #6d6e70;
      }

      .cls-6 {
        fill: #1a1a1a;
      }

      .cls-7 {
        fill: #404040;
      }

      .cls-8 {
        fill: #bbbdbf;
      }

      .cls-9 {
        fill: #c2c2c2;
      }

      .cls-10 {
        fill: #929497;
      }

      .cls-11 {
        fill: #686868;
      }

      .cls-12 {
        fill: #fff;
      }

      .cls-13 {
        fill: #e8e8e8;
      }
    </style>
    <filter id="drop-shadow-1" filterUnits="userSpaceOnUse">
      <feOffset dx="0" dy="5.04"/>
      <feGaussianBlur result="blur" stdDeviation="5"/>
      <feFlood flood-color="#000" flood-opacity=".75"/>
      <feComposite in2="blur" operator="in"/>
      <feComposite in="SourceGraphic"/>
    </filter>
    <filter id="drop-shadow-2" filterUnits="userSpaceOnUse">
      <feOffset dx="0" dy="5.04"/>
      <feGaussianBlur result="blur-2" stdDeviation="5"/>
      <feFlood flood-color="#000" flood-opacity=".75"/>
      <feComposite in2="blur-2" operator="in"/>
      <feComposite in="SourceGraphic"/>
    </filter>
    <filter id="drop-shadow-3" filterUnits="userSpaceOnUse">
      <feOffset dx="0" dy="5.04"/>
      <feGaussianBlur result="blur-3" stdDeviation="5"/>
      <feFlood flood-color="#000" flood-opacity=".75"/>
      <feComposite in2="blur-3" operator="in"/>
      <feComposite in="SourceGraphic"/>
    </filter>
  </defs>
  <g id="Matrix">
    <g>
      <g>
        <path class="cls-4" d="M98.91,2.27v1.58h-1.66v11.01h1.66v1.58h-3.63V2.27h3.63Z"/>
        <path class="cls-4" d="M103.23,2.27l1.62,7.98h.03l1.63-7.98h3.37v11.31h-2.09V4.55h-.03l-2.01,9.03h-1.77l-2.01-9.03h-.03v9.03h-2.09V2.27h3.39Z"/>
        <path class="cls-4" d="M111.63,2.27h2.28v11.31h-2.28V2.27Z"/>
        <path class="cls-4" d="M120.99,10.01h.03V2.27h2.09v11.31h-2.6l-2.79-7.92h-.03v7.92h-2.09V2.27h2.63l2.76,7.75Z"/>
        <path class="cls-4" d="M128.55,2.27c.79,0,1.43.13,1.92.39.49.26.86.63,1.13,1.11.27.48.45,1.06.55,1.73.1.68.14,1.43.14,2.27,0,.99-.06,1.86-.18,2.59-.12.73-.33,1.34-.63,1.81s-.69.83-1.19,1.06c-.5.23-1.12.35-1.88.35h-3.6V2.27h3.74ZM128.1,11.9c.4,0,.72-.07.97-.21.24-.14.44-.36.58-.68.14-.32.24-.73.29-1.25.05-.52.07-1.16.07-1.93,0-.64-.02-1.21-.06-1.69-.04-.49-.13-.89-.26-1.21-.13-.32-.33-.56-.59-.73-.26-.16-.6-.25-1.04-.25h-.97v7.95h1.01Z"/>
        <path class="cls-4" d="M134.75,14.86V3.85h-1.66v-1.58h3.63v14.18h-3.63v-1.58h1.66Z"/>
        <path class="cls-4" d="M100.73,19.16h-1.44v5.51h-1.33v-5.51h-1.44v-1.09h4.21v1.09Z"/>
        <path class="cls-4" d="M102.64,18.07v2.52h1.55v-2.52h1.33v6.6h-1.33v-2.93h-1.55v2.93h-1.33v-6.6h1.33Z"/>
        <path class="cls-4" d="M106.37,19.98c.05-.42.15-.78.31-1.09.16-.3.38-.54.68-.71.3-.17.69-.25,1.19-.25s.9.08,1.19.25.52.41.68.71c.16.3.26.66.31,1.09.05.42.07.88.07,1.38s-.02.97-.07,1.39c-.05.42-.15.78-.31,1.08-.16.3-.38.53-.68.69s-.69.24-1.19.24-.9-.08-1.19-.24c-.3-.16-.52-.39-.68-.69-.16-.3-.26-.66-.31-1.08-.05-.42-.07-.88-.07-1.39s.02-.96.07-1.38ZM107.67,22.5c.02.31.06.56.13.76.06.19.16.34.28.43s.28.13.48.13.36-.04.48-.13c.12-.09.21-.23.28-.43.06-.19.11-.45.13-.76.02-.31.03-.69.03-1.13s-.01-.82-.03-1.13-.07-.56-.13-.76-.16-.34-.28-.43c-.12-.09-.28-.13-.48-.13s-.36.04-.48.13-.21.23-.28.43c-.06.2-.11.45-.13.76-.02.31-.03.68-.03,1.13s.01.82.03,1.13Z"/>
        <path class="cls-4" d="M112.83,22.67c0,.17.01.32.03.46.02.14.06.26.12.36.06.1.14.18.24.24.1.06.23.09.38.09s.29-.03.39-.09c.1-.06.18-.14.24-.24s.1-.22.12-.36.03-.29.03-.46v-4.6h1.33v4.6c0,.42-.06.77-.17,1.04-.12.27-.27.49-.47.65s-.42.27-.67.32c-.25.06-.51.08-.79.08s-.53-.02-.79-.07-.48-.15-.67-.3-.35-.37-.47-.64c-.12-.28-.18-.64-.18-1.08v-4.6h1.33v4.6Z"/>
        <path class="cls-4" d="M119.44,19.65c-.03-.13-.07-.25-.13-.36s-.14-.2-.24-.27c-.09-.07-.21-.11-.35-.11-.32,0-.55.18-.69.54-.14.36-.21.95-.21,1.77,0,.39.01.75.04,1.07s.07.59.13.82c.07.23.16.4.28.52s.28.18.47.18c.08,0,.17-.02.26-.06.09-.04.18-.11.27-.19.08-.09.15-.2.21-.33.06-.13.08-.29.08-.47v-.67h-.88v-.98h2.15v3.56h-.98v-.61h-.02c-.16.26-.35.44-.58.55-.23.11-.5.16-.81.16-.41,0-.74-.07-.99-.21-.26-.14-.46-.36-.6-.66-.15-.3-.24-.66-.29-1.09-.05-.43-.07-.94-.07-1.51s.04-1.04.11-1.46c.07-.42.19-.77.36-1.05.17-.28.4-.49.68-.63.28-.14.64-.21,1.06-.21.73,0,1.25.18,1.57.54s.48.88.48,1.55h-1.28c0-.12-.01-.25-.04-.38Z"/>
        <path class="cls-4" d="M123.02,18.07v2.52h1.55v-2.52h1.33v6.6h-1.33v-2.93h-1.55v2.93h-1.33v-6.6h1.33Z"/>
        <path class="cls-4" d="M130.69,19.16h-1.44v5.51h-1.33v-5.51h-1.44v-1.09h4.21v1.09Z"/>
        <path class="cls-4" d="M132.33,22.8c0,.15.01.29.04.42.03.13.07.23.14.32.07.09.16.15.27.2.11.05.26.07.43.07.2,0,.39-.07.55-.2.16-.13.25-.34.25-.61,0-.15-.02-.28-.06-.38-.04-.11-.11-.2-.2-.29-.09-.09-.21-.16-.36-.24-.15-.07-.34-.14-.56-.22-.3-.1-.55-.21-.77-.32s-.4-.25-.54-.41c-.14-.16-.25-.34-.32-.55-.07-.21-.1-.44-.1-.72,0-.65.18-1.14.54-1.46s.86-.48,1.5-.48c.3,0,.57.03.82.1.25.06.46.17.65.31.18.14.32.33.42.55.1.23.15.49.15.81v.18h-1.28c0-.31-.06-.56-.17-.73-.11-.17-.3-.25-.55-.25-.15,0-.27.02-.37.06-.1.04-.18.1-.24.17s-.1.15-.12.25c-.02.09-.03.19-.03.29,0,.2.04.37.13.51.09.14.27.27.55.38l1.03.44c.25.11.46.23.62.35s.29.25.38.39c.1.14.16.29.2.46.04.17.05.35.05.55,0,.7-.2,1.2-.6,1.52s-.97.48-1.69.48-1.29-.16-1.61-.49c-.32-.33-.49-.79-.49-1.4v-.27h1.33v.19Z"/>
      </g>
      <g>
        <path class="cls-4" d="M4.89,129.47v1.58h-1.66v11.01h1.66v1.58H1.27v-14.18h3.63Z"/>
        <path class="cls-4" d="M9.6,129.47c.46,0,.9.05,1.29.14.4.09.74.25,1.02.48s.51.52.67.89c.16.37.24.82.24,1.36,0,.61-.14,1.14-.43,1.58-.29.44-.71.74-1.28.9v.03c.63.08,1.14.35,1.5.81.37.45.55,1.06.55,1.82,0,.44-.06.87-.17,1.27-.12.4-.31.75-.59,1.05-.28.3-.64.54-1.09.72s-1.01.27-1.67.27h-3.85v-11.31h3.82ZM8.71,134.11c.63,0,1.1-.11,1.39-.34s.44-.61.44-1.15-.13-.92-.4-1.14c-.26-.22-.68-.33-1.25-.33h-.82v2.96h.65ZM8.95,139.1c.55,0,.99-.12,1.33-.36.34-.24.51-.69.51-1.35,0-.33-.04-.6-.13-.82-.09-.22-.21-.39-.36-.52-.15-.13-.34-.22-.55-.28-.21-.05-.44-.08-.7-.08h-.98v3.41h.89Z"/>
        <path class="cls-4" d="M14.47,132.76c.08-.72.25-1.34.52-1.86.27-.52.66-.92,1.16-1.21s1.19-.44,2.04-.44,1.54.15,2.04.44.9.69,1.16,1.21c.27.52.44,1.14.52,1.86.08.72.12,1.51.12,2.37s-.04,1.66-.12,2.38-.25,1.34-.52,1.85c-.27.52-.66.91-1.16,1.19-.51.27-1.19.41-2.04.41s-1.54-.14-2.04-.41c-.51-.27-.9-.67-1.16-1.19-.27-.52-.44-1.13-.52-1.85s-.12-1.51-.12-2.38.04-1.64.12-2.37ZM16.69,137.07c.04.53.11.97.22,1.3.11.33.27.58.48.73.21.15.48.23.82.23s.61-.08.82-.23c.21-.15.36-.4.48-.73s.18-.77.22-1.3.06-1.18.06-1.94-.02-1.4-.06-1.93c-.04-.53-.11-.96-.22-1.3s-.27-.58-.48-.74c-.21-.15-.48-.23-.82-.23s-.61.08-.82.23c-.21.15-.36.4-.48.74-.11.34-.19.77-.22,1.3-.04.53-.06,1.17-.06,1.93s.02,1.41.06,1.94Z"/>
        <path class="cls-4" d="M27.24,129.47c.79,0,1.43.13,1.92.39.49.26.86.63,1.13,1.11.27.48.45,1.06.55,1.73.1.68.14,1.43.14,2.27,0,.99-.06,1.86-.18,2.59-.12.73-.33,1.34-.63,1.81-.3.48-.69.83-1.19,1.06-.5.23-1.12.35-1.88.35h-3.6v-11.31h3.74ZM26.8,139.1c.4,0,.72-.07.97-.21.24-.14.44-.36.58-.68.14-.32.24-.73.29-1.25.05-.52.07-1.16.07-1.93,0-.64-.02-1.21-.06-1.69-.04-.49-.13-.89-.26-1.21-.13-.32-.33-.56-.59-.73-.26-.16-.6-.25-1.04-.25h-.97v7.95h1.01Z"/>
        <path class="cls-4" d="M35.48,133.84h.03l1.58-4.37h2.47l-2.93,6.86v4.45h-2.28v-4.45l-2.93-6.86h2.57l1.49,4.37Z"/>
        <path class="cls-4" d="M41.37,142.06v-11.01h-1.66v-1.58h3.63v14.18h-3.63v-1.58h1.66Z"/>
        <path class="cls-4" d="M13.69,145.27v1.09h-2.36v1.55h2.22v1.09h-2.22v2.86h-1.33v-6.6h3.69Z"/>
        <path class="cls-4" d="M17.97,146.36h-2.36v1.55h2.22v1.09h-2.22v1.77h2.45v1.09h-3.78v-6.6h3.69v1.09Z"/>
        <path class="cls-4" d="M22.41,146.36h-2.36v1.55h2.22v1.09h-2.22v1.77h2.45v1.09h-3.78v-6.6h3.69v1.09Z"/>
        <path class="cls-4" d="M23.17,145.27h1.33v5.51h2.36v1.09h-3.69v-6.6Z"/>
        <path class="cls-4" d="M27.51,145.27h1.33v6.6h-1.33v-6.6Z"/>
        <path class="cls-4" d="M32.97,149.79h.02v-4.52h1.22v6.6h-1.52l-1.63-4.62h-.02v4.62h-1.22v-6.6h1.53l1.61,4.52Z"/>
        <path class="cls-4" d="M38.02,146.85c-.03-.13-.07-.25-.13-.36s-.14-.2-.24-.27c-.1-.07-.21-.11-.35-.11-.32,0-.55.18-.69.54-.14.36-.21.95-.21,1.77,0,.39.01.75.04,1.07.02.32.07.59.13.82.06.23.16.4.28.52s.28.18.47.18c.08,0,.17-.02.26-.06.1-.04.19-.11.27-.19.08-.09.15-.2.21-.33.06-.13.08-.29.08-.47v-.67h-.88v-.98h2.15v3.56h-.98v-.61h-.02c-.16.26-.35.44-.58.55-.22.11-.49.16-.81.16-.41,0-.74-.07-.99-.21-.26-.14-.46-.36-.6-.66-.14-.3-.24-.66-.29-1.09s-.07-.94-.07-1.51.04-1.04.11-1.46.19-.77.37-1.05c.17-.28.4-.49.68-.63s.64-.21,1.06-.21c.73,0,1.25.18,1.57.54s.48.88.48,1.55h-1.27c0-.12-.01-.25-.04-.38Z"/>
        <path class="cls-4" d="M41.34,150c0,.15.01.29.04.42.02.13.07.23.14.32.07.09.16.15.27.2s.26.07.43.07c.2,0,.39-.07.55-.2.16-.13.24-.34.24-.61,0-.15-.02-.28-.06-.38-.04-.11-.11-.2-.2-.29-.09-.09-.21-.16-.37-.24s-.34-.14-.56-.22c-.3-.1-.55-.21-.77-.32-.22-.12-.4-.25-.54-.41-.15-.16-.25-.34-.32-.55-.07-.21-.1-.44-.1-.72,0-.65.18-1.14.54-1.46s.86-.48,1.5-.48c.3,0,.57.03.82.1.25.06.47.17.65.31s.32.33.43.55c.1.23.15.49.15.81v.18h-1.28c0-.31-.06-.56-.17-.73s-.3-.25-.55-.25c-.15,0-.27.02-.37.06s-.18.1-.24.17-.1.15-.12.25c-.02.09-.03.19-.03.29,0,.2.04.37.13.51.09.14.27.27.55.38l1.03.44c.25.11.46.23.62.35s.29.25.38.39c.1.14.16.29.2.46.04.17.06.35.06.55,0,.7-.2,1.2-.61,1.52-.4.32-.97.48-1.69.48s-1.29-.16-1.61-.49c-.32-.33-.49-.79-.49-1.4v-.27h1.33v.19Z"/>
      </g>
      <g>
        <path class="cls-4" d="M190.05,129.47v1.58h-1.66v11.01h1.66v1.58h-3.63v-14.18h3.63Z"/>
        <path class="cls-4" d="M192.78,137.58c0,.26.02.5.06.72.04.22.12.4.24.55.12.15.27.26.47.35s.44.13.74.13c.35,0,.66-.11.94-.34.28-.23.42-.58.42-1.05,0-.25-.03-.47-.1-.66-.07-.18-.18-.35-.34-.5s-.37-.28-.62-.4c-.26-.12-.58-.25-.96-.37-.51-.17-.95-.35-1.31-.55-.37-.2-.68-.44-.93-.71-.25-.27-.43-.58-.55-.93-.12-.35-.17-.76-.17-1.23,0-1.12.31-1.95.93-2.5.62-.55,1.48-.82,2.57-.82.51,0,.97.06,1.4.17s.8.29,1.11.54c.31.25.55.56.73.95.17.39.26.85.26,1.39v.32h-2.19c0-.54-.09-.95-.29-1.24-.19-.29-.51-.44-.95-.44-.25,0-.46.04-.63.11-.17.07-.3.17-.4.29-.1.12-.17.26-.21.42-.04.16-.06.32-.06.49,0,.35.07.64.22.88.15.24.46.46.95.66l1.76.76c.43.19.79.39,1.06.59s.49.43.66.67c.16.24.28.5.34.78s.09.6.09.95c0,1.19-.35,2.06-1.04,2.61-.69.54-1.66.82-2.89.82s-2.21-.28-2.76-.84c-.55-.56-.83-1.36-.83-2.41v-.46h2.28v.33Z"/>
        <path class="cls-4" d="M203.15,129.47c.58,0,1.07.1,1.47.29.4.2.71.45.96.77s.42.68.52,1.08c.11.41.16.82.16,1.24,0,.58-.09,1.09-.26,1.52-.17.43-.42.79-.73,1.06-.31.27-.69.48-1.13.62s-.93.21-1.47.21h-1.22v4.51h-2.28v-11.31h3.99ZM202.45,134.59c.45,0,.82-.14,1.1-.41.28-.27.42-.7.42-1.28s-.12-1-.36-1.3c-.24-.3-.65-.44-1.22-.44h-.95v3.44h1.01Z"/>
        <path class="cls-4" d="M207.49,129.47h2.28v11.31h-2.28v-11.31Z"/>
        <path class="cls-4" d="M215.68,129.47c.95,0,1.69.24,2.22.72.53.48.79,1.21.79,2.19,0,.76-.15,1.38-.46,1.86-.31.48-.78.79-1.43.93v.03c.57.08.99.27,1.25.55.26.29.43.74.49,1.38.02.21.04.44.05.69s.02.53.03.83c.02.6.05,1.06.09,1.38.06.32.2.53.41.65v.1h-2.47c-.12-.16-.19-.34-.22-.55-.03-.21-.05-.42-.06-.64l-.06-2.17c-.02-.44-.13-.79-.33-1.05-.2-.25-.54-.38-1.01-.38h-1.22v4.78h-2.28v-11.31h4.21ZM214.7,134.41c.55,0,.97-.13,1.27-.39.29-.26.44-.69.44-1.31,0-1.05-.53-1.57-1.58-1.57h-1.08v3.26h.95Z"/>
        <path class="cls-4" d="M220.39,129.47h2.28v11.31h-2.28v-11.31Z"/>
        <path class="cls-4" d="M230.98,131.34h-2.47v9.44h-2.28v-9.44h-2.47v-1.87h7.22v1.87Z"/>
        <path class="cls-4" d="M232.93,142.06v-11.01h-1.66v-1.58h3.63v14.18h-3.63v-1.58h1.66Z"/>
        <path class="cls-4" d="M189.31,146.36h-2.36v1.55h2.22v1.09h-2.22v1.77h2.45v1.09h-3.78v-6.6h3.69v1.09Z"/>
        <path class="cls-4" d="M192.07,145.27l.94,4.66h.02l.95-4.66h1.97v6.6h-1.22v-5.27h-.02l-1.17,5.27h-1.04l-1.17-5.27h-.02v5.27h-1.22v-6.6h1.98Z"/>
        <path class="cls-4" d="M196.83,147.19c.05-.42.15-.78.3-1.09.16-.3.38-.54.68-.71s.69-.25,1.19-.25.9.08,1.19.25.52.41.68.71c.16.3.26.66.31,1.09.05.42.07.88.07,1.38s-.02.97-.07,1.39c-.05.42-.15.78-.31,1.08-.16.3-.38.53-.68.69s-.69.24-1.19.24-.9-.08-1.19-.24-.52-.39-.68-.69c-.16-.3-.26-.66-.3-1.08s-.07-.88-.07-1.39.02-.96.07-1.38ZM198.13,149.7c.02.31.06.56.13.76.06.19.16.34.28.43s.28.13.48.13.36-.04.48-.13.21-.23.28-.43c.06-.19.11-.45.13-.76.02-.31.03-.69.03-1.13s-.01-.82-.03-1.13-.06-.56-.13-.76c-.07-.2-.16-.34-.28-.43s-.28-.13-.48-.13-.36.04-.48.13-.21.23-.28.43-.11.45-.13.76-.03.68-.03,1.13.01.82.03,1.13Z"/>
        <path class="cls-4" d="M205.9,146.36h-1.44v5.51h-1.33v-5.51h-1.44v-1.09h4.21v1.09Z"/>
        <path class="cls-4" d="M206.54,145.27h1.33v6.6h-1.33v-6.6Z"/>
        <path class="cls-4" d="M208.79,147.19c.05-.42.15-.78.3-1.09.16-.3.38-.54.68-.71s.69-.25,1.19-.25.9.08,1.19.25.52.41.68.71c.16.3.26.66.31,1.09.05.42.07.88.07,1.38s-.02.97-.07,1.39c-.05.42-.15.78-.31,1.08-.16.3-.38.53-.68.69s-.69.24-1.19.24-.9-.08-1.19-.24-.52-.39-.68-.69c-.16-.3-.26-.66-.3-1.08s-.07-.88-.07-1.39.02-.96.07-1.38ZM210.08,149.7c.02.31.06.56.13.76.06.19.16.34.28.43s.28.13.48.13.36-.04.48-.13.21-.23.28-.43c.06-.19.11-.45.13-.76.02-.31.03-.69.03-1.13s-.01-.82-.03-1.13-.06-.56-.13-.76c-.07-.2-.16-.34-.28-.43s-.28-.13-.48-.13-.36.04-.48.13-.21.23-.28.43-.11.45-.13.76-.03.68-.03,1.13.01.82.03,1.13Z"/>
        <path class="cls-4" d="M217.14,149.79h.02v-4.52h1.22v6.6h-1.52l-1.63-4.62h-.02v4.62h-1.22v-6.6h1.53l1.61,4.52Z"/>
        <path class="cls-4" d="M220.37,150c0,.15.01.29.04.42.03.13.07.23.14.32.07.09.16.15.27.2.11.05.26.07.43.07.2,0,.39-.07.55-.2.16-.13.25-.34.25-.61,0-.15-.02-.28-.06-.38-.04-.11-.11-.2-.2-.29-.09-.09-.21-.16-.36-.24-.15-.07-.34-.14-.56-.22-.3-.1-.55-.21-.77-.32s-.4-.25-.54-.41c-.14-.16-.25-.34-.32-.55-.07-.21-.1-.44-.1-.72,0-.65.18-1.14.54-1.46s.86-.48,1.5-.48c.3,0,.57.03.82.1.25.06.46.17.65.31.18.14.32.33.42.55.1.23.15.49.15.81v.18h-1.28c0-.31-.06-.56-.17-.73-.11-.17-.3-.25-.55-.25-.15,0-.27.02-.37.06-.1.04-.18.1-.24.17s-.1.15-.12.25c-.02.09-.03.19-.03.29,0,.2.04.37.13.51.09.14.27.27.55.38l1.03.44c.25.11.46.23.62.35s.29.25.38.39c.1.14.16.29.2.46.04.17.05.35.05.55,0,.7-.2,1.2-.6,1.52s-.97.48-1.69.48-1.29-.16-1.61-.49c-.32-.33-.49-.79-.49-1.4v-.27h1.33v.19Z"/>
      </g>
      <g>
        <path class="cls-4" d="M192.27,55.75v1.87h-4.04v2.66h3.8v1.87h-3.8v4.91h-2.28v-11.31h6.32Z"/>
        <path class="cls-4" d="M195.42,63.63c0,.29.02.55.06.78.04.24.1.44.21.62s.24.31.41.41c.17.1.39.15.66.15s.5-.05.67-.15c.17-.1.3-.24.4-.41s.17-.38.21-.62c.04-.24.06-.5.06-.78v-7.89h2.28v7.89c0,.72-.1,1.31-.3,1.78-.2.47-.47.84-.81,1.12-.34.27-.72.46-1.16.55-.43.1-.88.14-1.35.14s-.91-.04-1.35-.13c-.43-.08-.82-.26-1.16-.51s-.61-.63-.81-1.1c-.2-.48-.3-1.09-.3-1.85v-7.89h2.28v7.89Z"/>
        <path class="cls-4" d="M208.43,57.62h-2.47v9.44h-2.28v-9.44h-2.47v-1.87h7.22v1.87Z"/>
        <path class="cls-4" d="M211.55,63.63c0,.29.02.55.06.78.04.24.1.44.21.62s.24.31.41.41c.17.1.39.15.66.15s.5-.05.67-.15c.17-.1.3-.24.4-.41s.17-.38.21-.62c.04-.24.06-.5.06-.78v-7.89h2.28v7.89c0,.72-.1,1.31-.3,1.78-.2.47-.47.84-.81,1.12-.34.27-.72.46-1.16.55-.43.1-.88.14-1.35.14s-.91-.04-1.35-.13c-.43-.08-.82-.26-1.16-.51s-.61-.63-.81-1.1c-.2-.48-.3-1.09-.3-1.85v-7.89h2.28v7.89Z"/>
        <path class="cls-4" d="M222.14,55.75c.95,0,1.69.24,2.22.72.53.48.79,1.21.79,2.19,0,.76-.15,1.38-.46,1.86-.31.48-.78.79-1.43.93v.03c.57.08.99.27,1.25.55.26.29.43.74.49,1.38.02.21.04.44.05.69s.02.53.03.83c.02.6.05,1.06.09,1.38.06.32.2.53.41.65v.1h-2.47c-.12-.16-.19-.34-.22-.55-.03-.21-.05-.42-.06-.64l-.06-2.17c-.02-.44-.13-.79-.33-1.05-.2-.25-.54-.38-1.01-.38h-1.22v4.78h-2.28v-11.31h4.21ZM221.16,60.69c.55,0,.97-.13,1.27-.39.29-.26.44-.69.44-1.31,0-1.05-.53-1.57-1.58-1.57h-1.08v3.26h.95Z"/>
        <path class="cls-4" d="M233.06,57.62h-4.04v2.66h3.8v1.87h-3.8v3.04h4.2v1.87h-6.48v-11.31h6.32v1.87Z"/>
        <path class="cls-4" d="M187.95,71.55c.34,0,.62.06.86.17.23.11.42.26.56.45.14.19.24.4.3.63s.09.48.09.73c0,.34-.05.63-.15.89s-.24.46-.42.62c-.18.16-.4.28-.66.36s-.54.12-.86.12h-.71v2.63h-1.33v-6.6h2.33ZM187.54,74.53c.26,0,.48-.08.64-.24s.24-.41.24-.75-.07-.58-.21-.76c-.14-.17-.38-.26-.71-.26h-.55v2.01h.59Z"/>
        <path class="cls-4" d="M192.87,71.55c.55,0,.99.14,1.29.42.31.28.46.71.46,1.28,0,.44-.09.81-.27,1.09s-.46.46-.83.54v.02c.33.05.58.16.73.32.15.17.25.43.29.8.01.12.02.26.03.4,0,.14.01.31.02.48.01.35.03.62.06.8.04.18.12.31.24.38v.06h-1.44c-.07-.09-.11-.2-.13-.32s-.03-.24-.04-.37l-.04-1.27c-.01-.26-.08-.46-.19-.61-.12-.15-.31-.22-.59-.22h-.71v2.79h-1.33v-6.6h2.46ZM192.3,74.43c.32,0,.57-.08.74-.23.17-.15.26-.4.26-.76,0-.61-.31-.92-.92-.92h-.63v1.9h.55Z"/>
        <path class="cls-4" d="M199.24,72.64h-2.36v1.55h2.22v1.09h-2.22v1.77h2.45v1.09h-3.78v-6.6h3.69v1.09Z"/>
        <path class="cls-4" d="M202.24,71.55c.46,0,.83.08,1.12.23.28.15.5.37.66.65s.26.62.32,1.01c.06.39.08.83.08,1.32,0,.58-.04,1.08-.11,1.51-.07.43-.19.78-.36,1.06-.17.28-.4.48-.69.62-.29.14-.66.2-1.1.2h-2.1v-6.6h2.18ZM201.98,77.16c.23,0,.42-.04.56-.12.14-.08.25-.21.34-.4.08-.18.14-.43.17-.73.03-.3.04-.68.04-1.13,0-.38-.01-.71-.04-.99s-.08-.52-.15-.71c-.08-.19-.19-.33-.34-.42-.15-.1-.35-.14-.61-.14h-.56v4.64h.59Z"/>
        <path class="cls-4" d="M205.36,71.55h1.33v6.6h-1.33v-6.6Z"/>
        <path class="cls-4" d="M210.33,72.72c-.11-.22-.32-.33-.62-.33-.17,0-.3.04-.41.13s-.19.23-.25.43c-.06.2-.1.46-.13.79-.03.32-.04.72-.04,1.19,0,.5.02.9.05,1.21.03.31.09.55.16.72.07.17.16.28.27.34.11.06.23.09.37.09.12,0,.23-.02.33-.06s.19-.12.26-.24c.07-.12.13-.29.17-.51.04-.22.07-.51.07-.86h1.33c0,.36-.03.7-.08,1.02-.06.32-.16.6-.31.84-.15.24-.36.43-.64.56-.27.14-.63.2-1.07.2-.5,0-.9-.08-1.19-.24s-.52-.39-.68-.69c-.16-.3-.26-.66-.3-1.08s-.07-.88-.07-1.39.02-.96.07-1.38c.05-.42.15-.78.3-1.09.16-.3.38-.54.68-.71s.69-.25,1.19-.25.85.08,1.12.23.48.35.61.59c.14.24.22.49.25.77.03.27.05.53.05.77h-1.33c0-.48-.06-.83-.17-1.05Z"/>
        <path class="cls-4" d="M216.51,72.64h-1.44v5.51h-1.33v-5.51h-1.44v-1.09h4.21v1.09Z"/>
        <path class="cls-4" d="M217.15,71.55h1.33v6.6h-1.33v-6.6Z"/>
        <path class="cls-4" d="M219.4,73.46c.05-.42.15-.78.3-1.09.16-.3.38-.54.68-.71s.69-.25,1.19-.25.9.08,1.19.25.52.41.68.71c.16.3.26.66.31,1.09.05.42.07.88.07,1.38s-.02.97-.07,1.39c-.05.42-.15.78-.31,1.08-.16.3-.38.53-.68.69s-.69.24-1.19.24-.9-.08-1.19-.24-.52-.39-.68-.69c-.16-.3-.26-.66-.3-1.08s-.07-.88-.07-1.39.02-.96.07-1.38ZM220.69,75.98c.02.31.06.56.13.76.06.19.16.34.28.43s.28.13.48.13.36-.04.48-.13.21-.23.28-.43c.06-.19.11-.45.13-.76.02-.31.03-.69.03-1.13s-.01-.82-.03-1.13-.06-.56-.13-.76c-.07-.2-.16-.34-.28-.43s-.28-.13-.48-.13-.36.04-.48.13-.21.23-.28.43-.11.45-.13.76-.03.68-.03,1.13.01.82.03,1.13Z"/>
        <path class="cls-4" d="M227.74,76.06h.02v-4.52h1.22v6.6h-1.52l-1.63-4.62h-.02v4.62h-1.22v-6.6h1.53l1.61,4.52Z"/>
      </g>
      <g>
        <path class="cls-4" d="M17.12,55.75c.58,0,1.07.1,1.47.29s.72.45.96.77c.24.32.42.68.52,1.08.11.41.16.82.16,1.24,0,.58-.09,1.09-.26,1.52-.17.43-.42.79-.73,1.06-.31.27-.69.48-1.13.62-.44.14-.93.21-1.47.21h-1.22v4.51h-2.28v-11.31h3.99ZM16.43,60.86c.45,0,.82-.14,1.1-.41.28-.27.42-.7.42-1.28s-.12-1-.36-1.3c-.24-.3-.65-.44-1.22-.44h-.95v3.44h1.01Z"/>
        <path class="cls-4" d="M25.79,55.75l2.99,11.31h-2.38l-.52-2.39h-3.01l-.52,2.39h-2.38l2.99-11.31h2.82ZM25.49,62.8l-1.09-5.08h-.03l-1.09,5.08h2.22Z"/>
        <path class="cls-4" d="M31.41,63.86c0,.26.02.5.06.72.04.22.12.4.24.55.12.15.27.26.47.35s.44.13.74.13c.35,0,.66-.11.94-.34s.42-.58.42-1.05c0-.25-.03-.47-.1-.66-.07-.18-.18-.35-.34-.5-.16-.15-.37-.28-.63-.4-.26-.12-.58-.25-.96-.37-.51-.17-.94-.35-1.31-.55s-.68-.44-.93-.71c-.25-.27-.43-.58-.55-.93-.12-.35-.17-.76-.17-1.23,0-1.12.31-1.95.93-2.5.62-.55,1.48-.82,2.57-.82.51,0,.97.06,1.4.17s.8.29,1.11.54.55.56.73.95c.17.39.26.85.26,1.39v.32h-2.19c0-.54-.1-.95-.29-1.24-.19-.29-.51-.44-.95-.44-.25,0-.46.04-.63.11-.17.07-.3.17-.4.29-.1.12-.17.26-.21.42s-.06.32-.06.49c0,.35.07.64.22.88.15.24.46.46.95.66l1.76.76c.43.19.79.39,1.06.59.27.21.49.43.66.67.16.24.28.5.34.78s.1.6.1.95c0,1.19-.35,2.06-1.04,2.61-.69.54-1.66.82-2.89.82s-2.21-.28-2.76-.84c-.55-.56-.83-1.36-.83-2.41v-.46h2.28v.33Z"/>
        <path class="cls-4" d="M44.42,57.62h-2.47v9.44h-2.28v-9.44h-2.47v-1.87h7.22v1.87Z"/>
        <path class="cls-4" d="M14.04,71.55l.94,4.66h.02l.95-4.66h1.97v6.6h-1.22v-5.27h-.02l-1.17,5.27h-1.03l-1.17-5.27h-.02v5.27h-1.22v-6.6h1.98Z"/>
        <path class="cls-4" d="M22.56,72.64h-2.36v1.55h2.22v1.09h-2.22v1.77h2.45v1.09h-3.78v-6.6h3.69v1.09Z"/>
        <path class="cls-4" d="M25.32,71.55l.94,4.66h.02l.95-4.66h1.97v6.6h-1.22v-5.27h-.02l-1.17,5.27h-1.03l-1.17-5.27h-.02v5.27h-1.22v-6.6h1.98Z"/>
        <path class="cls-4" d="M30.08,73.46c.05-.42.15-.78.31-1.09.16-.3.38-.54.68-.71.3-.17.69-.25,1.19-.25s.9.08,1.19.25c.3.17.52.41.68.71.16.3.26.66.3,1.09.05.42.07.88.07,1.38s-.02.97-.07,1.39c-.05.42-.15.78-.3,1.08-.16.3-.38.53-.68.69-.3.16-.69.24-1.19.24s-.9-.08-1.19-.24c-.3-.16-.52-.39-.68-.69-.16-.3-.26-.66-.31-1.08-.05-.42-.07-.88-.07-1.39s.02-.96.07-1.38ZM31.38,75.98c.02.31.06.56.13.76.06.19.16.34.28.43s.28.13.48.13.36-.04.48-.13.21-.23.28-.43c.06-.19.11-.45.13-.76.02-.31.03-.69.03-1.13s-.01-.82-.03-1.13-.06-.56-.13-.76-.16-.34-.28-.43-.28-.13-.48-.13-.36.04-.48.13-.21.23-.28.43c-.06.2-.11.45-.13.76-.02.31-.03.68-.03,1.13s.01.82.03,1.13Z"/>
        <path class="cls-4" d="M37.75,71.55c.55,0,.99.14,1.29.42s.46.71.46,1.28c0,.44-.09.81-.27,1.09-.18.28-.46.46-.83.54v.02c.33.05.58.16.73.32.15.17.25.43.29.8.01.12.02.26.03.4,0,.14.01.31.02.48.01.35.03.62.06.8.04.18.12.31.24.38v.06h-1.44c-.07-.09-.11-.2-.13-.32s-.03-.24-.04-.37l-.04-1.27c-.01-.26-.08-.46-.19-.61-.12-.15-.31-.22-.59-.22h-.71v2.79h-1.33v-6.6h2.46ZM37.18,74.43c.32,0,.57-.08.74-.23s.26-.4.26-.76c0-.61-.31-.92-.92-.92h-.63v1.9h.55Z"/>
        <path class="cls-4" d="M42.19,74.1h.02l.92-2.55h1.44l-1.71,4v2.6h-1.33v-2.6l-1.71-4h1.5l.87,2.55Z"/>
      </g>
      <g>
        <path class="cls-4" d="M92.19,183.92c.58,0,1.07.1,1.47.29s.72.45.96.77c.24.32.42.68.52,1.08.11.41.16.82.16,1.24,0,.58-.09,1.09-.26,1.52-.17.43-.42.79-.73,1.06-.31.27-.69.48-1.13.62-.44.14-.93.21-1.47.21h-1.22v4.51h-2.28v-11.31h3.99ZM91.5,189.04c.45,0,.82-.14,1.1-.41.28-.27.42-.7.42-1.28s-.12-1-.36-1.3c-.24-.3-.65-.44-1.22-.44h-.95v3.44h1.01Z"/>
        <path class="cls-4" d="M100.64,183.92c.95,0,1.69.24,2.22.72.53.48.79,1.21.79,2.19,0,.76-.15,1.38-.46,1.86-.31.48-.78.79-1.43.93v.03c.57.08.99.27,1.25.55s.43.74.49,1.38c.02.21.04.44.05.69.01.25.02.53.03.83.02.6.05,1.06.1,1.38.06.32.2.53.41.65v.1h-2.47c-.12-.16-.19-.34-.22-.55s-.05-.42-.06-.64l-.06-2.17c-.02-.44-.13-.79-.33-1.05-.2-.25-.54-.38-1.01-.38h-1.22v4.78h-2.28v-11.31h4.21ZM99.65,188.86c.55,0,.97-.13,1.27-.39.3-.26.44-.69.44-1.31,0-1.05-.53-1.57-1.58-1.57h-1.08v3.26h.95Z"/>
        <path class="cls-4" d="M111.55,185.79h-4.04v2.66h3.8v1.87h-3.8v3.04h4.2v1.87h-6.48v-11.31h6.32v1.87Z"/>
        <path class="cls-4" d="M114.69,192.03c0,.26.02.5.06.72.04.22.12.4.24.55.12.15.27.26.47.35s.44.13.74.13c.35,0,.66-.11.94-.34.28-.23.42-.58.42-1.05,0-.25-.03-.47-.1-.66-.07-.18-.18-.35-.34-.5s-.37-.28-.62-.4c-.26-.12-.58-.25-.96-.37-.51-.17-.95-.35-1.31-.55-.37-.2-.68-.44-.93-.71-.25-.27-.43-.58-.55-.93-.12-.35-.17-.76-.17-1.23,0-1.12.31-1.95.93-2.5.62-.55,1.48-.82,2.57-.82.51,0,.97.06,1.4.17s.8.29,1.11.54c.31.25.55.56.73.95.17.39.26.85.26,1.39v.32h-2.19c0-.54-.09-.95-.29-1.24-.19-.29-.51-.44-.95-.44-.25,0-.46.04-.63.11-.17.07-.3.17-.4.29-.1.12-.17.26-.21.42-.04.16-.06.32-.06.49,0,.35.07.64.22.88.15.24.46.46.95.66l1.76.76c.43.19.79.39,1.06.59s.49.43.66.67c.16.24.28.5.34.78s.09.6.09.95c0,1.19-.35,2.06-1.04,2.61-.69.54-1.66.82-2.89.82s-2.21-.28-2.76-.84c-.55-.56-.83-1.36-.83-2.41v-.46h2.28v.33Z"/>
        <path class="cls-4" d="M127.39,185.79h-4.04v2.66h3.8v1.87h-3.8v3.04h4.2v1.87h-6.48v-11.31h6.32v1.87Z"/>
        <path class="cls-4" d="M134.07,191.67h.03v-7.75h2.09v11.31h-2.6l-2.79-7.92h-.03v7.92h-2.09v-11.31h2.63l2.76,7.75Z"/>
        <path class="cls-4" d="M144.4,185.79h-2.47v9.44h-2.28v-9.44h-2.47v-1.87h7.22v1.87Z"/>
        <path class="cls-4" d="M75.76,199.72l1.75,6.6h-1.39l-.31-1.4h-1.76l-.3,1.4h-1.39l1.75-6.6h1.64ZM75.59,203.83l-.64-2.97h-.02l-.64,2.97h1.29Z"/>
        <path class="cls-4" d="M78.67,199.72l.73,4.88h.02l.78-4.88h1.28l.78,4.88h.02l.73-4.88h1.27l-1.2,6.6h-1.49l-.74-4.79h-.02l-.74,4.79h-1.49l-1.2-6.6h1.28Z"/>
        <path class="cls-4" d="M87.57,199.72l1.75,6.6h-1.39l-.31-1.4h-1.76l-.3,1.4h-1.39l1.75-6.6h1.64ZM87.39,203.83l-.64-2.97h-.02l-.64,2.97h1.29Z"/>
        <path class="cls-4" d="M92.24,199.72c.55,0,.99.14,1.29.42s.46.71.46,1.28c0,.44-.09.81-.27,1.09-.18.28-.46.46-.83.54v.02c.33.05.58.16.73.32.15.17.25.43.29.8.01.12.02.26.03.4,0,.14.01.31.02.48.01.35.03.62.06.8.04.18.12.31.24.38v.06h-1.44c-.07-.09-.11-.2-.13-.32s-.03-.24-.04-.37l-.04-1.27c-.01-.26-.08-.46-.19-.61-.12-.15-.31-.22-.59-.22h-.71v2.79h-1.33v-6.6h2.46ZM91.66,202.61c.32,0,.57-.08.74-.23s.26-.4.26-.76c0-.61-.31-.92-.92-.92h-.63v1.9h.55Z"/>
        <path class="cls-4" d="M98.6,200.81h-2.36v1.55h2.22v1.09h-2.22v1.77h2.45v1.09h-3.78v-6.6h3.69v1.09Z"/>
        <path class="cls-4" d="M102.5,204.24h.02v-4.52h1.22v6.6h-1.52l-1.63-4.62h-.02v4.62h-1.22v-6.6h1.53l1.61,4.52Z"/>
        <path class="cls-4" d="M108.35,200.81h-2.36v1.55h2.22v1.09h-2.22v1.77h2.45v1.09h-3.78v-6.6h3.69v1.09Z"/>
        <path class="cls-4" d="M110.18,204.45c0,.15.01.29.04.42.03.13.07.23.14.32.07.09.16.15.27.2s.26.07.43.07c.2,0,.39-.07.55-.2.16-.13.25-.34.25-.61,0-.15-.02-.28-.06-.38-.04-.11-.11-.2-.2-.29-.09-.09-.21-.16-.36-.24-.15-.07-.34-.14-.56-.22-.29-.1-.55-.21-.77-.32-.22-.12-.4-.25-.54-.41-.14-.16-.25-.34-.32-.55-.07-.21-.1-.44-.1-.72,0-.65.18-1.14.55-1.46s.86-.48,1.5-.48c.3,0,.57.03.82.1.25.06.46.17.65.31s.32.33.43.55c.1.23.15.49.15.81v.18h-1.28c0-.31-.06-.56-.17-.73-.11-.17-.3-.25-.55-.25-.15,0-.27.02-.37.06-.1.04-.18.1-.24.17s-.1.15-.12.25c-.02.09-.03.19-.03.29,0,.2.04.37.13.51.09.14.27.27.55.38l1.03.44c.25.11.46.23.62.35s.29.25.38.39c.1.14.16.29.2.46.04.17.05.35.05.55,0,.7-.2,1.2-.6,1.52-.4.32-.97.48-1.69.48s-1.29-.16-1.61-.49c-.32-.33-.49-.79-.49-1.4v-.27h1.33v.19Z"/>
        <path class="cls-4" d="M114.98,204.45c0,.15.01.29.04.42.03.13.07.23.14.32.07.09.16.15.27.2.11.05.26.07.43.07.2,0,.39-.07.55-.2.16-.13.25-.34.25-.61,0-.15-.02-.28-.06-.38-.04-.11-.11-.2-.2-.29-.09-.09-.21-.16-.36-.24-.15-.07-.34-.14-.56-.22-.3-.1-.55-.21-.77-.32s-.4-.25-.54-.41c-.14-.16-.25-.34-.32-.55-.07-.21-.1-.44-.1-.72,0-.65.18-1.14.54-1.46s.86-.48,1.5-.48c.3,0,.57.03.82.1.25.06.46.17.65.31.18.14.32.33.42.55.1.23.15.49.15.81v.18h-1.28c0-.31-.06-.56-.17-.73-.11-.17-.3-.25-.55-.25-.15,0-.27.02-.37.06-.1.04-.18.1-.24.17s-.1.15-.12.25c-.02.09-.03.19-.03.29,0,.2.04.37.13.51.09.14.27.27.55.38l1.03.44c.25.11.46.23.62.35s.29.25.38.39c.1.14.16.29.2.46.04.17.05.35.05.55,0,.7-.2,1.2-.6,1.52s-.97.48-1.69.48-1.29-.16-1.61-.49c-.32-.33-.49-.79-.49-1.4v-.27h1.33v.19Z"/>
        <path class="cls-4" d="M121.33,199.59l-2.09,6.83h-1.01l2.06-6.83h1.04Z"/>
        <path class="cls-4" d="M124.09,199.72c.34,0,.62.06.86.17.23.11.42.26.56.45.14.19.24.4.3.63s.09.48.09.73c0,.34-.05.63-.15.89s-.24.46-.42.62c-.18.16-.4.28-.66.36s-.54.12-.86.12h-.71v2.63h-1.33v-6.6h2.33ZM123.69,202.71c.26,0,.48-.08.64-.24s.24-.41.24-.75-.07-.58-.21-.76c-.14-.17-.38-.26-.71-.26h-.55v2.01h.59Z"/>
        <path class="cls-4" d="M129.02,199.72c.55,0,.99.14,1.29.42.31.28.46.71.46,1.28,0,.44-.09.81-.27,1.09s-.46.46-.83.54v.02c.33.05.58.16.73.32.15.17.25.43.29.8.01.12.02.26.03.4,0,.14.01.31.02.48.01.35.03.62.06.8.04.18.12.31.24.38v.06h-1.44c-.07-.09-.11-.2-.13-.32s-.03-.24-.04-.37l-.04-1.27c-.01-.26-.08-.46-.19-.61-.12-.15-.31-.22-.59-.22h-.71v2.79h-1.33v-6.6h2.46ZM128.45,202.61c.32,0,.57-.08.74-.23.17-.15.26-.4.26-.76,0-.61-.31-.92-.92-.92h-.63v1.9h.55Z"/>
        <path class="cls-4" d="M135.39,200.81h-2.36v1.55h2.22v1.09h-2.22v1.77h2.45v1.09h-3.78v-6.6h3.69v1.09Z"/>
        <path class="cls-4" d="M137.22,204.45c0,.15.01.29.04.42.03.13.07.23.14.32.07.09.16.15.27.2.11.05.26.07.43.07.2,0,.39-.07.55-.2.16-.13.25-.34.25-.61,0-.15-.02-.28-.06-.38-.04-.11-.11-.2-.2-.29-.09-.09-.21-.16-.36-.24-.15-.07-.34-.14-.56-.22-.3-.1-.55-.21-.77-.32s-.4-.25-.54-.41c-.14-.16-.25-.34-.32-.55-.07-.21-.1-.44-.1-.72,0-.65.18-1.14.54-1.46s.86-.48,1.5-.48c.3,0,.57.03.82.1.25.06.46.17.65.31.18.14.32.33.42.55.1.23.15.49.15.81v.18h-1.28c0-.31-.06-.56-.17-.73-.11-.17-.3-.25-.55-.25-.15,0-.27.02-.37.06-.1.04-.18.1-.24.17s-.1.15-.12.25c-.02.09-.03.19-.03.29,0,.2.04.37.13.51.09.14.27.27.55.38l1.03.44c.25.11.46.23.62.35s.29.25.38.39c.1.14.16.29.2.46.04.17.05.35.05.55,0,.7-.2,1.2-.6,1.52s-.97.48-1.69.48-1.29-.16-1.61-.49c-.32-.33-.49-.79-.49-1.4v-.27h1.33v.19Z"/>
        <path class="cls-4" d="M144.63,200.81h-2.36v1.55h2.22v1.09h-2.22v1.77h2.45v1.09h-3.78v-6.6h3.69v1.09Z"/>
        <path class="cls-4" d="M148.53,204.24h.02v-4.52h1.22v6.6h-1.52l-1.63-4.62h-.02v4.62h-1.22v-6.6h1.53l1.61,4.52Z"/>
        <path class="cls-4" d="M153.33,200.9c-.11-.22-.32-.33-.62-.33-.17,0-.3.04-.41.13s-.19.23-.25.43c-.06.2-.1.46-.13.79-.03.32-.04.72-.04,1.19,0,.5.02.9.05,1.21.03.31.09.55.16.72.07.17.16.28.27.34.11.06.23.09.37.09.12,0,.23-.02.33-.06s.19-.12.26-.24c.07-.12.13-.29.17-.51.04-.22.07-.51.07-.86h1.33c0,.36-.03.7-.08,1.02-.06.32-.16.6-.31.84-.15.24-.36.43-.64.56-.27.14-.63.2-1.07.2-.5,0-.9-.08-1.19-.24s-.52-.39-.68-.69c-.16-.3-.26-.66-.3-1.08s-.07-.88-.07-1.39.02-.96.07-1.38c.05-.42.15-.78.3-1.09.16-.3.38-.54.68-.71s.69-.25,1.19-.25.85.08,1.12.23.48.35.61.59c.14.24.22.49.25.77.03.27.05.53.05.77h-1.33c0-.48-.06-.83-.17-1.05Z"/>
        <path class="cls-4" d="M159.34,200.81h-2.36v1.55h2.22v1.09h-2.22v1.77h2.45v1.09h-3.78v-6.6h3.69v1.09Z"/>
      </g>
      <g>
        <g class="cls-3">
          <polygon class="cls-9" points="116.22 177.26 52.64 140.42 52.64 67.11 116.22 103.69 116.22 177.26"/>
          <polygon class="cls-12" points="116.22 103.69 116.22 103.69 179.35 67.31 116.22 103.69 52.64 67.11 116.22 30.05 179.35 67.31 116.22 103.69"/>
          <polygon class="cls-13" points="116.22 103.69 116.22 103.69 179.35 67.31 179.35 67.31 179.36 140.42 116.22 177.26 116.22 103.69"/>
        </g>
        <g class="cls-1">
          <polygon class="cls-5" points="116.17 158.86 68.48 131.23 68.48 76.25 116.16 103.68 116.17 158.86"/>
          <polygon class="cls-8" points="116.16 103.68 116.16 103.68 163.52 76.4 116.16 103.68 68.48 76.25 116.17 48.45 163.52 76.4 116.16 103.68"/>
          <polygon class="cls-10" points="116.16 103.68 116.16 103.68 163.52 76.4 163.52 76.4 163.52 131.23 116.17 158.86 116.16 103.68"/>
        </g>
        <g>
          <polygon class="cls-6" points="116.11 66.85 84.32 85.27 84.32 121.93 116.11 103.64 116.11 66.85"/>
          <polygon class="cls-11" points="116.11 103.64 116.11 103.64 147.68 121.83 116.11 103.64 84.32 121.93 116.11 140.46 147.68 121.83 116.11 103.64"/>
          <polygon class="cls-7" points="116.11 103.64 116.11 103.64 147.68 121.83 147.68 121.83 147.68 85.27 116.11 66.85 116.11 103.64"/>
        </g>
        <g class="cls-2">
          <g>
            <polygon class="cls-5" points="116.05 122.05 100.16 112.85 100.16 94.52 116.05 103.67 116.05 122.05"/>
            <polygon class="cls-8" points="116.05 103.67 116.05 103.67 131.83 94.57 116.05 103.67 100.16 94.52 116.05 85.26 131.83 94.57 116.05 103.67"/>
            <polygon class="cls-10" points="116.05 103.67 116.05 103.67 131.83 94.57 131.83 94.57 131.83 112.85 116.05 122.05 116.05 103.67"/>
          </g>
        </g>
      </g>
    </g>
  </g>
</svg>