<?xml version="1.0" encoding="UTF-8"?>
<svg id="Layer_2" data-name="Layer 2" xmlns="http://www.w3.org/2000/svg" viewBox="0 0 302.99 240.35">
  <defs>
    <style>
      .cls-1, .cls-2, .cls-3 {
        stroke: #231f20;
      }

      .cls-1, .cls-4 {
        fill: #231f20;
      }

      .cls-2, .cls-5 {
        fill: #929497;
      }

      .cls-3, .cls-6 {
        fill: #fff;
      }

      .cls-7, .cls-4, .cls-5, .cls-6 {
        stroke-width: 0px;
      }
    </style>
  </defs>
  <g id="Layer_1-2" data-name="Layer 1">
    <g>
      <g>
        <g>
          <path class="cls-6" d="M214.47,45.7c5.62-9.02,10.73-16.22,9.73-24.39-2.55-20.72-26.66-21.7-37.7-8.89-9.72,11.27-10.45,36.21-9,50.71,1.94,19.53,5.67,36.32,21.65,59.75"/>
          <path class="cls-7" d="M199.14,122.87s-.23.15-1.41-.9c-.59-.52-1.42-1.34-2.58-2.64-.56-.66-1.2-1.44-1.93-2.37-.74-.92-1.55-2-2.42-3.27-.44-.63-.9-1.31-1.4-2.02-.48-.73-.96-1.51-1.48-2.34-1.06-1.65-2.1-3.56-3.27-5.68-2.25-4.29-4.68-9.65-6.71-16.39-2.1-6.73-3.61-14.81-4.63-24.14-.5-4.78-.74-9.88-.64-15.36.1-5.48.57-11.35,1.79-17.61,1.21-6.25,3.16-12.18,6.45-17.37.36-.66.91-1.26,1.36-1.88.48-.61.91-1.24,1.46-1.78.51-.57,1.04-1.1,1.6-1.6.54-.52,1.12-.97,1.69-1.44,2.29-1.81,4.78-3.15,7.29-4.13,5.02-1.94,10.17-2.39,14.82-1.57,4.66.8,8.81,2.98,11.73,5.9,2.96,2.91,4.67,6.37,5.54,9.53.47,1.58.7,3.12.86,4.56.11.7.09,1.5.12,2.22-.02.73-.05,1.44-.13,2.13-.32,2.75-1.13,5.03-1.98,6.92-.86,1.9-1.78,3.44-2.64,4.76-1.72,2.63-3.18,4.4-4.29,5.72-1.12,1.31-1.92,2.14-2.49,2.67-1.14,1.06-1.37.91-1.37.91,0,0-.25-.12.19-1.59.22-.73.61-1.8,1.28-3.36.66-1.56,1.63-3.59,2.77-6.27.57-1.34,1.16-2.84,1.66-4.51.5-1.67.89-3.52.92-5.48.03-.49-.04-.99-.05-1.5-.08-.51-.12-1-.23-1.56-.23-1.12-.5-2.28-.93-3.41-.38-1.16-.98-2.24-1.62-3.33-.69-1.06-1.53-2.05-2.52-2.94-1.98-1.79-4.7-3.08-7.93-3.53-3.22-.46-6.94-.04-10.52,1.44-3.59,1.48-7,4.02-9.31,7.74-2.37,3.82-4.11,8.83-5.18,14.45-1.08,5.56-1.56,10.98-1.72,16.07-.16,5.1-.03,9.89.32,14.29.75,9.02,1.83,16.61,3.39,22.96,1.51,6.37,3.3,11.56,5,15.83.88,2.13,1.64,4.07,2.42,5.78.38.86.74,1.68,1.07,2.45.36.76.69,1.49,1.01,2.16.62,1.37,1.17,2.57,1.68,3.61.49,1.05.9,1.96,1.24,2.76.72,1.56,1.16,2.65,1.42,3.41.51,1.52.31,1.7.31,1.7Z"/>
        </g>
        <g>
          <path class="cls-6" d="M199.14,122.87c-.09-4.42,1.55-12.75,8.13-23.28,8.23-13.17,17.31-20.1,30.11-28.98,11.56-8.02,28.03-13.93,32-24.53,7.31-19.55-15.01-33.14-30.73-26.88-11.47,4.57-18.31,15.93-24.17,26.5"/>
          <path class="cls-7" d="M214.47,45.7s-.23-.14.16-1.68c.43-1.54,1.34-4.53,4.36-10.07.77-1.38,1.68-2.92,2.84-4.58,1.14-1.67,2.53-3.48,4.29-5.36,1.76-1.87,3.88-3.83,6.58-5.57.68-.43,1.4-.84,2.12-1.27.74-.4,1.54-.76,2.33-1.15,1.68-.73,3.54-1.32,5.51-1.7,3.94-.7,8.33-.58,12.8.66,4.45,1.25,9.06,3.6,12.96,7.6,1.93,2,3.67,4.42,4.88,7.27,1.2,2.84,1.87,6.08,1.79,9.37-.07,1.64-.25,3.3-.64,4.91l-.29,1.21c-.11.4-.25.79-.37,1.19-.14.4-.25.79-.41,1.2-.19.42-.37.84-.56,1.26-1.56,3.36-3.96,6.07-6.52,8.34-5.21,4.51-10.44,7.26-15.13,9.96-2.35,1.32-4.59,2.57-6.69,3.81-1.04.62-2.06,1.24-3.03,1.86-.96.62-1.9,1.23-2.88,1.91-7.73,5.2-13.93,9.82-18.62,14.4-4.7,4.56-8.06,8.96-10.67,12.77-2.61,3.79-4.37,7.03-5.64,9.68-2.53,5.32-3.25,8.24-3.77,9.68-.25.73-.4,1.1-.53,1.29-.12.19-.19.19-.19.19,0,0-.07,0-.19-.17-.11-.18-.3-.55-.46-1.33-.16-.78-.31-1.97-.23-3.76.07-1.79.38-4.18,1.22-7.25.84-3.08,2.24-6.84,4.59-11.23,2.34-4.35,5.57-9.47,10.46-14.84,4.87-5.38,11.44-10.7,19.15-16.18.49-.35.97-.69,1.47-1.05.52-.36,1.05-.72,1.58-1.08,1.06-.72,2.15-1.4,3.26-2.09,2.22-1.36,4.51-2.69,6.84-4.04,4.62-2.7,9.6-5.47,13.68-9.04,2-1.76,3.55-3.61,4.41-5.46l.33-.69c.11-.23.19-.54.28-.81l.27-.82.2-.82c.29-1.08.39-2.15.47-3.19.16-4.15-1.47-7.86-4.05-10.65-2.55-2.81-5.86-4.72-9.11-5.79-3.27-1.07-6.5-1.36-9.36-1.04-1.43.17-2.77.49-4.02.9-.65.26-1.28.51-1.9.75-.6.29-1.19.58-1.77.86-2.28,1.22-4.22,2.66-5.91,4.09-1.7,1.43-3.14,2.89-4.4,4.26-1.27,1.36-2.34,2.65-3.3,3.82-3.78,4.7-5.69,7.24-6.84,8.38-1.12,1.17-1.38,1.07-1.38,1.07Z"/>
        </g>
      </g>
      <g>
        <path class="cls-6" d="M251.06,129.76c-8.19,10.29-6.5,25.27,3.79,33.46,10.29,8.19,25.27,6.5,33.46-3.79,16.39-20.57,12.99-50.53-7.58-66.92-20.57-16.39-50.53-12.99-66.92,7.58-8.19,10.29-6.5,25.27,3.79,33.46,10.29,8.19,25.27,6.5,33.46-3.79"/>
        <path class="cls-7" d="M251.06,129.76s.23.16-1.06,2.26c-.36.5-.84,1.09-1.47,1.83-.31.37-.72.71-1.14,1.12-.43.4-.89.85-1.47,1.25-2.2,1.71-5.58,3.68-10.64,4.6-2.53.4-5.47.49-8.72-.1-3.23-.59-6.78-1.89-10.17-4.25-.88-.54-1.65-1.27-2.5-1.95-.82-.71-1.58-1.54-2.36-2.37-.7-.91-1.51-1.77-2.12-2.81-.32-.51-.67-1.01-.98-1.55-.28-.55-.57-1.11-.86-1.67-2.2-4.55-3.27-10.24-2.29-16.28.49-3.01,1.57-6.06,3.21-8.95.21-.36.4-.73.62-1.09.24-.34.48-.69.72-1.04.24-.35.49-.7.73-1.05.25-.34.51-.62.77-.93.52-.61,1.05-1.23,1.58-1.85.55-.61,1.04-1.28,1.67-1.83,4.66-4.79,10.73-9.04,18.01-11.85,7.25-2.79,15.74-4.27,24.67-3.15,4.47.42,8.98,1.7,13.45,3.42,1.1.49,2.2.98,3.31,1.48,1.12.49,2.14,1.18,3.23,1.77.54.31,1.07.62,1.62.93.54.31,1.03.71,1.55,1.06,1.02.73,2.05,1.47,3.08,2.22.96.84,1.91,1.68,2.85,2.51.46.43.96.81,1.38,1.27.43.46.85.91,1.27,1.37.42.46.84.91,1.26,1.36.42.45.84.89,1.19,1.39.73.98,1.46,1.94,2.18,2.9,2.68,3.97,4.94,8.09,6.35,12.36,3.09,8.46,3.53,17.08,2.42,24.78-1.12,7.73-3.92,14.6-7.56,20.21-.89,1.41-1.93,2.69-2.87,4-.44.64-1.03,1.28-1.6,1.91l-.85.93-.93.84c-2.46,2.24-5.21,3.95-8.03,5.1-5.68,2.27-11.47,2.49-16.39,1.33-.61-.16-1.22-.31-1.82-.46-.58-.21-1.16-.41-1.72-.62l-.84-.31-.8-.38c-.53-.26-1.05-.51-1.57-.76-1.98-1.15-3.78-2.38-5.28-3.8-3.04-2.79-5.09-5.96-6.37-8.98-1.29-3.03-1.83-5.92-2.01-8.47-.2-5.14.96-8.85,2.14-11.37.26-.65.6-1.19.89-1.7.31-.5.54-.97.84-1.35.58-.77,1.05-1.37,1.45-1.82,1.75-1.71,1.95-1.51,1.95-1.51,0,0,.23.16-.72,2.2-.22.52-.44,1.19-.77,1.99-.18.39-.28.86-.45,1.36-.14.5-.36,1.02-.47,1.63-.6,2.37-1.06,5.66-.41,9.84.38,2.08,1.05,4.36,2.27,6.68,1.22,2.32,3,4.66,5.48,6.66.31.24.61.52.95.75.34.22.68.45,1.03.68.67.5,1.47.82,2.22,1.25,1.58.7,3.28,1.36,5.16,1.66,1.85.34,3.84.48,5.88.23,2.03-.23,4.13-.72,6.16-1.62,2.02-.91,3.96-2.18,5.68-3.83.43-.41.88-.82,1.25-1.3.39-.49.81-.87,1.18-1.48.76-1.13,1.59-2.25,2.35-3.44,2.97-4.81,5.19-10.6,6.04-17.08.1-.81.19-1.63.29-2.45.07-.83.05-1.67.08-2.51.01-.42.02-.85.03-1.27l.02-.64-.05-.64c-.06-.86-.13-1.72-.19-2.6-.02-.88-.21-1.74-.35-2.62-.16-.87-.27-1.77-.47-2.65-.23-.87-.47-1.75-.71-2.64-.13-.44-.21-.9-.38-1.33-.16-.43-.33-.87-.49-1.31-1.17-3.56-3.1-6.95-5.31-10.25-.6-.79-1.21-1.6-1.82-2.4-.29-.42-.64-.78-.99-1.16l-1.05-1.13-1.05-1.14c-.34-.39-.77-.7-1.15-1.05-.78-.69-1.58-1.39-2.37-2.1-.86-.61-1.71-1.22-2.55-1.82-.43-.29-.82-.63-1.27-.88-.45-.26-.89-.51-1.33-.76-.9-.49-1.73-1.06-2.65-1.47-.91-.41-1.82-.82-2.72-1.22-3.67-1.43-7.37-2.53-11.06-2.9-7.36-1.01-14.42.1-20.49,2.3-6.1,2.21-11.24,5.59-15.29,9.49-.55.45-1,.98-1.46,1.49-.47.51-.93,1.02-1.38,1.52l-.69.75c-.21.25-.37.49-.56.73-.35.49-.75.95-1.03,1.47-1.28,2-2.15,4.15-2.61,6.31-.47,2.15-.58,4.3-.41,6.34.19,2.04.72,3.95,1.38,5.72,1.44,3.49,3.6,6.33,6.09,8.33,2.46,2.03,5.12,3.32,7.64,4.07,2.53.73,4.93.99,7.06.9,4.28-.19,7.45-1.38,9.69-2.46.29-.14.56-.26.82-.39.25-.15.49-.29.72-.42.47-.27.89-.52,1.28-.74.73-.51,1.34-.92,1.84-1.24,1.85-1.46,2.13-1.35,2.13-1.35Z"/>
      </g>
      <g>
        <g>
          <path class="cls-6" d="M201.38,130.61c-3.83-2.38-9.66-8.17-16.83-20.5-11.85-20.39-11.93-33.76-14.13-49.08-2.42-16.81-4.87-33.55-16.36-38.91-15.17-7.07-33.85,1.63-31,24.26,1.82,14.49,9.15,30.64,19.55,42.48,12.99,14.78,36.18,28.25,58.77,41.75"/>
          <path class="cls-7" d="M201.38,130.61s-.15.24-2.34-.58c-2.18-.82-6.4-2.65-14.51-6.91-4.05-2.15-9.08-4.88-15.22-8.61-6.12-3.76-13.45-8.39-21.55-15.21-4.02-3.41-8.24-7.54-12.11-12.55-3.84-5.02-7.43-10.81-10.44-17.47-2.99-6.66-5.53-14.16-6.6-22.71-.5-4.41-.47-9.24,1.07-14.13.76-2.43,1.89-4.86,3.47-7.07,1.57-2.21,3.57-4.2,5.89-5.79,4.66-3.19,10.13-4.48,15.2-4.32,2.54.08,5.01.49,7.34,1.18,2.35.69,4.47,1.59,6.7,2.94.55.32,1.02.73,1.53,1.09.49.39,1.02.73,1.43,1.17.87.85,1.77,1.67,2.46,2.6.36.46.74.9,1.08,1.36.31.47.61.94.92,1.41.64.93,1.09,1.89,1.6,2.84,1.9,3.8,3.02,7.54,3.91,11.11,1.72,7.15,2.5,13.66,3.29,19.64.77,6.09,1.24,11.56,1.96,16.48,1.39,9.82,4,17.58,6.75,23.92,2.78,6.31,5.5,11.25,7.76,15.08,4.56,7.66,7.55,10.96,9.01,12.67.74.85,1.12,1.29,1.28,1.55.17.26.13.32.13.32,0,0-.03.07-.32.02-.29-.04-.86-.19-1.89-.72-2.03-1.07-6.06-3.76-11.79-11.1-2.85-3.68-6.12-8.44-9.6-14.9-1.7-3.25-3.41-6.93-4.94-11.15-1.53-4.21-2.83-8.97-3.83-14.17-.99-5.19-1.67-10.79-2.58-16.62-.95-5.93-1.88-12.3-3.54-18.73-.84-3.2-1.88-6.41-3.37-9.31-1.49-2.89-3.43-5.4-5.92-7l-.98-.53c-.17-.09-.32-.19-.5-.27l-.59-.25c-.39-.18-.78-.33-1.19-.46-.4-.15-.81-.28-1.22-.39-1.65-.48-3.37-.76-5.1-.81-3.47-.11-7.02.79-9.91,2.77-2.86,1.96-4.85,4.83-5.87,8.09-1.06,3.26-1.17,6.86-.81,10.35.83,7.31,2.99,14.15,5.58,20.2,2.59,6.08,5.72,11.41,9.03,16.03,3.33,4.61,6.93,8.41,10.56,11.78,7.28,6.7,14.15,11.66,19.86,15.78,5.75,4.1,10.45,7.31,14.2,9.93,7.52,5.22,11.23,8.06,13.02,9.62,1.79,1.56,1.69,1.83,1.69,1.83Z"/>
        </g>
        <g>
          <path class="cls-6" d="M192.72,124.46c4.02,2.45,9.65,8.19,16.79,20.53,11.81,20.41,17.7,39.4,19.36,51.43,1.99,14.48,5.18,29.12,18.09,35.64,11.66,5.89,28.41-2.78,29.45-20.05.91-15.2-13.23-31.92-23.09-42.11-14.12-14.58-38.03-31.92-60.59-45.46"/>
          <path class="cls-7" d="M192.72,124.46s.15-.24,2.33.59c2.18.83,6.39,2.71,14.35,7.26,3.97,2.29,8.88,5.25,14.83,9.24,5.94,4.01,12.99,8.95,20.99,15.59,3.99,3.31,8.25,7.11,12.54,11.52,4.27,4.4,8.71,9.37,12.92,15.32,2.08,2.99,4.1,6.25,5.86,9.87,1.75,3.63,3.28,7.65,3.98,12.21.07.58.14,1.15.2,1.73.07.58.15,1.16.13,1.77,0,.6,0,1.2,0,1.81v.91s-.1.9-.1.9c-.21,2.39-.68,4.83-1.53,7.22-1.67,4.76-4.72,9.35-9.08,12.65-4.36,3.28-9.58,5.26-14.88,5.29-2.64.12-5.27-.41-7.74-1.21-.6-.25-1.2-.5-1.8-.75-.29-.13-.61-.25-.88-.39l-.78-.44c-.52-.3-1.03-.59-1.54-.89-.51-.29-.97-.67-1.46-1-3.83-2.73-6.84-6.28-8.92-9.95-2.1-3.68-3.46-7.41-4.47-10.99-1-3.59-1.66-7.04-2.18-10.34-.25-1.65-.48-3.26-.68-4.83-.21-1.54-.39-2.91-.65-4.34-1-5.65-2.41-10.87-3.91-15.61-3.01-9.51-6.36-17.22-9.3-23.54-3.01-6.31-5.61-11.28-7.87-15.1-4.52-7.68-7.49-10.96-8.96-12.65-.74-.84-1.12-1.28-1.29-1.54-.17-.26-.13-.32-.13-.32,0,0,.03-.07.32-.02.29.04.86.18,1.9.71,2.04,1.05,6.07,3.75,11.76,11.1,2.85,3.67,6.03,8.49,9.61,14.74,3.54,6.29,7.47,14.06,11.08,23.93,1.8,4.94,3.5,10.39,4.79,16.54.32,1.53.6,3.16.85,4.74.23,1.52.48,3.06.75,4.61.56,3.1,1.22,6.25,2.15,9.37,1.84,6.2,4.78,12.42,10.24,16.19.34.23.66.49,1.02.71l1.1.62c.75.49,1.43.65,2.14.98,1.46.44,3.01.79,4.65.7,3.27,0,6.71-1.29,9.62-3.46,2.88-2.18,4.9-5.21,6.06-8.44.59-1.62.93-3.31,1.1-5.02.18-1.69.1-3.32-.11-5-.46-3.33-1.62-6.62-3.06-9.7-1.45-3.09-3.16-6.01-4.99-8.74-3.7-5.47-7.75-10.26-11.69-14.57-3.95-4.3-7.81-8.02-11.54-11.39-7.44-6.73-14.07-11.99-19.6-16.36-5.56-4.35-10.1-7.75-13.73-10.5-7.29-5.46-10.95-8.33-12.72-9.9-1.77-1.57-1.68-1.84-1.68-1.84Z"/>
        </g>
      </g>
      <g>
        <path class="cls-6" d="M188.98,129.15c-4.65-.72-12.61,1.09-25.58,7.02-21.45,9.8-37.25,21.88-45.56,30.73-10.01,10.65-21.08,20.75-35.38,18.58-12.92-1.95-21.55-18.71-12.4-33.39,8.06-12.92,29.27-18.36,43.21-20.96,19.95-3.72,49.49-4,75.72-1.98"/>
        <path class="cls-7" d="M188.98,129.15s-.04.28-2.34.54c-2.31.26-6.89.48-15.96.71-4.53.13-10.19.27-17.24.6-7.04.35-15.49.8-25.47,1.96-5,.59-10.33,1.37-16.04,2.59-5.73,1.23-11.82,2.79-18.04,5.09-3.09,1.17-6.19,2.55-9.18,4.24-2.97,1.68-5.84,3.69-8.16,6.15-1.15,1.25-2.17,2.53-3.01,4.02-.86,1.49-1.57,3.08-2.03,4.74-.93,3.32-1.03,6.97.06,10.43,1.1,3.44,3.16,6.47,5.81,8.36,1.28,1.03,2.74,1.63,4.18,2.12l1.1.25c.19.04.35.1.56.13l.63.06c.42.04.84.09,1.25.13.42.05.83,0,1.24.02,6.61.1,12.6-3.22,17.68-7.19,2.55-1.99,4.92-4.17,7.16-6.36,1.12-1.11,2.21-2.2,3.28-3.31,1.1-1.12,2.28-2.31,3.42-3.36,4.6-4.27,9.13-7.73,13.44-10.72,8.63-5.97,16.34-10.03,22.86-13.12,6.56-3.04,11.93-5.12,16.37-6.52,8.87-2.83,13.82-2.81,16.16-2.4,1.18.2,1.74.46,2.01.62.27.15.26.22.26.22,0,0,0,.07-.28.16-.28.09-.82.18-1.89.4-2.12.43-6.35,1.41-14.43,5.11-4.03,1.84-9.04,4.37-15.15,7.76-6.07,3.44-13.26,7.78-21.26,13.78-3.99,3-8.17,6.44-12.29,10.46-1.04,1.01-2.01,2.04-3.05,3.15-1.08,1.17-2.19,2.36-3.35,3.56-2.33,2.4-4.87,4.84-7.76,7.2-2.89,2.35-6.16,4.63-10.01,6.43-3.81,1.82-8.33,3.01-13.05,3.04-.59,0-1.18.02-1.78-.01-.59-.06-1.18-.11-1.78-.17-1.15-.05-2.48-.41-3.74-.69-.64-.13-1.24-.42-1.86-.64-.6-.25-1.26-.43-1.82-.77-1.16-.62-2.35-1.23-3.38-2.06-4.34-3.1-7.48-7.74-9.15-12.96-1.64-5.2-1.48-10.68-.11-15.51.68-2.43,1.7-4.69,2.9-6.75,1.19-2.09,2.7-4.01,4.27-5.66,3.19-3.31,6.75-5.72,10.26-7.67,3.52-1.94,7.03-3.44,10.46-4.67,6.85-2.43,13.34-3.92,19.35-5.04,6.03-1.11,11.7-1.76,16.86-2.15,10.36-.8,18.97-.74,26.14-.58,7.17.2,12.9.62,17.49,1.05,9.17.89,13.75,1.8,16.06,2.39,2.3.59,2.33.87,2.33.87Z"/>
      </g>
      <g>
        <path class="cls-6" d="M184.96,131.89c-4.37,1.74-11.97,7.09-19.9,17.61-9.93,13.16-13.43,24.54-17.48,40.19-3.67,14.15-3.47,32-12.42,40.11-16.52,14.95-37.98-.29-37.56-17.58.37-15.22,12.39-30.1,21.88-40.63,13.98-15.53,39.73-32.17,65.49-39.69"/>
        <path class="cls-7" d="M184.96,131.89s.06.28-1.98,1.36c-1.02.54-2.58,1.26-4.87,2.39-1.15.54-2.5,1.16-4.04,1.95-.78.38-1.61.78-2.49,1.22-.88.45-1.82.94-2.82,1.45-3.99,2.06-8.93,4.72-14.84,8.42-5.9,3.71-12.83,8.44-20.4,14.88-3.78,3.23-7.67,6.89-11.43,11.23-3.87,4.45-7.88,9.31-11.53,14.84-1.81,2.77-3.51,5.71-4.94,8.84-1.43,3.12-2.58,6.44-3.15,9.87-.14.86-.29,1.72-.31,2.59-.03.43-.06.87-.09,1.3,0,.42.02.81.02,1.22.08,1.62.4,3.26.97,4.88,1.13,3.23,3.23,6.34,6.09,8.72,2.86,2.39,6.23,3.86,9.53,4.23,3.31.38,6.52-.31,9.36-1.83,1.41-.77,2.75-1.69,3.98-2.77.33-.26.51-.52.78-.77.24-.27.52-.47.73-.78.43-.61.92-1.12,1.29-1.81,1.6-2.58,2.69-5.67,3.54-8.81,1.67-6.32,2.52-12.73,3.76-18.75.29-1.5.64-3,.97-4.46.37-1.48.74-2.92,1.13-4.24.75-2.69,1.51-5.28,2.3-7.77,3.06-9.98,6.96-18.16,11.08-24.26,4.11-6.11,8.03-10.47,11.43-13.71,3.41-3.23,6.29-5.29,8.55-6.66,2.26-1.37,3.91-2.05,5.04-2.41,1.13-.36,1.73-.42,2.04-.42.31,0,.33.07.33.07,0,0,.03.06-.16.28-.2.22-.62.58-1.48,1.27-.85.69-2.14,1.72-3.94,3.39-1.81,1.67-4.14,4-6.94,7.38-2.77,3.39-6.09,7.85-9.48,13.8-3.41,5.94-6.54,13.45-9.11,23.15-.66,2.42-1.3,4.97-1.96,7.65-.16.67-.33,1.34-.49,2.03-.15.66-.29,1.32-.44,1.99-.28,1.36-.56,2.74-.79,4.19-1.03,5.77-1.71,12.25-3.44,19.45-.91,3.59-2.09,7.43-4.35,11.27-.52.97-1.24,1.89-1.94,2.82-.33.48-.77.9-1.18,1.34-.42.43-.84.89-1.27,1.28-1.67,1.49-3.55,2.87-5.64,4.03-4.18,2.32-9.4,3.56-14.61,2.97-5.21-.55-10.25-2.8-14.38-6.26-4.1-3.42-7.1-7.83-8.77-12.62-.83-2.4-1.32-4.89-1.44-7.38,0-.62-.01-1.24-.02-1.86.04-.58.08-1.16.12-1.74.05-.57.07-1.15.15-1.72.09-.56.18-1.12.27-1.67.76-4.43,2.22-8.43,3.92-12.05,1.71-3.63,3.67-6.89,5.7-9.9,4.1-5.99,8.44-11.02,12.55-15.48,4.2-4.59,8.53-8.41,12.64-11.65,8.25-6.5,15.74-10.97,22.12-14.38,6.4-3.39,11.77-5.62,16.12-7.24,1.09-.39,2.11-.77,3.07-1.11.97-.31,1.89-.59,2.74-.86.85-.26,1.64-.51,2.38-.72.75-.19,1.44-.36,2.08-.53,2.54-.66,4.3-.93,5.48-1.08,2.37-.3,2.49-.04,2.49-.04Z"/>
      </g>
      <g>
        <g>
          <path class="cls-6" d="M.05,39.01c4.68-.43,12.51,1.87,25.1,8.59,20.81,11.11,35.83,24.13,43.58,33.48,9.33,11.25,19.76,22.01,34.17,20.73,13.01-1.15,22.67-17.35,14.44-32.57-7.24-13.39-28.08-20.13-41.83-23.58C55.81,40.71,26.35,38.61.05,39.01"/>
          <path class="cls-7" d="M.05,39.01s0-.28,2.29-.72c2.29-.44,6.86-1.07,16.02-1.4,4.58-.15,10.31-.22,17.48.02,7.16.27,15.76.75,26.07,2.17,5.14.71,10.76,1.69,16.74,3.17,5.95,1.48,12.34,3.37,19.06,6.2,3.35,1.45,6.78,3.15,10.19,5.3,3.4,2.16,6.83,4.77,9.82,8.28.36.45.72.91,1.09,1.37.36.46.73.91,1.04,1.43.32.51.64,1.02.96,1.53l.47.78.39.81c1.08,2.14,1.97,4.47,2.5,6.94,1.09,4.92.92,10.43-1.05,15.54-1.98,5.09-5.38,9.52-9.87,12.34-2.19,1.49-4.7,2.43-7.22,3.05-1.27.19-2.62.49-3.77.47-.59.02-1.19.04-1.78.06-.59.02-1.18-.06-1.77-.08-4.69-.3-9.13-1.73-12.82-3.77-3.72-2.02-6.85-4.48-9.59-6.99-2.74-2.52-5.12-5.11-7.3-7.63-1.08-1.27-2.13-2.52-3.12-3.75-.99-1.2-1.87-2.26-2.84-3.34-3.84-4.27-7.79-7.96-11.57-11.2-7.58-6.49-14.49-11.27-20.33-15.09-5.88-3.77-10.74-6.62-14.66-8.72-7.86-4.23-12.08-5.51-14.21-6.08-1.07-.29-1.63-.42-1.92-.52-.29-.11-.29-.18-.29-.18,0,0-.02-.07.24-.21.26-.14.81-.37,1.98-.5,2.31-.29,7.21-.04,15.86,3.3,4.33,1.66,9.56,4.05,15.91,7.48,6.32,3.47,13.77,8,22.04,14.48,4.13,3.24,8.46,6.98,12.8,11.52,1.08,1.13,2.18,2.36,3.23,3.58,1,1.17,2.02,2.34,3.07,3.52,2.11,2.34,4.33,4.67,6.76,6.83,4.83,4.3,10.61,8.05,17.24,8.38.41.02.83.07,1.24.06.42-.02.84-.04,1.26-.06.9.02,1.57-.2,2.34-.29.38-.04.73-.23,1.11-.32.36-.14.76-.18,1.1-.39.71-.35,1.45-.64,2.11-1.14,1.4-.83,2.62-2.05,3.73-3.38.51-.71,1.07-1.39,1.46-2.2.49-.75.8-1.6,1.16-2.43,1.3-3.37,1.42-7.01.71-10.37-.35-1.69-.95-3.31-1.71-4.84-.73-1.54-1.66-2.88-2.73-4.19-2.15-2.59-4.86-4.77-7.71-6.63-2.86-1.86-5.85-3.44-8.86-4.79-6.03-2.7-11.99-4.63-17.62-6.21-5.62-1.57-10.87-2.69-15.82-3.59-9.88-1.8-18.28-2.76-25.29-3.55-7.02-.77-12.67-1.26-17.21-1.67-9.08-.8-13.7-1.3-16.03-1.7-2.34-.4-2.4-.68-2.4-.68Z"/>
        </g>
        <g>
          <path class="cls-6" d="M192.43,127.29c-4.9-.66-20.25-8.76-32.2-16.54-19.77-12.87-28.5-22.86-35.42-32.84-8.32-12.01-17.79-23.63-32.25-23.61-13.06.02-24.08,15.32-17.2,31.19,6.06,13.97,26.23,22.49,39.63,27.12,19.18,6.62,51.34,11.12,77.43,14.68"/>
          <path class="cls-7" d="M192.43,127.29s-.05.28-2.42.38c-2.37.1-7.06.04-16.35-.73-4.64-.4-10.44-.96-17.67-1.89-7.23-.95-15.89-2.2-26.25-4.37-5.17-1.1-10.8-2.45-16.82-4.47-5.92-1.99-12.28-4.4-18.87-7.81-3.29-1.72-6.64-3.7-9.95-6.12-3.3-2.43-6.57-5.34-9.38-9.09-.67-.97-1.33-1.96-1.97-2.98-.55-1.09-1.17-2.18-1.64-3.32-.41-1.16-.9-2.3-1.23-3.51-.15-.61-.29-1.23-.44-1.85-.14-.62-.31-1.24-.35-1.89-.73-5.09-.1-10.68,2.33-15.71.65-1.24,1.27-2.48,2.1-3.58.74-1.17,1.68-2.18,2.58-3.2,1.93-1.92,4.05-3.66,6.49-4.83,1.16-.68,2.47-1.07,3.73-1.54.64-.2,1.31-.32,1.96-.47.65-.14,1.3-.3,1.97-.32.67-.05,1.33-.09,1.99-.14.66-.04,1.23.04,1.85.05.61.04,1.21.05,1.81.12.6.09,1.19.18,1.79.27,1.19.14,2.33.53,3.47.8,1.12.34,2.21.77,3.28,1.19,2.08.94,4.06,2,5.81,3.24,3.55,2.44,6.44,5.25,8.96,8.07,2.52,2.83,4.66,5.68,6.63,8.45.98,1.37,1.92,2.78,2.8,4.06.87,1.28,1.74,2.51,2.61,3.69,3.48,4.75,7.12,8.75,10.74,12.26,7.26,7,14.23,12.03,20.04,16.18,5.85,4.1,10.7,7.2,14.59,9.64,7.8,4.88,11.81,7.07,13.81,8.19.5.25.88.48,1.17.64.28.14.48.26.61.35.26.18.25.25.25.25,0,0,0,.07-.29.14-.29.07-.9.15-2.08,0-2.34-.32-6.94-1.52-15.4-5.48-4.23-1.99-9.45-4.63-15.76-8.4-6.27-3.81-13.77-8.59-21.89-15.74-2.02-1.8-4.06-3.76-6.11-5.89-2.03-2.14-4.05-4.47-6.02-6.98-.99-1.25-1.96-2.55-2.92-3.88-.98-1.33-1.85-2.6-2.83-3.9-1.92-2.59-3.96-5.19-6.21-7.65-2.25-2.45-4.73-4.77-7.5-6.63-2.77-1.86-5.82-3.28-9.15-3.79-.42-.06-.84-.12-1.26-.19-.42-.07-.86-.05-1.28-.08-.42,0-.88-.06-1.28-.04l-1.16.1c-.19.02-.39,0-.58.05l-.58.14c-.38.1-.78.15-1.16.26-.74.33-1.54.49-2.26.95-1.51.69-2.85,1.84-4.11,3.07-.57.68-1.21,1.31-1.68,2.1-.56.72-.95,1.56-1.39,2.37-1.6,3.32-2.03,7.01-1.56,10.49.02.44.13.87.24,1.3.1.43.2.86.29,1.28.21.85.59,1.66.85,2.49.31.81.75,1.53,1.1,2.3.44.73.94,1.44,1.38,2.16,2.03,2.8,4.65,5.22,7.42,7.33,2.79,2.11,5.74,3.93,8.69,5.55,5.93,3.21,11.86,5.66,17.46,7.71,5.53,2.04,10.84,3.52,15.81,4.8,9.95,2.53,18.43,4.25,25.5,5.71,7.09,1.44,12.78,2.59,17.35,3.52,9.14,1.89,13.74,3.07,16.04,3.81,2.31.74,2.32,1.03,2.32,1.03Z"/>
        </g>
      </g>
      <g>
        <path class="cls-6" d="M199.38,157.05c4.53-.45,8.57,2.86,9.02,7.38.45,4.53-2.86,8.57-7.39,9.02-4.53.45-8.57-2.86-9.02-7.39-.45-4.53,2.86-8.57,7.39-9.02Z"/>
        <path class="cls-7" d="M199.38,157.05s0,.14-.35.41c-.35.26-1.08.65-2.2,1.52-.54.46-1.17,1.07-1.74,1.94-.56.87-1.07,2.01-1.16,3.42-.1,1.38.22,3.08,1.37,4.52,1.11,1.44,3.12,2.59,5.49,2.36,2.37-.25,4.12-1.78,4.92-3.41.84-1.64.82-3.36.44-4.7-.37-1.36-1.1-2.38-1.82-3.12-.73-.74-1.47-1.21-2.09-1.55-1.27-.63-2.06-.87-2.45-1.06-.4-.19-.42-.33-.42-.33,0,0-.03-.14.37-.37.2-.12.51-.26,1.01-.36.5-.11,1.18-.16,2.1-.05.91.13,2.07.45,3.34,1.27.63.41,1.29.94,1.89,1.64.62.69,1.19,1.56,1.62,2.59.87,2.04,1.2,4.91-.08,7.82-.63,1.43-1.63,2.85-3.07,3.96-1.42,1.13-3.28,1.92-5.33,2.14-2.04.18-4-.21-5.6-1.03-1.62-.79-2.88-1.96-3.78-3.22-1.83-2.57-2.11-5.42-1.69-7.59.41-2.22,1.5-3.81,2.54-4.87,1.07-1.06,2.15-1.62,3.02-1.95.89-.3,1.58-.4,2.1-.39.52,0,.86.06,1.09.14.46.14.47.28.47.28Z"/>
      </g>
      <g>
        <path class="cls-5" d="M175.26,152.14c4.53-.45,8.57,2.86,9.02,7.39.45,4.53-2.86,8.57-7.39,9.02-4.53.45-8.57-2.86-9.02-7.39-.45-4.53,2.86-8.57,7.39-9.02Z"/>
        <path class="cls-7" d="M175.26,152.14s0,.14-.35.41c-.35.26-1.08.65-2.2,1.52-.54.46-1.17,1.07-1.74,1.94-.56.87-1.07,2.01-1.16,3.42-.1,1.38.22,3.08,1.37,4.51,1.11,1.44,3.12,2.59,5.49,2.36,2.37-.25,4.12-1.78,4.92-3.41.84-1.64.82-3.36.44-4.7-.37-1.36-1.1-2.38-1.82-3.12-.73-.74-1.47-1.21-2.09-1.55-1.27-.63-2.06-.87-2.45-1.06-.4-.19-.42-.33-.42-.33,0,0-.03-.14.37-.37.2-.12.51-.26,1.01-.36.5-.11,1.18-.16,2.1-.05.91.13,2.07.45,3.34,1.27.63.41,1.29.94,1.89,1.64.62.69,1.19,1.56,1.62,2.59.87,2.04,1.2,4.91-.08,7.82-.63,1.43-1.63,2.85-3.07,3.96-1.42,1.13-3.28,1.92-5.33,2.15-2.04.18-4-.21-5.6-1.03-1.62-.79-2.88-1.96-3.78-3.22-1.83-2.57-2.11-5.42-1.69-7.59.41-2.22,1.5-3.81,2.54-4.87,1.07-1.06,2.15-1.62,3.02-1.95.89-.3,1.58-.4,2.1-.4.52,0,.86.06,1.09.14.46.14.47.28.47.28Z"/>
      </g>
      <g>
        <path class="cls-4" d="M191.09,135.93c4.53-.45,8.57,2.86,9.02,7.39.45,4.53-2.86,8.57-7.38,9.02-4.53.45-8.57-2.86-9.02-7.39-.45-4.53,2.86-8.57,7.39-9.02Z"/>
        <path class="cls-7" d="M191.09,135.93s0,.14-.35.41c-.35.26-1.08.65-2.2,1.52-.54.46-1.17,1.07-1.74,1.94-.56.87-1.07,2.01-1.16,3.42-.1,1.38.22,3.08,1.37,4.52,1.11,1.44,3.12,2.59,5.49,2.36,2.37-.25,4.12-1.78,4.92-3.41.84-1.64.82-3.36.44-4.7-.37-1.36-1.1-2.38-1.82-3.12-.73-.74-1.47-1.21-2.09-1.55-1.27-.63-2.06-.87-2.45-1.06-.4-.19-.42-.33-.42-.33,0,0-.03-.14.37-.37.2-.12.51-.26,1.01-.36.5-.11,1.18-.16,2.1-.05.91.13,2.07.45,3.34,1.27.63.41,1.29.94,1.89,1.64.62.69,1.19,1.56,1.62,2.59.87,2.04,1.2,4.91-.08,7.82-.63,1.43-1.63,2.85-3.07,3.96-1.42,1.13-3.28,1.92-5.33,2.14-2.04.18-4-.21-5.6-1.03-1.62-.79-2.88-1.96-3.78-3.22-1.83-2.57-2.1-5.42-1.69-7.59.41-2.22,1.5-3.81,2.54-4.87,1.07-1.06,2.15-1.62,3.02-1.95.89-.3,1.58-.4,2.1-.39.52,0,.86.06,1.09.14.46.14.47.28.47.28Z"/>
      </g>
      <g>
        <g>
          <path class="cls-5" d="M167.36,192.69c.88,8.8,8.72,15.23,17.53,14.36,8.81-.88,15.23-8.72,14.36-17.53-.88-8.81-8.73-15.23-17.53-14.36-8.81.88-15.23,8.72-14.36,17.53Z"/>
          <path class="cls-7" d="M167.36,192.69s-.14.02-.39-.78c-.06-.2-.13-.45-.21-.77-.06-.32-.09-.7-.14-1.17-.09-.93-.04-2.19.27-3.86.38-1.64,1.09-3.7,2.65-5.91.39-.55.85-1.09,1.34-1.65.53-.52,1.06-1.11,1.72-1.6,1.26-1.06,2.82-2.02,4.68-2.72,1.85-.71,3.98-1.18,6.32-1.19,2.34-.01,4.88.46,7.37,1.59,2.47,1.13,4.92,2.89,6.83,5.41,1.95,2.47,3.3,5.69,3.69,9.25.32,3.57-.37,7-1.8,9.81-1.37,2.84-3.44,5.05-5.64,6.65-2.22,1.6-4.63,2.56-6.92,3.01-2.3.44-4.48.4-6.43.06-1.95-.33-3.67-.96-5.12-1.75-.74-.36-1.38-.83-2-1.23-.59-.46-1.15-.89-1.64-1.36-1.96-1.86-3.06-3.74-3.74-5.27-.3-.79-.58-1.47-.71-2.1-.16-.62-.28-1.15-.31-1.62-.13-.92-.09-1.54-.04-1.96.09-.82.23-.83.23-.83,0,0,.14-.02.46.69.16.36.35.9.71,1.67.15.39.37.83.64,1.33.23.52.59,1.06.97,1.68.82,1.21,1.96,2.64,3.72,4,.42.36.94.64,1.44.99.55.27,1.08.63,1.7.86,1.2.56,2.61.95,4.16,1.13,3.06.38,6.93-.19,10.29-2.74,1.65-1.26,3.21-2.96,4.23-5.14,1.07-2.14,1.56-4.72,1.33-7.43-.31-2.68-1.28-5.09-2.73-6.97-1.4-1.92-3.23-3.29-5.08-4.21-3.75-1.85-7.63-1.7-10.56-.78-1.49.44-2.78,1.12-3.87,1.87-1.12.72-1.99,1.58-2.76,2.39-1.49,1.67-2.35,3.3-2.94,4.65-.53,1.37-.85,2.47-1.02,3.32-.09.42-.17.78-.24,1.08-.05.3-.09.55-.13.75-.17.8-.31.84-.31.84Z"/>
        </g>
        <path class="cls-3" d="M171.02,192.32c.67,6.74,6.6,11.69,13.32,11.2.11,0,.21-.01.32-.02.11-.01.21-.03.32-.04,3.26-.49,5.6-3.46,5.27-6.78-.34-3.43-3.39-5.93-6.82-5.59-3.43.34-6.48-2.16-6.82-5.59-.33-3.32,2.01-6.29,5.27-6.78-6.69.84-11.53,6.86-10.85,13.6Z"/>
        <path class="cls-1" d="M181.87,178.72c-3.26.49-5.6,3.46-5.27,6.78.34,3.43,3.4,5.93,6.82,5.59,3.43-.34,6.48,2.16,6.82,5.59.33,3.32-2.01,6.29-5.27,6.78,6.69-.84,11.53-6.86,10.85-13.6-.67-6.75-6.6-11.69-13.32-11.2-.11,0-.21.01-.32.02-.11.01-.21.03-.32.04Z"/>
      </g>
      <g>
        <path class="cls-2" d="M238.75,213.31c.88,8.8,8.72,15.23,17.53,14.36,8.81-.88,15.23-8.72,14.36-17.53-.88-8.8-8.72-15.23-17.53-14.36-8.81.88-15.23,8.72-14.36,17.53Z"/>
        <path class="cls-3" d="M242.41,212.95c.67,6.75,6.6,11.69,13.32,11.2.11,0,.21-.01.32-.02.11-.01.21-.03.32-.04,3.26-.49,5.6-3.46,5.27-6.78-.34-3.43-3.39-5.93-6.82-5.59-3.43.34-6.48-2.16-6.82-5.59-.33-3.32,2.01-6.29,5.27-6.78-6.69.84-11.53,6.86-10.85,13.6Z"/>
        <path class="cls-1" d="M253.27,199.35c-3.26.49-5.6,3.46-5.27,6.78.34,3.43,3.39,5.93,6.82,5.59,3.43-.34,6.48,2.16,6.82,5.59.33,3.32-2.01,6.29-5.27,6.78,6.69-.84,11.53-6.86,10.85-13.6-.67-6.75-6.6-11.69-13.32-11.2-.11,0-.21.01-.32.02-.11.01-.21.03-.32.04Z"/>
      </g>
      <g>
        <path class="cls-2" d="M253.02,145.72c.65,8.82,8.34,15.45,17.16,14.8,8.82-.65,15.45-8.33,14.8-17.16-.65-8.83-8.33-15.45-17.16-14.8-8.82.65-15.45,8.34-14.8,17.16Z"/>
        <path class="cls-3" d="M256.69,145.44c.5,6.76,6.3,11.86,13.03,11.53.11,0,.21,0,.32-.02.11,0,.21-.02.32-.03,3.27-.41,5.68-3.32,5.44-6.65-.25-3.43-3.24-6.01-6.68-5.76-3.43.25-6.42-2.32-6.68-5.76-.25-3.33,2.17-6.24,5.44-6.65-6.71.67-11.69,6.56-11.2,13.32Z"/>
        <path class="cls-1" d="M267.89,132.13c-3.27.41-5.68,3.32-5.44,6.65.25,3.43,3.24,6.01,6.68,5.76s6.42,2.32,6.68,5.76c.25,3.33-2.17,6.24-5.44,6.65,6.71-.67,11.7-6.56,11.2-13.32-.5-6.76-6.3-11.86-13.03-11.53-.11,0-.21,0-.32.02-.11,0-.21.02-.32.03Z"/>
      </g>
      <g>
        <path class="cls-2" d="M217.33,116.7c.65,8.82,8.34,15.45,17.16,14.79,8.82-.65,15.45-8.34,14.8-17.16-.65-8.83-8.34-15.45-17.16-14.8-8.82.65-15.45,8.34-14.8,17.16Z"/>
        <path class="cls-3" d="M221,116.43c.5,6.76,6.3,11.86,13.03,11.53.11,0,.21,0,.32-.02.11,0,.21-.02.32-.03,3.27-.41,5.68-3.32,5.44-6.65-.25-3.43-3.24-6.01-6.68-5.76-3.43.25-6.42-2.32-6.68-5.76-.25-3.33,2.17-6.24,5.44-6.65-6.71.67-11.7,6.56-11.2,13.32Z"/>
        <path class="cls-1" d="M232.2,103.11c-3.27.41-5.68,3.32-5.44,6.65.25,3.43,3.24,6.01,6.68,5.76,3.43-.25,6.42,2.32,6.68,5.76.25,3.33-2.17,6.24-5.44,6.64,6.71-.67,11.7-6.56,11.2-13.32-.5-6.76-6.3-11.86-13.03-11.53-.11,0-.21,0-.32.02-.11,0-.21.02-.32.03Z"/>
      </g>
      <g>
        <path class="cls-2" d="M231.99,40.68c.88,8.81,8.72,15.23,17.53,14.36,8.81-.88,15.23-8.72,14.36-17.53-.88-8.81-8.72-15.23-17.53-14.36-8.81.88-15.23,8.72-14.36,17.53Z"/>
        <path class="cls-3" d="M235.65,40.31c.67,6.74,6.6,11.69,13.32,11.2.11,0,.21-.01.32-.02.11-.01.21-.03.32-.04,3.26-.49,5.6-3.46,5.27-6.78-.34-3.43-3.4-5.93-6.82-5.59-3.43.34-6.48-2.16-6.82-5.59-.33-3.32,2.01-6.29,5.27-6.78-6.69.84-11.53,6.86-10.85,13.6Z"/>
        <path class="cls-1" d="M246.5,26.72c-3.26.49-5.6,3.46-5.27,6.78.34,3.43,3.39,5.93,6.82,5.59,3.43-.34,6.48,2.16,6.82,5.59.33,3.32-2.01,6.29-5.27,6.78,6.69-.84,11.53-6.86,10.85-13.6-.67-6.75-6.6-11.69-13.32-11.2-.11,0-.21.01-.32.02-.11.01-.21.03-.32.04Z"/>
      </g>
      <g>
        <path class="cls-2" d="M187.97,26.6c.88,8.8,8.72,15.23,17.53,14.36,8.81-.88,15.23-8.72,14.36-17.53-.88-8.81-8.72-15.23-17.53-14.36-8.81.88-15.23,8.72-14.36,17.53Z"/>
        <path class="cls-3" d="M191.63,26.23c.67,6.75,6.6,11.69,13.32,11.2.11,0,.21-.01.32-.02.11-.01.21-.03.32-.04,3.26-.49,5.6-3.46,5.27-6.78-.34-3.43-3.4-5.93-6.82-5.59-3.43.34-6.48-2.16-6.82-5.59-.33-3.32,2.01-6.29,5.27-6.78-6.69.84-11.53,6.86-10.85,13.6Z"/>
        <path class="cls-1" d="M202.49,12.63c-3.26.49-5.6,3.46-5.27,6.78.34,3.43,3.39,5.93,6.82,5.59,3.43-.34,6.48,2.16,6.82,5.59.33,3.32-2.01,6.29-5.27,6.78,6.69-.84,11.53-6.86,10.85-13.6-.67-6.75-6.6-11.69-13.32-11.2-.11,0-.21.01-.32.02-.11.01-.21.03-.32.04Z"/>
      </g>
      <g>
        <path class="cls-2" d="M128.46,42.46c.88,8.8,8.72,15.23,17.53,14.36,8.81-.88,15.23-8.72,14.36-17.53-.88-8.81-8.72-15.23-17.53-14.36-8.81.88-15.23,8.72-14.36,17.53Z"/>
        <path class="cls-3" d="M132.13,42.09c.67,6.74,6.6,11.69,13.32,11.2.11,0,.21-.01.32-.02.11-.01.21-.03.32-.04,3.26-.49,5.6-3.46,5.27-6.78-.34-3.43-3.39-5.93-6.82-5.59-3.43.34-6.48-2.16-6.82-5.59-.33-3.32,2.01-6.29,5.27-6.78-6.69.84-11.53,6.86-10.85,13.6Z"/>
        <path class="cls-1" d="M142.98,28.5c-3.26.49-5.6,3.46-5.27,6.78.34,3.43,3.39,5.93,6.82,5.59,3.43-.34,6.48,2.16,6.82,5.59.33,3.32-2.01,6.29-5.27,6.78,6.69-.84,11.53-6.86,10.85-13.6-.67-6.75-6.6-11.69-13.32-11.2-.11,0-.21.01-.32.02-.11.01-.21.03-.32.04Z"/>
      </g>
      <g>
        <path class="cls-2" d="M78.94,77.7c.88,8.8,8.72,15.23,17.53,14.36,8.8-.88,15.23-8.72,14.36-17.53-.88-8.81-8.72-15.23-17.53-14.36-8.8.88-15.23,8.72-14.36,17.53Z"/>
        <path class="cls-3" d="M82.6,77.33c.67,6.74,6.6,11.69,13.32,11.2.11,0,.21-.01.32-.02.11-.01.21-.03.32-.04,3.26-.49,5.6-3.46,5.27-6.78-.34-3.43-3.39-5.93-6.82-5.59-3.43.34-6.48-2.16-6.82-5.59-.33-3.32,2.01-6.29,5.27-6.78-6.69.84-11.53,6.86-10.85,13.6Z"/>
        <path class="cls-1" d="M93.46,63.73c-3.26.49-5.6,3.46-5.27,6.78.34,3.43,3.39,5.93,6.82,5.59,3.43-.34,6.48,2.16,6.82,5.59.33,3.32-2.01,6.29-5.27,6.78,6.69-.84,11.53-6.86,10.85-13.6-.67-6.75-6.6-11.69-13.32-11.2-.11,0-.21.01-.32.02-.11.01-.21.03-.32.04Z"/>
      </g>
      <g>
        <path class="cls-2" d="M72.05,165.51c.88,8.81,8.72,15.23,17.53,14.36,8.8-.88,15.23-8.72,14.36-17.53-.88-8.81-8.72-15.23-17.53-14.36-8.8.88-15.23,8.72-14.36,17.53Z"/>
        <path class="cls-3" d="M75.71,165.14c.67,6.74,6.6,11.69,13.32,11.2.11,0,.21-.01.32-.02.11-.01.21-.03.32-.04,3.26-.49,5.6-3.46,5.27-6.78-.34-3.43-3.39-5.93-6.82-5.59-3.43.34-6.48-2.16-6.82-5.59-.33-3.32,2.01-6.29,5.27-6.78-6.69.84-11.53,6.86-10.85,13.6Z"/>
        <path class="cls-1" d="M86.57,151.54c-3.26.49-5.6,3.46-5.27,6.78.34,3.43,3.39,5.93,6.82,5.59,3.43-.34,6.48,2.16,6.82,5.59.33,3.32-2.01,6.29-5.27,6.78,6.69-.84,11.53-6.86,10.85-13.6-.67-6.75-6.6-11.69-13.32-11.2-.11,0-.21.01-.32.02-.11.01-.21.03-.32.04Z"/>
      </g>
      <g>
        <path class="cls-2" d="M104.42,214.84c.88,8.8,8.72,15.23,17.53,14.36,8.81-.88,15.23-8.72,14.36-17.53-.88-8.81-8.72-15.23-17.53-14.36-8.81.88-15.23,8.72-14.36,17.53Z"/>
        <path class="cls-3" d="M108.09,214.48c.67,6.75,6.6,11.69,13.32,11.2.11,0,.21-.01.32-.02.11-.01.21-.03.32-.04,3.26-.49,5.6-3.46,5.27-6.78-.34-3.43-3.4-5.93-6.82-5.59-3.43.34-6.48-2.16-6.82-5.59-.33-3.32,2.01-6.29,5.27-6.78-6.69.84-11.53,6.86-10.85,13.6Z"/>
        <path class="cls-1" d="M118.94,200.88c-3.26.49-5.6,3.46-5.27,6.78.34,3.43,3.39,5.93,6.82,5.59,3.43-.34,6.48,2.16,6.82,5.59.33,3.32-2.01,6.29-5.27,6.78,6.69-.84,11.53-6.86,10.85-13.6-.67-6.75-6.6-11.69-13.32-11.2-.11,0-.21.01-.32.02-.11.01-.21.03-.32.04Z"/>
      </g>
    </g>
  </g>
</svg>